<svg xmlns="http://www.w3.org/2000/svg" height="512pt" viewBox="0 -16 512.00063 512" width="512pt"><path d="m206.601562 85.589844 34.398438-34.398438v53.792969c0 8.292969 6.710938 15.003906 15 15.003906 8.292969 0 15.003906-6.710937 15.003906-15.003906v-53.792969l34.398438 34.398438c5.859375 5.859375 15.351562 5.859375 21.210937 0s5.859375-15.351563 0-21.210938l-59.988281-59.988281c-5.855469-5.871094-15.429688-5.835937-21.25 0l-59.988281 59.988281c-5.859375 5.859375-5.859375 15.351563 0 21.210938s15.355469 5.859375 21.214843 0zm0 0"></path><path d="m64.375 325.613281c5.859375 5.859375 15.355469 5.859375 21.214844 0s5.859375-15.351562 0-21.214843l-34.398438-34.398438h53.792969c8.292969 0 15.003906-6.707031 15.003906-15s-6.710937-15-15.003906-15h-53.792969l34.398438-34.398438c5.859375-5.859374 5.859375-15.355468 0-21.214843s-15.351563-5.859375-21.210938 0l-59.988281 59.988281c-5.808594 5.792969-5.898437 15.367188 0 21.25zm0 0"></path><path d="m407.015625 270.003906h53.792969l-34.398438 34.398438c-5.859375 5.859375-5.859375 15.351562 0 21.210937s15.355469 5.859375 21.214844 0l59.988281-59.988281c5.804688-5.789062 5.894531-15.367188 0-21.25l-59.988281-59.984375c-5.859375-5.863281-15.355469-5.863281-21.214844 0-5.859375 5.859375-5.859375 15.351563 0 21.210937l34.398438 34.398438h-53.792969c-8.292969 0-15 6.710938-15 15 0 8.292969 6.707031 15.003906 15 15.003906zm0 0"></path><path d="m136.910156 480.023438h238.179688c4.304687 0 8.394531-1.847657 11.25-5.070313 2.839844-3.222656 4.160156-7.515625 3.632812-11.792969-8.394531-67.359375-65.996094-118.148437-133.972656-118.148437s-125.578125 50.789062-133.972656 118.148437c-.527344 4.277344.789062 8.570313 3.632812 11.792969 2.859375 3.222656 6.945313 5.070313 11.25 5.070313zm0 0"></path><path d="m256 315.007812c41.359375 0 75.007812-33.652343 75.007812-75.007812s-33.648437-75.007812-75.007812-75.007812c-41.355469 0-75.007812 33.652343-75.007812 75.007812s33.652343 75.007812 75.007812 75.007812zm0 0"></path></svg>