<svg xmlns="http://www.w3.org/2000/svg" xmlns:xlink="http://www.w3.org/1999/xlink" id="Capa_1" x="0px" y="0px" viewBox="0 0 512 512" style="enable-background:new 0 0 512 512;" xml:space="preserve"><g>	<path d="M256,512c22.1,0,41.2-13.1,49.9-32h-99.9C214.8,498.9,233.9,512,256,512z"></path>	<path d="M241,380V258.7c-34.2-6-60-32.3-60-63.7c0-8.3,6.7-15,15-15s15,6.7,15,15c0,15.2,12.5,28.2,30,33V10.3  C230.7,3.7,218.6,0,206,0c-31.5,0-58.5,22.8-63.9,53.5C105.9,64.1,81,97.1,81,135c0,20.3,7.2,39.6,20.3,55  C88.2,205.4,81,224.7,81,245c0,37.9,24.9,70.9,61.1,81.5c5.5,30.7,32.4,53.5,63.9,53.5L241,380z"></path>	<path d="M181,425c0,13.8,11.2,25,25,25h100c13.8,0,25-11.2,25-25v-15H181L181,425z"></path>	<path d="M369.9,53.5C364.5,22.8,337.5,0,306,0c-12.6,0-24.7,3.7-35,10.3v111.1c34.2,6,60,32.3,60,63.7c0,8.3-6.7,15-15,15  c-8.3,0-15-6.7-15-15c0-15.2-12.5-28.2-30-33v228h35c31.5,0,58.5-22.8,63.9-53.5c36.1-10.6,61.1-43.6,61.1-81.5  c0-20.3-7.2-39.6-20.3-55c13.1-15.4,20.3-34.7,20.3-55C431,97.1,406.1,64.1,369.9,53.5L369.9,53.5z"></path></g></svg>