<svg xmlns="http://www.w3.org/2000/svg" id="Capa_1" height="512" viewBox="0 0 512 512" width="512"><g><path d="m76 181c27.656 0 52.969-15.132 66.064-39.492 6.724-12.466 21.534-20.508 37.735-20.508h32.402c16.201 0 31.011 8.042 37.72 20.493 13.11 24.375 38.423 39.507 66.079 39.507 41.353 0 75-33.647 75-75s-33.647-75-75-75c-27.656 0-52.969 15.132-66.064 39.492-6.724 12.466-21.534 20.508-37.735 20.508h-32.402c-16.201 0-31.011-8.042-37.72-20.493-13.11-24.375-38.423-39.507-66.079-39.507-41.353 0-76 33.647-76 75s34.647 75 76 75zm225-90h30v30h-30z"></path><path d="m76 481c27.656 0 52.969-15.132 66.064-39.492 6.724-12.466 21.534-20.508 37.735-20.508h32.402c16.201 0 31.011 8.042 37.72 20.493 13.11 24.375 38.423 39.507 66.079 39.507 41.353 0 75-33.647 75-75s-33.647-75-75-75c-27.656 0-52.969 15.132-66.064 39.492-6.724 12.466-21.534 20.508-37.735 20.508h-32.402c-16.201 0-31.011-8.042-37.72-20.493-13.11-24.375-38.423-39.507-66.079-39.507-41.353 0-76 33.647-76 75s34.647 75 76 75zm225-90h30v30h-30z"></path><path d="m369.936 220.492c-6.724 12.466-21.534 20.508-37.735 20.508h-32.402c-16.201 0-31.011-8.042-37.72-20.493-13.11-24.375-38.423-39.507-66.079-39.507-41.353 0-75 33.647-75 75s33.647 75 75 75c27.656 0 52.969-15.132 66.064-39.492 6.724-12.466 21.534-20.508 37.735-20.508h32.402c16.201 0 31.011 8.042 37.72 20.493 13.11 24.375 38.423 39.507 66.079 39.507 41.353 0 76-33.647 76-75s-34.647-75-76-75c-27.656 0-52.969 15.132-66.064 39.492zm-158.936 50.508h-30v-30h30z"></path></g></svg>