<svg xmlns="http://www.w3.org/2000/svg" id="layer_1" viewBox="0 0 32 32"><path d="m15.6400146 2.0700073-11.6600341 4.4799805c-.3899536.1500244-.6499634.5200195-.6499634.9400024v9.8800049c0 5.2800293 3.3499756 10.0300293 8.3200073 11.7999878 1.4499512.5499878 2.9699707.8300171 4.5.8300171 1.4199829 0 2.8499756-.2399902 4.209961-.7299805 4.9700317-1.7800293 8.3099976-6.5100098 8.3099976-11.7900391v-9.9899902c0-.4199829-.2600098-.789978-.6499634-.9400024l-11.6600342-4.4799805c-.2299805-.0900268-.4899903-.0900268-.7199708 0zm6.0399781 10.0499878c.3900146.3900146.3900146 1.0300293 0 1.4199829l-6.3399658 6.3400269c-.2000122.1900024-.4500122.289978-.710022.289978-.25 0-.5100098-.0999756-.7000122-.289978l-3.6099854-3.6099854c-.3900146-.3900146-.3900146-1.0200195 0-1.4100342.3900146-.3999634 1.0200195-.3999634 1.4099731 0l2.9000244 2.9000244 5.6400146-5.6400146c.3899537-.3900146 1.0199586-.3900146 1.4099733 0z"></path></svg>