<svg xmlns="http://www.w3.org/2000/svg" xmlns:i="http://ns.adobe.com/AdobeIllustrator/10.0/" viewBox="0 0 676.8 144"><defs><style>      .cls-1 {        fill: #231f20;      }      .cls-1, .cls-2 {        fill-rule: evenodd;      }      .cls-2, .cls-3 {        fill: #a6192e;      }    </style></defs><g><g id="Layer_1"><g><path class="cls-3" d="M670.7,75.8c-1.9-5.6-4.5-10.4-8.1-14.5-3.5-4.1-7.8-7.4-12.9-9.8-5.1-2.4-11-3.6-17.6-3.6s-10.2.8-14.4,2.4c-4.2,1.6-8.2,4.3-11.9,8l-.4-.4,5.4-30.5h55.4V4.9h-75l-13.2,74.2h24.6c2.7-3.7,5.6-6.4,8.6-8.2,3.1-1.7,7-2.6,11.9-2.6s7,.6,9.8,1.9c2.8,1.3,5.2,3.1,7.3,5.4,2,2.3,3.6,5,4.6,8.1,1,3.1,1.5,6.3,1.5,9.8s-.5,6.6-1.6,9.7c-1.1,3.1-2.6,5.9-4.6,8.2-2,2.4-4.4,4.3-7.3,5.8-2.9,1.5-6.1,2.2-9.7,2.2-6.1,0-11.2-1.8-15.2-5.5-4-3.6-6.3-8.5-6.9-14.7h-25.7c0-8.3-2.2-15.3-6.5-21-4.3-5.8-10.6-9.6-18.6-11.4v-.4c6.5-2.2,11.4-5.8,14.7-10.7,3.3-5,4.9-10.8,4.9-17.5s-.8-7.1-2.3-11.2c-1.5-4.2-4.1-8.1-7.6-11.7-3.5-3.6-8.2-6.7-13.9-9.3-5.8-2.6-12.8-3.8-21.1-3.8s-10.9.8-16.3,2.3c-5.4,1.5-10.2,3.8-14.5,6.9-4.3,3.1-7.8,6.9-10.5,11.5-2.7,4.6-4,9.9-4,15.9s1.7,12.5,5,17.5c3.3,5,8.2,8.4,14.8,10.2v.4c-8.1,1.9-14.3,5.8-18.7,11.5-1,1.2-1.8,2.6-2.5,3.9l33.6,58.2c4.3.8,8.8,1.2,13.3,1.2s12.4-.9,18.4-2.6c6-1.7,11.4-4.3,16.1-7.8,4.7-3.5,8.5-7.8,11.4-13,1.7-3.2,3-6.7,3.6-10.6.7,3.7,1.9,7.1,3.5,10.1,2.7,5.3,6.4,9.8,11,13.3,4.6,3.6,9.9,6.2,15.8,8,5.9,1.7,12.2,2.6,18.7,2.6,6.8.1,13.2-1,19.2-3.4,6-2.4,11.3-5.7,15.8-10.1,4.5-4.3,8.2-9.5,10.8-15.4,2.7-5.9,4-12.4,4-19.3s-.9-12.2-2.8-17.7ZM505.9,33.3c1.1-2.3,2.6-4.2,4.5-5.8,1.9-1.5,4.1-2.7,6.6-3.5,2.5-.8,5.1-1.2,7.8-1.2,4.2,0,7.6.6,10.3,1.9,2.6,1.3,4.7,2.9,6.1,4.8,1.5,1.9,2.5,3.9,3,6,.5,2.1.8,4.1.8,5.8,0,5.8-1.9,10.1-5.8,13.1-3.8,3-8.6,4.5-14.4,4.5s-10.3-1.5-14.4-4.5c-4.1-3-6.1-7.4-6.1-13.1s.5-5.8,1.6-8.1ZM546.3,108c-1.2,2.8-2.8,5.2-4.9,7.2-2.1,2-4.5,3.5-7.3,4.6-2.8,1.1-5.8,1.6-9.1,1.6s-6.3-.5-9.2-1.6c-2.9-1.1-5.5-2.6-7.6-4.6-2.1-2-3.8-4.4-5.1-7.2-1.3-2.8-1.9-5.9-1.9-9.4,0-6.9,2.3-12.2,6.9-15.8,4.6-3.6,10.2-5.5,16.9-5.5s6.2.5,8.9,1.5c2.7,1,5.2,2.5,7.3,4.4,2.1,1.9,3.8,4.2,5,6.8,1.2,2.6,1.8,5.5,1.8,8.7s-.6,6.4-1.7,9.2Z"></path><g><path id="ADA_xAE_" class="cls-1" d="M485.5,138.9c3.8,0,7-3,7-7s-3.2-7-7-7-7.1,3-7.1,7,3.2,7,7.1,7h0ZM479.8,131.9c0-3.3,2.5-5.8,5.7-5.8s5.6,2.5,5.6,5.8-2.5,5.8-5.6,5.8-5.7-2.5-5.7-5.8h0ZM484,132.4h1.4l2.1,3.5h1.4l-2.3-3.5c1.2-.1,2.1-.8,2.1-2.2s-.9-2.3-2.8-2.3h-3.1v8h1.2v-3.5h0ZM484,131.4v-2.5h1.7c.8,0,1.8.2,1.8,1.2s-.9,1.3-2,1.3h-1.5Z"></path><g id="Association"><path class="cls-1" d="M473,118.9c0-6.3-4.4-9.6-10-9.6s-7.6,3.2-8.6,5h-.1v-4.2h-7.2v28.7h7.6v-16.5c0-4.4,2.6-6.6,5.9-6.6,4.8,0,4.9,3.6,4.9,5.7v17.4h7.6v-19.9h0Z"></path><path class="cls-1" d="M196.6,130.7h14.3l2.5,8h8.8l-13.7-38.8h-9.3l-13.8,38.8h8.5l2.7-8h0ZM203.7,108.7h.1l4.8,15.3h-9.9l5-15.3h0Z"></path><path class="cls-1" d="M249,118.8c-.6-8.1-7.3-9.5-12.9-9.5-9,0-11.6,5.4-11.6,9.6,0,10.7,17.8,7.1,17.8,11.9s-.9,3-4.8,3-6.3-1.8-6.3-4.2h-7.8c.2,7.7,7.3,9.9,13.8,9.9s12.6-1.5,12.6-9.9-18-7.3-18-11.8.5-2.8,4.6-2.8,4.8,1.9,5.1,3.8h7.4Z"></path><path class="cls-1" d="M277.7,118.8c-.6-8.1-7.3-9.5-12.9-9.5-9,0-11.6,5.4-11.6,9.6,0,10.7,17.8,7.1,17.8,11.9s-.9,3-4.8,3-6.3-1.8-6.3-4.2h-7.8c.2,7.7,7.3,9.9,13.8,9.9s12.6-1.5,12.6-9.9-18-7.3-18-11.8.5-2.8,4.6-2.8,4.8,1.9,5.1,3.8h7.4Z"></path><path class="cls-1" d="M310.4,124.4c0-10.4-7-15.1-14.7-15.1s-14.7,4.8-14.7,15.1,7,15.1,14.7,15.1,14.7-4.8,14.7-15.1h0ZM302.6,124.4c0,3.7-1.1,8.8-6.9,8.8s-6.9-5.1-6.9-8.8,1.1-8.7,6.9-8.7,6.9,5.1,6.9,8.7h0Z"></path><path class="cls-1" d="M331.3,128.3c0,1.3-1.3,5-5.1,5-5.7,0-5.8-6.2-5.8-9.3s1.2-8.3,6-8.3c3.5-.2,4.7,2.8,5,4.6h7.7c-.7-9-8.2-11-12.7-11-9.7,0-13.8,6.6-13.8,15.9s2.5,14.3,13.3,14.3,12.8-8.3,13.1-11.2h-7.7Z"></path><path class="cls-1" d="M343.1,110v28.7h7.6v-28.7h-7.6ZM350.7,99.6h-7.6v7h7.6v-7h0Z"></path><path class="cls-1" d="M379.8,117.6c0-7.1-7.4-8.3-11.4-8.3-5.9,0-12,1.2-12.9,10h7.3c.2-1.7.9-4,4.6-4s5,.2,5,3.4-1.5,2.1-2.6,2.3l-6.8,1c-4.8.7-8.4,3.6-8.4,9.2s4.4,8.4,8.7,8.4,7.6-2.4,9.3-4.2c.2,1.6.3,2.1.7,3.4h8.2v-1.1c-.9-.3-1.7-1.1-1.7-4.5v-15.5h0ZM372.4,128.4c0,3.5-3.4,5.7-6.7,5.7s-3.5-.8-3.5-3.5,2.3-3.8,5.1-4.3c3.1-.5,4.4-1,5.1-1.6v3.7h0Z"></path><path class="cls-1" d="M393.7,102.2h-7.6v7.8h-3.9v5.4h3.9v17.4c0,3.7,1.2,6.2,7.7,6.2h1c1.2,0,2.4,0,3.6-.1v-5.7c-.5,0-1.1.1-1.6.1-3.1,0-3.1-.6-3.1-2.3v-15.6h4.7v-5.4h-4.7v-7.8h0Z"></path><path class="cls-1" d="M402,110v28.7h7.6v-28.7h-7.6ZM409.6,99.6h-7.6v7h7.6v-7h0Z"></path><path class="cls-1" d="M443.1,124.4c0-10.4-7-15.1-14.7-15.1s-14.7,4.8-14.7,15.1,7,15.1,14.7,15.1,14.7-4.8,14.7-15.1h0ZM435.3,124.4c0,3.7-1.1,8.8-6.9,8.8s-6.9-5.1-6.9-8.8,1.1-8.7,6.9-8.7,6.9,5.1,6.9,8.7h0Z"></path></g><g id="Diabetes"><path class="cls-1" d="M189.4,90.1h16.8c12.8,0,16.1-12,16.1-20.3s-2.7-18.5-15.8-18.5h-17.1v38.8h0ZM197.3,58h7.8c3.5,0,8.9.9,8.9,12.4s-2.2,13-8.8,13h-7.9v-25.4h0Z"></path><path class="cls-1" d="M226.6,61.4v28.7h7.6v-28.7h-7.6ZM234.1,51h-7.6v7h7.6v-7h0Z"></path><path class="cls-1" d="M288.6,76c0,3.4-1.3,8.7-6.2,8.7s-6.7-4-6.7-8.3,1.3-9.2,6.5-9.2,6.4,4.3,6.4,8.8h0ZM276,51.3h-7.6v38.8h7.4v-3.6h.1c1.8,3.2,5.2,4.4,8.3,4.4,8.5,0,12.1-7.6,12.1-15.4s-5.6-14.8-11.9-14.8-7.1,2.6-8.3,4.5h-.1v-13.8h0Z"></path><path class="cls-1" d="M337.4,53.6h-7.6v7.8h-3.9v5.4h3.9v17.4c0,3.7,1.2,6.2,7.7,6.2h1c1.2,0,2.4,0,3.6-.1v-5.7c-.5,0-1.1.1-1.6.1-3.1,0-3.1-.6-3.1-2.3v-15.6h4.7v-5.4h-4.7v-7.8h0Z"></path><path class="cls-1" d="M362.4,81.7c-.6,2.1-2.8,3.1-4.9,3.1-6.1,0-6.5-4.9-6.7-7h19.7v-1.4c0-13.1-7.8-15.8-13.5-15.8-12.6,0-13.8,11.1-13.8,14.5,0,11.8,6.2,15.7,14.3,15.7s10.6-2.3,12.6-9.2h-7.8ZM351,72.9c.4-3.8,2.3-6,5.9-6s5.4,1.4,5.8,6h-11.7Z"></path><path class="cls-1" d="M263.3,68.9c0-7.1-7.4-8.3-11.4-8.3-5.9,0-12,1.2-12.9,10h7.3c.2-1.7.9-4,4.6-4s5,.2,5,3.3-1.5,2.1-2.6,2.3l-6.8,1c-4.8.7-8.4,3.6-8.4,9.2s4.4,8.4,8.7,8.4,7.6-2.4,9.3-4.2c.2,1.6.3,2.1.7,3.4h8.2v-1.1c-.9-.3-1.7-1.1-1.7-4.5v-15.6h0ZM255.9,79.8c0,3.5-3.4,5.7-6.8,5.7s-3.5-.8-3.5-3.5,2.3-3.8,5.1-4.3c3.1-.5,4.4-1,5.1-1.6v3.7h0Z"></path><path class="cls-1" d="M317.2,81.7c-.6,2.1-2.8,3.1-4.9,3.1-6.1,0-6.5-4.9-6.7-7h19.7v-1.4c0-13.1-7.8-15.8-13.5-15.8-12.6,0-13.8,11.1-13.8,14.5,0,11.8,6.2,15.7,14.3,15.7s10.6-2.3,12.6-9.2h-7.8ZM305.8,72.9c.4-3.8,2.3-6,5.9-6s5.4,1.4,5.8,6h-11.7Z"></path><path class="cls-1" d="M397.8,70.1c-.6-8.1-7.3-9.5-12.9-9.5-9,0-11.6,5.4-11.6,9.6,0,10.7,17.8,7.1,17.8,11.9s-.9,3-4.8,3-6.3-1.8-6.3-4.2h-7.8c.2,7.7,7.3,9.9,13.8,9.9s12.6-1.5,12.6-9.9-18-7.3-18-11.8.5-2.8,4.6-2.8,4.8,1.9,5.1,3.8h7.4Z"></path></g><g id="American"><path class="cls-1" d="M266.5,21.6c0-6.3-4.4-9.6-10-9.6s-6.7,3.2-7.7,4.6c-1.9-3.1-3.8-4.6-8-4.6s-7.2,3.1-8.2,5h-.1v-4.2h-7.2v28.7h7.6v-17.5c0-3.1,1.1-5.6,4.7-5.6s4.5,3.4,4.5,5.8v17.3h7.6v-17.2c0-3.4,1.4-5.9,5.1-5.9s4.1,1.4,4.1,5.7v17.4h7.6v-19.9h0Z"></path><path class="cls-1" d="M300.6,41.5h7.6v-15c0-3.2,1.1-6.9,7-6.9s1.5,0,2.2.1v-7.7c-.5,0-1-.1-1.5-.1-4.6,0-6.3,2.8-7.9,5.7h-.1v-5h-7.2v28.7h0Z"></path><path class="cls-1" d="M320.5,12.8v28.7h7.6V12.8h-7.6ZM328,2.3h-7.6v7h7.6V2.3h0Z"></path><path class="cls-1" d="M351,31c0,1.4-1.3,5-5.1,5-5.7,0-5.8-6.2-5.8-9.3s1.2-8.3,6-8.3c3.5-.2,4.7,2.8,5,4.6h7.7c-.7-9-8.2-11-12.7-11-9.7,0-13.8,6.6-13.8,15.9s2.5,14.3,13.3,14.3,12.8-8.3,13.1-11.2h-7.7Z"></path><path class="cls-1" d="M385.8,20.3c0-7.1-7.4-8.3-11.4-8.3-5.9,0-12,1.2-12.8,10h7.3c.2-1.7.9-4,4.6-4s5,.2,5,3.3-1.5,2.1-2.6,2.3l-6.8,1c-4.8.7-8.4,3.6-8.4,9.2s4.4,8.4,8.7,8.4,7.6-2.4,9.3-4.2c.2,1.6.3,2.1.7,3.4h8.2v-1.1c-.9-.3-1.7-1.1-1.7-4.5v-15.6h0ZM378.4,31.2c0,3.5-3.4,5.7-6.7,5.7s-3.5-.8-3.5-3.5,2.3-3.8,5.1-4.3c3.1-.5,4.4-1,5.1-1.6v3.7h0Z"></path><path class="cls-1" d="M417.2,21.6c0-6.3-4.4-9.6-10-9.6s-7.6,3.2-8.6,5h-.1v-4.2h-7.2v28.7h7.6v-16.5c0-4.4,2.6-6.6,5.9-6.6,4.8,0,4.9,3.6,4.9,5.7v17.4h7.6v-19.9h0Z"></path><path class="cls-1" d="M196.6,33.5h14.3l2.5,8h8.8l-13.7-38.8h-9.3l-13.8,38.8h8.5l2.7-8h0ZM203.7,11.5h.1l4.8,15.3h-9.9l5-15.3h0Z"></path><path class="cls-1" d="M288.9,33.1c-.6,2.1-2.8,3.1-4.9,3.1-6.1,0-6.5-4.9-6.7-7h19.7v-1.4c0-13.1-7.8-15.8-13.5-15.8-12.6,0-13.8,11.1-13.8,14.5,0,11.8,6.2,15.7,14.3,15.7s10.6-2.3,12.6-9.2h-7.8ZM277.5,24.3c.4-3.8,2.3-6,5.9-6s5.4,1.4,5.8,6h-11.7Z"></path></g><path id="A_xAE_" class="cls-2" d="M170,139.3c3.8,0,7-3,7-7s-3.2-7-7-7-7.1,3-7.1,7,3.2,7,7.1,7h0ZM164.3,132.3c0-3.3,2.5-5.8,5.7-5.8s5.6,2.5,5.6,5.8-2.5,5.8-5.6,5.8-5.7-2.5-5.7-5.8h0ZM168.5,132.9h1.4l2.1,3.5h1.4l-2.3-3.5c1.2-.1,2.1-.8,2.1-2.2s-.9-2.3-2.8-2.3h-3.1v8h1.2v-3.5h0ZM168.5,131.8v-2.5h1.7c.8,0,1.8.2,1.8,1.2s-.9,1.3-2,1.3h-1.5Z"></path><g><polygon class="cls-3" points="65.2 32.1 82.2 61.8 126.4 139 160.4 139 81.9 3 65.2 32.1 65.2 32.1"></polygon><polygon class="cls-3" points="48 61.1 3.4 139 90.9 139 108.8 108.2 55.1 108.2 81.9 61.1 48 61.1 48 61.1"></polygon></g></g></g></g></g><metadata></metadata></svg>