<svg xmlns="http://www.w3.org/2000/svg" xmlns:xlink="http://www.w3.org/1999/xlink" id="Layer_1" x="0px" y="0px" width="593.9px" height="103.3px" viewBox="0 0 593.9 103.3" style="enable-background:new 0 0 593.9 103.3;" xml:space="preserve"><style type="text/css">	.st0{fill:#010101;}	.st1{font-family:'ProximaNova-Regular';}	.st2{font-size:44.9981px;}	.st3{fill:#07B2E7;}	.st4{fill:#77C045;}	.st5{fill:#1A78BE;}	.st6{fill:#EB4F96;}	.st7{fill:#FDB515;}</style><g>	<g>		<g>			<path class="st0" d="M262.6,58.3c0-6.3,4.1-11.4,10.8-11.4c6.6,0,10.8,5.1,10.8,11.4s-4.1,11.4-10.8,11.4    C266.8,69.8,262.6,64.6,262.6,58.3z M280.6,58.3c0-4.4-2.6-8.4-7.2-8.4s-7.2,4-7.2,8.4c0,4.5,2.6,8.4,7.2,8.4    S280.6,62.8,280.6,58.3z"></path>			<path class="st0" d="M289.6,47.5h3.4V51c1.8-2.3,4.3-4,7.2-4v3.5c-0.4-0.1-0.8-0.1-1.3-0.1c-2.1,0-4.9,1.7-5.9,3.5v15.4h-3.4    V47.5z"></path>			<path class="st0" d="M304.5,77.5v-30h3.4v3.2c1.6-2.2,4.3-3.8,7.3-3.8c5.7,0,9.7,4.3,9.7,11.4c0,7-4,11.4-9.7,11.4    c-3,0-5.6-1.4-7.3-3.8v11.6H304.5z M314.3,50c-2.7,0-5.3,1.6-6.5,3.5v9.8c1.2,1.9,3.8,3.5,6.5,3.5c4.4,0,7-3.6,7-8.4    S318.7,50,314.3,50z"></path>			<path class="st0" d="M345,54.9c0-3.8-2-4.9-4.9-4.9c-2.6,0-5.1,1.6-6.4,3.4v15.9h-3.4v-30h3.4v11.4c1.5-1.8,4.5-3.7,7.8-3.7    c4.5,0,6.9,2.2,6.9,6.9v15.3H345V54.9z"></path>			<path class="st0" d="M368.7,66.8c-1.8,2-4.3,3-7.2,3c-3.7,0-7.6-2.5-7.6-7.2c0-4.9,3.9-7.2,7.6-7.2c3,0,5.4,0.9,7.2,3v-3.9    c0-2.9-2.3-4.6-5.5-4.6c-2.6,0-4.7,0.9-6.7,3l-1.6-2.3c2.3-2.4,5.1-3.6,8.7-3.6c4.6,0,8.4,2.1,8.4,7.3v14.9h-3.4V66.8z     M368.7,60.5c-1.3-1.8-3.6-2.7-6-2.7c-3.1,0-5.4,2-5.4,4.8c0,2.7,2.2,4.7,5.4,4.7c2.4,0,4.7-0.9,6-2.7V60.5z"></path>			<path class="st0" d="M393.5,55c0-3.8-1.9-5-4.9-5c-2.7,0-5.2,1.6-6.4,3.4v15.9h-3.4V47.5h3.4v3.1c1.5-1.8,4.5-3.7,7.7-3.7    c4.5,0,6.9,2.3,6.9,7v15.3h-3.4V55z"></path>			<path class="st0" d="M406.5,63.9c1.4,1.7,4.2,3.1,7.2,3.1c3.3,0,5.1-1.5,5.1-3.6c0-2.4-2.7-3.1-5.6-3.9c-3.7-0.9-7.9-1.8-7.9-6.3    c0-3.4,2.9-6.3,8.1-6.3c3.7,0,6.3,1.4,8.1,3.1l-1.6,2.3c-1.3-1.6-3.7-2.7-6.5-2.7c-3,0-4.8,1.4-4.8,3.3c0,2.1,2.5,2.8,5.3,3.5    c3.8,0.9,8.1,1.9,8.1,6.7c0,3.6-2.9,6.6-8.5,6.6c-3.6,0-6.6-1.1-8.8-3.4L406.5,63.9z"></path>			<path class="st0" d="M426.7,77.5v-30h6.9V50c1.7-2.1,4-3.1,6.4-3.1c5.4,0,9.5,4,9.5,11.4c0,7.4-4.1,11.4-9.5,11.4    c-2.4,0-4.6-0.9-6.4-3.1v10.8H426.7z M437.8,53.1c-1.5,0-3.3,0.8-4.1,2v6.6c0.9,1.1,2.7,2,4.1,2c2.7,0,4.8-2,4.8-5.3    C442.6,55.1,440.5,53.1,437.8,53.1z"></path>			<path class="st0" d="M453.3,47.5h6.9v2.7c1.4-1.8,4.2-3.3,6.8-3.3v6.7c-0.4-0.1-1-0.2-1.7-0.2c-1.8,0-4.2,0.8-5.1,2v13.8h-6.9    V47.5z"></path>			<path class="st0" d="M469.7,58.3c0-6.1,4.5-11.4,11.8-11.4c7.5,0,11.9,5.3,11.9,11.4s-4.4,11.4-11.9,11.4    C474.2,69.8,469.7,64.5,469.7,58.3z M486.3,58.3c0-2.9-1.7-5.3-4.8-5.3c-3,0-4.7,2.4-4.7,5.3c0,2.9,1.7,5.3,4.7,5.3    C484.6,63.7,486.3,61.3,486.3,58.3z"></path>			<path class="st0" d="M524.5,56c0-1.7-0.8-2.9-2.9-2.9c-1.9,0-3.2,1.2-3.9,2.1v14h-6.9V56c0-1.7-0.8-2.9-2.9-2.9    c-1.8,0-3.1,1.2-3.9,2.1v14h-6.9V47.5h6.9v2.7c0.9-1.3,3.7-3.2,7.2-3.2c3.1,0,5.3,1.3,6.2,3.9c1.3-1.9,4.1-3.9,7.5-3.9    c4,0,6.5,2.1,6.5,6.5v15.7h-6.9V56z"></path>			<path class="st0" d="M536,40.8c0-2.2,1.8-4,4-4c2.2,0,4,1.8,4,4c0,2.2-1.8,4-4,4C537.7,44.8,536,43,536,40.8z M536.4,47.5h6.9    v21.7h-6.9V47.5z"></path>			<path class="st0" d="M550.4,61.7c1.6,1.4,5.1,2.9,7.6,2.9c2.1,0,2.9-0.7,2.9-1.6c0-1.1-1.5-1.5-3.7-1.9c-3.7-0.6-8.9-1.4-8.9-6.9    c0-3.8,3.3-7.2,9.3-7.2c3.6,0,6.7,1.2,9.1,2.9l-2.7,4.6c-1.3-1.3-3.8-2.4-6.4-2.4c-1.6,0-2.7,0.5-2.7,1.5c0,1,1.2,1.4,3.5,1.8    c3.7,0.6,9.2,1.5,9.2,7.3c0,4.1-3.6,7.2-9.9,7.2c-3.9,0-7.9-1.3-10.2-3.3L550.4,61.7z"></path>			<path class="st0" d="M582.3,47c6.4,0,11.1,4.7,11.1,12.1v1.5H578c0.4,2,2.3,3.9,5.5,3.9c1.9,0,4.1-0.8,5.3-1.8l2.9,4.3    c-2.2,1.9-5.8,2.9-9.1,2.9c-6.7,0-11.9-4.4-11.9-11.4C570.8,52,575.5,47,582.3,47z M577.9,56h9c-0.2-1.5-1.3-3.7-4.5-3.7    C579.3,52.3,578.1,54.5,577.9,56z"></path>			<text transform="matrix(1 0 0 1 396.9095 69.2334)" class="st0 st1 st2">’</text>		</g>	</g>	<g>		<path class="st3" d="M3.8,2.1c0.3,0.2,0.5,0.4,0.8,0.7c1.8,2.6,4.2,4.6,7.2,6c1.5,0.7,2.8,1.6,4.2,2.6c1.1,0.8,2.4,1.4,3.5,2.3   c0.4,0.3,0.8,0.1,1.2-0.2c0.7-0.6,1.2-0.3,1.7,0.3c1.3,1.5,2.5,3,4,4.3c0.3,0.3,0.7,0.6,1,0.9c0.5,0.6,1,0.6,1.6,0   c0.2-0.2,0.5-0.3,0.4-0.6c-0.1-0.4-0.4-0.1-0.6-0.2c-0.6-0.1-0.7-0.5-0.7-1c-0.2-2,0.4-3.8,1.1-5.6c0.7-1.9,1.7-3.4,3.7-4.1   c0.7-0.2,1-0.9,1.8-1c1.6-0.2,3.1-0.2,4.3,1.1c0.4,0.5,1,0.8,1.3,1.3c0.4,0.5,1,1.2,0.6,2c-0.2,0.3-0.1,0.6,0,0.8   c0.5,1,0.4,2,0.3,3.1c-0.1,0.7,0,1.4-0.1,2.2c-0.3,1.5-1,2.8-1.7,4.1c-0.2,0.4-0.2,0.6,0.2,1c1.1,1.1,2.4,1.9,3.7,2.7   c0.3,0.2,0.6,0.4,0.9,0.6c1.9,1,2.9,2.6,3.2,4.7c0.4,2.6,1.4,5,2.8,7.2c1.9,2.8,3.5,5.8,4.9,8.9c0.6,1.4,1.5,1.8,2.8,2.1   c0,1.5,0,3,0,4.5c-0.8,0-1.6-0.1-2.3-0.6c-0.7-0.4-1.1-1-1.3-1.8c-0.3-1.7-1.3-3.1-2.4-4.4c-1.4-1.8-2.9-3.6-4.4-5.4   c-0.2-0.3-0.4-0.5-0.8-0.1c-0.4,0.4-0.7,0.2-0.9-0.3c-0.4-1-0.8-2.1-1.3-3.1c-0.1-0.2-0.1-0.6-0.5-0.6c-0.3,0-0.4,0.3-0.6,0.5   c-0.3,0.5-0.6,1.1-0.6,1.8c0,2-0.6,3.9-1,5.8c-1.1,4.6-2,9.2-1.4,14c0.3,2.2,1,4.4,1.6,6.6c0.3,1.4,0.8,2.7,1.1,4.1   c0.1,0.5,0.6,1.2-0.3,1.6c-0.1,0.1,0,0.3,0,0.4c0.1,0.3,0.2,0.5,0.2,0.8c0.2,0.7,0,1.1-0.8,1.1c-0.8,0-1.6,0-2.3-0.2   c-0.5-0.1-0.7,0-0.8,0.3c-0.4,0.7-0.9,0.7-1.5,0.4c-0.4-0.2-0.8-0.4-1.2-0.5c-0.9-0.4-1.1-0.3-1.3,0.6c-0.7,3.7-1.2,7.3-1.6,11   c-0.3,2.6-1.2,5-1.9,7.4c-0.3,1-0.5,2.1-0.8,3.1c-0.4,1.6,0.1,2.8,1.4,3.8c0.7,0.5,1.4,1.1,1.8,1.8c0.2,0.4,0.3,0.7-0.3,0.7   c-1.8-0.1-3.6-0.4-5.2-1.3c-0.6-0.3-0.8-0.7-0.6-1.4c0.7-2.7,0.9-5.4,0.6-8.1c-0.1-1.3,0.1-2.6,0.5-3.9c0.7-2,0.7-4.1,0.3-6.2   c-0.3-1.9-0.6-3.9-0.9-5.8c0-0.3,0.1-0.7-0.3-0.7c-0.4,0-0.7,0.1-0.9,0.4c-0.2,0.3-0.4,0.7-0.6,1c-1,2.1-1.6,4.4-2.3,6.6   c-0.7,2-1,3.9-1.3,6c-0.2,2.1-1,4.2-1.5,6.3c-0.2,0.7-0.4,1.5-0.6,2.2c-0.3,1.3,0,2.6,0.8,3.7c0.4,0.7,0.4,0.9-0.4,0.9   c-1.3,0.1-2.7,0-4-0.2c-0.6-0.1-0.6-0.3-0.3-0.7c0.3-0.3,0.6-0.7,0.9-1c1-0.7,1.2-1.7,1.2-2.9c0.1-5.1,0.1-10.2,1-15.3   c0.6-2.9,0.6-6,0.9-9c0.1-0.9,0.2-1.9,0.3-2.8c0.1-1.2-0.1-1.6-1.2-2.1C19,67,18,66.8,17.2,66.3c-1-0.6-1.1-0.9-0.7-1.9   c1.7-5.2,3.3-10.5,5.3-15.5c2.1-5.3,2.8-10.7,2.8-16.3c0-1.4-0.1-2.9,0.1-4.3c0.1-0.6-0.1-1-0.4-1.5c-1.5-2.8-3.5-5.3-5.6-7.7   c-1.1-1.3-2.4-2.5-3.6-3.7c-1.5-1.4-3.1-2.7-4.7-3.9c-1.8-1.3-3.2-3-5-4.4C4.8,6.6,4.2,6.2,3.6,6C2.8,5.7,1.9,5.5,1.1,5.2   c-1.4-0.6-1.5-1.3-0.4-2.3C1,2.6,1.2,2.3,1.5,2.1C2.3,2.1,3,2.1,3.8,2.1z"></path>		<path class="st4" d="M172.7,11.7c0,1.2,0.1,2.7-0.5,4.1c-0.5,1.3-1.2,2.3-2.8,2.5c-1.2,0.1-1.8,1.4-1.4,3c0.2,0.9,1.3,1.6,2.4,1.4   c0.8-0.2,1.6-0.6,2.3-1c1.4-0.8,2.7-1.8,4-2.8c0.2-0.2,0.4-0.5,0.7-0.4c0.8,0.4,1-0.3,1.4-0.7c2.1-2.6,4.1-5.3,6.1-8   c0.4-0.6,0.8-1.1,1-1.8c0.1-0.4,0.2-0.8,0-1.1c-0.8-1.4-0.4-2.8-0.2-4.3c0.1-0.6,0.6-0.8,1.1-0.3c1.3,1.3,2.1,3,2.4,4.8   c0.1,0.3-0.1,0.7-0.4,1c-2.1,2.2-3.2,5-4.5,7.7c-1.1,2.4-2.4,4.6-3.8,6.8c-0.3,0.4-0.6,0.7-1,1c-2.1,1.7-3.9,3.5-5.1,6   c-0.4,0.8-0.7,1.7-0.6,2.7c0.1,2.4-0.3,4.7-0.5,7.1c-0.2,2.3-0.1,4.7-0.1,7.1c0,0.4,0.3,0.4,0.6,0.6c1.2,0.5,2.6,0.7,3.9,1   c3.8,0.8,7.4,2.1,11.1,2.9c2.4,0.5,3.4,2,3.2,4.5c-0.2,1.9,0,3.8,0.2,5.7c0.3,2.3,0,4.6-0.3,6.8c-0.2,1.5-0.4,3.1-0.4,4.6   c0,0.7,0.2,1.3,0.9,1.7c1.2,0.9,2.3,1.7,3.9,1.9c0.9,0.1,1.1,0.9,1.2,1.7c0.1,0.8-0.5,0.9-1,1.2c-1,0.5-2.1,0.6-3.2,0.7   c-0.7,0.1-1.2-0.4-1.7-0.9c-0.9-1-1.7-2-3.2-2.1c-0.5,0-1-0.6-0.7-1.2c1-2.2,0.4-4.3,0.1-6.5c-0.5-3.1-1.2-6.2-1-9.4   c0-0.8-1.7-1.7-2.3-1.3c-0.3,0.2-0.2,0.5-0.2,0.7c-0.1,0.8-0.5,1-1.3,1c-1.9-0.1-3.6-0.7-5.4-1c-1.2-0.2-1.3-0.1-1.2,1.1   c0.2,2,0.4,4,0.6,6c0,0.4,0.2,0.8-0.3,1.1c-0.3,0.2-0.1,0.5-0.1,0.8c0.4,2.7,0.6,5.4,0.7,8.2c0,1.1-0.4,1.9-1.3,2.3   c-1.8,0.7-3.1,1.9-4.5,3.1c-2.4,2-5.2,3.2-7.9,4.7c-2,1.1-2.1,1.1-1.6,3.5c0.1,0.6,0.3,1.2,0.3,1.8c0,1.3,0.7,2,1.9,2.5   c0.6,0.3,1.5,0.4,1.4,1.3c0,1-0.8,1.7-1.6,2c-1.6,0.5-3.2,0.9-4.7-0.4c-1-0.8-1.5-1.9-1.7-3.1c-0.3-1.5-0.8-2.8-1.9-3.8   c-1.5-1.5-1.2-3.6,1-4.3c3.2-1.1,4.9-3.6,6.7-6.1c0.9-1.3,2-2.2,3.4-2.7c1.2-0.5,2.5-1,3.7-1.5c0.6-0.2,0.7-0.5,0.3-1.1   c-0.8-1.3-1.6-2.7-2.4-4.1c-0.3-0.6-0.7-0.8-1.2-0.5c-0.5,0.3-0.8,0.1-0.9-0.5c0-0.2-0.1-0.5-0.2-0.7c-0.5-3.6-2.8-6.2-5.2-8.7   c-0.2-0.2-0.3-0.4-0.4-0.7c-1.5-2.7-1.9-5.6-1.1-8.6c0.1-0.6,0.3-1.2,0.3-1.7c0.2-0.9,0.4-1.7-0.1-2.8c-0.5-1.1-0.3-2.5,0.1-3.8   c0.7-2,1-3.9-0.1-5.9c-0.2-0.4-0.1-1-0.2-1.5c-0.4-2-1.1-3.8-1.7-5.7c-0.4-1.2-1.1-1.5-2.3-0.9c-0.6,0.3-1.3,0.7-1.9,1   c-1.1,0.6-2.3,1-3.5,1.2c-1.6,0.2-2.3-0.4-2.4-2c-0.1-1.2,0-2.4,0.2-3.6c0.6-4.4,1.4-8.8,2.5-13.1c0.3-1.2,0.3-2.3-0.9-3.1   c-1-0.7-1.6-1.7-2-2.9c-0.1-0.4-0.1-0.8,0.3-1.1c0.4-0.3,0.8-0.2,1.1,0.1c1.2,0.8,2.3,1.6,3.5,2.5c0.7,0.5,1.1,1.1,0.7,2.1   c-1,2.1-0.9,4.4-1.1,6.7c-0.2,2.8-0.3,5.6-0.4,8.4c0,0.3-0.2,0.8,0.2,1c0.4,0.2,0.7-0.1,1-0.3c0.8-0.6,1.6-1.2,2.2-2   c0.3-0.5,0.7-0.9,1.1-1.3c1.7-1.7,3-1.8,5-0.3c0.2,0.2,0.4,0.5,0.8,0.3c0.3-0.2,0.1-0.5,0.2-0.8c0.1-0.7-0.1-1.2-0.9-1.3   c-0.3,0-0.6-0.3-0.9-0.5c-1.6-1.4-2.3-3.3-2.4-5.4c-0.1-1.9,0.4-3.7,1.3-5.3c0.1-0.2,0.2-0.4,0.2-0.7c0-1.2,0.7-1.6,1.6-1.8   c0.4-0.1,0.8-0.2,1.2-0.4c2.6-1.1,5.2-0.4,7.6,0.5c1.1,0.4,2,1.2,2.6,2.2c0.2,0.3,0.4,0.7,0.4,1.2   C172.7,10.1,172.7,10.7,172.7,11.7z"></path>		<path class="st5" d="M207.5,17.1c-0.1,2.7,0.4,5.3,0.6,7.9c0.1,1.5,1,2.8,2,3.9c2.4,2.5,5,4.6,7.7,6.7c0.7,0.6,1.5,0.3,2.2,0.1   c0.6-0.2,1.2-0.3,1.8-0.3c1.6,0.1,3.2-0.2,4.8,0.3c0.4,0.1,0.9,0,1.3-0.2c2.6-1.4,5.5-2.2,8.3-3c2.8-0.7,4.7-2.3,6.1-4.7   c0.7-1.3,1.6-2.4,2.5-3.6c1.4-1.8,2.7-3.8,4.5-5.2c0.2-0.2,0.4-0.3,0.6-0.5c1.1-0.7,1.4-0.6,2,0.5c0.2,0.4,0.3,0.4,0.7,0.2   c0.4-0.2,0.8-0.5,1.2-0.7c0.5-0.3,0.8-0.2,1,0.3c0.4,1,1,1.9,0.7,3.1c-0.1,0.4,0.2,0.9,0.4,1.4c0.6,1.2,1.2,2.5,1.7,3.7   c0.4,1,0,2.1-0.8,2.6c-0.5,0.2-0.9,0.2-1.3-0.2c-0.5-0.6-1-1.1-1.6-1.6c-0.5-0.5-1.1-0.6-1.7-0.1c-2,1.6-3.8,3.4-5.5,5.3   c-2.6,2.9-5.4,5.3-8.5,7.7c-1.6,1.2-3.5,2.1-5.2,3.1c-1,0.6-1.9,1.1-2.8,1.8c-0.6,0.5-0.8,1.1-0.7,1.9c0.2,1.9,0.9,3.7,1.5,5.6   c0.5,1.8,0.3,3.6,0.1,5.4c-0.1,0.8-0.1,1.5,0.5,2.2c0.3,0.3,0.6,0.7,0.9,1c0.7,0.8,1.2,1.8,1.3,2.9c0.4,2.7,1.2,5.3,2.8,7.6   c0.3,0.5,0.4,1,0.4,1.5c0.1,1.3-0.2,2.6,0.5,3.8c0.2,0.4,0,0.8-0.3,1c-0.6,0.4-0.6,1-0.5,1.6c0.3,1.8,0.5,3.5,0.9,5.3   c0.3,1.5,1,2.9,1.1,4.5c0.2,2.5,0.5,5.1,1.1,7.6c0.1,0.5,0.1,1-0.1,1.5c-0.2,0.4-0.5,0.6-0.9,0.5c-1.2-0.2-2.4-0.1-3.6,0   c-0.2,0-0.5,0.1-0.6-0.2c-0.1-0.3,0.2-0.4,0.4-0.5c0.9-0.5,1.7-1.1,2.4-1.8c0.5-0.5,0.6-1,0.3-1.7c-0.7-1.4-1.2-2.8-1.8-4.3   c-0.5-1.1-0.4-2.3-0.7-3.5c-0.2-1.1-0.4-2.3-0.8-3.4c-0.5-1.2-0.8-2.4-1.1-3.7c-0.2-0.7-0.1-1.5-1.2-1.4c-0.3,0-0.4-0.5-0.5-0.8   c-0.3-0.6-0.6-1.2-1.3-1.3c-0.3,0-0.3-0.3-0.3-0.5c0-0.7,0-1.4-0.7-1.9c-0.3-0.3-0.1-0.8-0.1-1.2c0-0.4,0-0.9-0.5-1.1   c-0.4-0.1-0.5,0.4-0.7,0.6c-0.5,0.7-0.9,1.6-0.8,2.5c0,0.6-0.1,1.2-0.3,1.7c-0.2,0.4-0.5,0.8-0.9,0.5c-0.4-0.3-0.7-0.1-1.1,0.1   c-0.5,0.2-1,0.4-1.5,0.8c-1.7,1.1-3.2,0.4-4.9,0c-1.8-0.5-2-1.9-2.5-3.2c-0.2-0.6-0.4-0.6-0.9-0.3c-0.5,0.4-0.9,0.9-1.1,1.5   c-0.2,0.5-0.3,1.1-0.5,1.6c-0.2,0.8-0.6,1.3-1.5,1.4c-0.6,0-0.9,0.4-1.1,0.9c-0.7,1.3-1.2,2.7-1.8,4.1c-0.4,0.9-0.3,1.8-0.3,2.7   c0.2,2.8,0.3,5.6,0.6,8.5c0.1,0.8,0.4,1.2,1,1.5c0.9,0.4,1.8,0.8,2.5,1.5c0.2,0.2,0.5,0.4,0.4,0.7c-0.1,0.4-0.5,0.2-0.8,0.2   c-1.5,0.3-3-0.1-4.5-0.2c-0.8,0-0.7-0.8-0.5-1.2c0.7-1.4,0.3-2.7-0.2-4c-0.7-2-1.3-4-1.7-6.1c-0.3-2-0.4-3.9,0.3-5.8   c0.9-2.6,1.5-5.3,2.4-7.9c0.1-0.4,0.1-0.7-0.2-1c-0.6-0.6-0.4-1.1,0-1.8c0.7-1,1.2-2,1.3-3.2c0.1-0.7,0.5-1.4,0.9-2   c0.3-0.4,0.5-0.9,0.4-1.3c0-0.8,0.3-1.4,0.7-2c0.9-1.3,1.7-2.7,2.6-4.1c1.8-2.9,1.6-5.9,0.3-8.9c-0.5-1.2-0.8-2.5-1.1-3.7   c-0.1-0.5-0.3-0.8-0.6-1.2c-0.9-0.8-1.5-1.8-1.9-2.9c-0.4-1-1.1-1.8-1.8-2.7c-1.5-1.7-2.5-3.6-3.7-5.5c-0.2-0.4-0.4-0.8-0.8-1   c-1.1-0.6-1.5-1.5-1.8-2.6c-0.9-3.5-1.7-7.1-2.5-10.6c-0.2-1.1-0.6-2.2-0.8-3.4c-0.6-2.2-2.2-3.3-4.1-4.1   c-0.7-0.3-1.4-0.6-2.2-0.8c-0.3-0.1-0.7-0.2-0.9-0.5c-0.4-0.4-0.9-0.9-0.7-1.5c0.2-0.5,0.8-0.4,1.3-0.4c2.1-0.2,4.2,0.2,6.2,0.5   c0.4,0.1,0.9,0.1,1.3,0.1c0.6,0,1.3,0.1,1.1-0.9c-0.1-0.3,0.2-0.3,0.5-0.4c0.9-0.1,1.8-0.1,2.7-0.2c0.3,0,0.6,0,0.7,0.4   c0,0.2,0.1,0.4,0.3,0.4c0.9-0.1,0.8,0.6,1,1.2C207.2,12.7,207.6,14.9,207.5,17.1z"></path>		<path class="st6" d="M57.7,53c0-1.5,0-3,0-4.5c1,0.7,2.1,0.2,3.3-1.3c1.6-2,3-4.2,4.8-6c0.9-0.9,1.9-1.8,2.3-3   c1-2.9,3.1-5.1,4.6-7.8c0.3-0.6,1-0.9,1.6-1.2c1.2-0.5,2.5-0.9,3.6-1.6c0.9-0.5,0.9-1,0.1-1.6c-0.5-0.4-1.1-0.5-1.6-0.6   C75,25.1,74,24,73.9,22.7c-0.1-0.9-0.4-1.7-0.3-2.6c0-0.6-0.4-0.5-0.8-0.3c-1.2,0.8-2.1,1.8-2.6,3.2c-1.3,3.5-5.8,2.8-7.4,0.8   c-0.6-0.8-0.6-0.8,0.3-1.2c0.7-0.3,1.3-0.7,2.1-0.8c1.8-0.4,2.1-2.2,3.1-3.3c0.3-0.4,0.6-0.9,1.1-1.2c0.6-0.5,1.2-0.6,1.9-0.2   c1.1,0.6,1.6,0.4,1.6-0.9c0.1-1.2,0.7-1.9,1.8-2.5c0.6-0.3,1-0.7,1.5-1.1c0.7-0.7,1.6-1.4,2.8-1.1c0.8,0.2,1.6,0.5,2.4,0.2   c0.4-0.1,0.6,0.3,0.9,0.4c1.2,0.5,2.6,0.9,2.9,2.5c0.1,0.7,0.5,1.3,0.8,2c0.4,1,0.6,2.1,0.3,3.1c-0.2,0.6-0.1,1.2,0.2,1.7   c0.6,1,0.7,2.1,0.3,3.2c-0.2,0.4-0.3,0.8-0.4,1.2c-0.1,0.6-0.4,0.9-0.9,1.1c-0.4,0.1-0.8,0.3-0.9,0.8c-0.1,0.5,0.4,0.8,0.8,1   c1.2,0.7,2.7,0.9,3.9,1.6c0.6,0.4,1,0.8,1.4,1.4c1.2,2.5,3.2,4.3,5.5,5.6c2.2,1.2,4.3,2.5,6.4,4c1.7,1.2,3.6,1.7,5.5,2.2   c0.3,0.1,0.8-0.1,0.6,0.5c-0.4,0.3,0,0.6,0.1,0.8c0.3,1,0.7,1.9,1.1,2.9c-0.4-0.1-0.9-0.1-1.3-0.2c-0.8-0.2-1.5-0.4-1.8-1.4   c-0.5-1.2-1.7-1.7-3-1.9c-2.8-0.5-5.4-1.3-8-2.4c-1.4-0.7-2.7-1.6-3.9-2.4c-2.6-1.7-3.4-1.5-4.7,1.3c-0.8,1.8-1.3,3.7-1.7,5.6   c-0.3,1.3,0.1,2.5,0.5,3.7c1.4,4.9,2.5,9.9,3.5,14.9c0.1,0.7,0.2,1.4,0.2,2.1c-0.2,2.2,0.4,4.2,0.8,6.3c0.1,0.4,0.2,0.9,0.1,1.3   c-0.8,2.1,0,4.2,0.2,6.3c0.1,1,0.2,2.1,0.3,3.1c0,0.3,0,0.6-0.4,0.6C90,84.7,90,85,90,85.4c0.4,2.8,0.7,5.5,1.4,8.3   c0.4,1.7,1.2,3,2.8,3.8c1,0.5,1.9,1.2,2.9,1.7c0.3,0.2,0.6,0.4,0.5,0.8c-0.1,0.5-0.5,0.2-0.7,0.3c-2.2,0.2-4.3-0.1-6.4-0.9   c-1.3-0.5-1.4-0.7-1.4-2.1c0.2-3.1-0.9-5.9-2.2-8.6c-0.5-1-1-2-1-3.2c0-0.9-0.8-1.3-1.5-1.4c-0.8-0.2-1-0.4-1-1.3   c0.1-3.1,0.1-6.3-0.2-9.4c-0.4-3.6-1.9-6.9-3.5-10.1c-0.4-0.9-0.6-0.8-1.3-0.1c-3.8,4-6.6,8.7-8.6,13.9c-0.8,2.1-2.2,3.4-3.8,4.8   c-0.1,0.1-0.3,0.2-0.5,0.2c-1.1,0.1-1.8,0.7-2.6,1.3c-1.1,0.9-2,1.9-2.8,3c-1.1,1.3-1.4,2.6-0.9,4.2c0.5,1.5,0.9,3.1,1.3,4.7   c-1,0-1.9,0.1-2.9,0c-1.1,0-1.6-0.5-1.5-1.6c0.1-1.7-0.4-3.1-1.3-4.5c-0.8-1.2-0.6-2,0.7-2.6c1.1-0.5,1.6-1.7,2.4-2.4   c1.4-1.3,2.7-2.7,4-4.2c0.4-0.4,0.5-0.8,0.1-1.3c-0.3-0.5-0.7-1-1-1.5c-0.3-0.5-0.3-0.9,0.4-1.2c1.4-0.6,2.3-1.7,3.2-2.9   c0.9-1.3,1.8-2.6,2.7-4c0.5-0.8,0.8-1.8,0.9-2.7c0.4-2.7,0.6-5.5,1.4-8.1c0.5-1.5,0.8-3.1,0.9-4.7c0-0.8,0.4-1.7,0.5-2.5   c0.3-2,0.1-4,0.1-6c0-1.1,0.2-2.2,0.7-3.2c0.5-0.8,0.7-1.7,0.6-2.7c0-0.2,0.1-0.5-0.2-0.6c-0.3-0.1-0.4,0.2-0.6,0.3   c-1.4,1.4-2.8,2.8-3.9,4.4c-1,1.6-2.3,2.8-3.8,3.9c-0.9,0.7-1.8,1.4-2.6,2.1c-0.8,0.7-1.4,1.4-1.8,2.4   C59.6,52.6,58.6,52.8,57.7,53z"></path>		<path class="st7" d="M109.9,47.6c-0.4-1-0.8-1.9-1.1-2.9c-0.1-0.3-0.5-0.5-0.1-0.8c0.2-0.1,0.4-0.3,0.5-0.3c2,0,3.5-1.1,4.6-2.5   c2-2.4,4.4-4.5,6.5-6.9c1.7-1.9,3.2-4.1,4.2-6.5c1-2.3,2.9-2.9,5.1-3.3c0.4-0.1,0.8-0.1,1.3-0.2c-0.5-0.8-1-1.5-1.5-2.2   c-0.9-1.3-1.7-2.6-2.4-4.1c-0.3-0.7-0.5-1.5-0.3-2.2c0.1-0.3,0.1-0.7,0.1-1c-0.2-1.6,0.5-3,1.5-4.2c0.9-1,1.9-2.1,3.4-2.4   c1.2-0.3,2.4-0.4,3.6,0.1c0.4,0.2,0.7-0.3,1.1-0.2c1.3,0.2,2.4,0.8,3.3,1.8c0.6,0.6,1,1.3,1.3,2.1c0.5,1.2,0.6,2.3-0.1,3.5   c-0.5,0.8-0.4,1.5-0.1,2.4c0.3,1.1,0.4,2.4-0.1,3.6c-0.3,0.7-0.7,1.2-0.8,2c0,0.3-0.3,0.3-0.4,0.4c-0.4,0.2-0.8,0.3-1.2,0.5   c-0.6,0.3-1.3,0.5-1.3,1.3c0,0.8,0.3,1.4,1.1,1.8c1.8,1,1.9,1.3,1.4,3.3c-0.9,3.8-2.3,7.4-3.5,11c-0.3,0.9-0.1,1.2,0.5,1.8   c2.5,2.3,5.6,3.8,8.5,5.5c0.2,0.1,0.4,0.2,0.7,0.2c2,0.1,2.8,1.7,3.5,3.2c0.3,0.5,0.1,0.8-0.5,0.9c-0.3,0.1-0.7,0.2-1,0.3   c-0.6,0.2-1.2,0-1.5-0.6c-1-2.1-2.8-2.9-4.8-3.6c-0.6-0.2-1.3-0.5-1.9-0.7c-1.8-0.5-3.5-1.3-5-2.5c-0.6-0.5-1.1-0.3-1.5,0.2   c-0.7,0.9-1.3,1.8-1.7,2.8c-0.3,0.8-0.5,1.5-1.4,2c-0.5,0.3-0.5,1-0.5,1.5c-0.1,2.8-0.2,5.5,0.8,8.2c1.6,4,1.4,8.2,1.1,12.4   c-0.1,1.9-0.4,3.8-0.5,5.7c0,0.7-0.4,1.1-1,1.1c-1,0-1.4,0.6-1.5,1.5c-0.3,2-0.6,4.1-0.9,6.1c-0.4,2.2-0.8,4.4-1.1,6.6   c-0.2,1.7,0,2.1,1.6,2.7c1.1,0.4,2.3,0.7,3.4,1.3c0.9,0.5,1.6,1.2,1.9,2.4c-0.8,0-1.6,0-2.4,0c-2.4,0-4.7-0.3-7-0.7   c-0.3,0-0.5-0.1-0.9,0.2c-0.6,0.5-1.4,0.2-2.1,0.2c-1.7-0.1-1.7-0.1-1.4-1.8c0-0.2,0.1-0.4,0.1-0.5c0.3-1.6,0-2-1.6-1.9   c-0.8,0.1-0.8-0.2-0.7-0.9c0.6-3.9,2-7.6,3.3-11.3c0.1-0.3,0.2-0.5,0.2-0.7c-0.1-0.2-0.2-0.2-0.3-0.1c-1.7,0.5-3.3,1-4.8,1.9   c-0.6,0.3-0.9,0.8-0.9,1.5c0,1.2-0.1,2.3-0.2,3.5c0,0.3,0,0.5-0.1,0.8c-0.2,0.5-0.5,1.1-1.2,1.1c-0.6,0.1-0.8-0.5-1-0.9   c-0.5-1.1-0.9-2.2-1.1-3.4c-0.2-1.3-0.5-2.7-2.1-3c-0.2,0-0.2-0.3-0.3-0.4c-0.1-0.3-0.2-0.6-0.2-0.9c-0.4-1.5-0.4-1.6,0.9-2.5   c0.7-0.4,0.9-0.8,0.2-1.4c-0.6-0.6-0.1-0.9,0.4-1.1c2.5-0.9,5-1.5,7.6-1.8c0.8-0.1,1.6-0.2,2.4-0.4c1.2-0.3,1.3-0.7,1.2-1.9   c-0.5-3.3-1.8-6.3-3.2-9.2c-0.8-1.5-1.4-3.1-2.3-4.5c-0.9-1.6-1.3-3.3-1.1-5.1c0.2-1.3,0.3-2.5,0.5-3.8c0.2-1,0.5-2,1.2-2.8   c0.3-0.3,0.1-0.9,0.4-1.3c1.5-2.4,3.2-4.5,4.9-6.7c0.3-0.4,0.8-0.7,0.8-1.3c0-0.2,0.1-0.4-0.1-0.6c-0.2-0.1-0.3,0.1-0.5,0.1   c-2.4,1-4.4,2.8-6.7,4c-1.2,0.6-1.9,1.7-2.3,3c-0.2,0.8-0.7,1.3-1.3,1.8C111.2,48.2,110.5,47.8,109.9,47.6z"></path>	</g></g></svg>