<svg xmlns="http://www.w3.org/2000/svg" width="866" height="650"><path d="M0 0 C285.78 0 571.56 0 866 0 C866 214.5 866 429 866 650 C580.22 650 294.44 650 0 650 C0 435.5 0 221 0 0 Z " fill="#7F0000" transform="translate(0,0)"></path><path d="M0 0 C-1.71793005 5.21702683 -4.80428617 9.5221061 -7.8125 14.0625 C-8.98838595 15.85409795 -10.16416405 17.6457667 -11.33984375 19.4375 C-11.94425293 20.3553125 -12.54866211 21.273125 -13.17138672 22.21875 C-15.52802523 25.80310593 -17.86882211 29.39759712 -20.20605469 32.99462891 C-21.31020777 34.6934999 -22.41629865 36.39111318 -23.52441406 38.08740234 C-25.80649658 41.58626825 -28.07418665 45.08597875 -30.23046875 48.6640625 C-30.83503906 49.66179687 -31.43960938 50.65953125 -32.0625 51.6875 C-32.54847656 52.51636719 -33.03445312 53.34523438 -33.53515625 54.19921875 C-35 56 -35 56 -36.9609375 56.90625 C-39.582368 57.02677554 -40.46535364 56.35705056 -42.5625 54.8125 C-53.80103313 47.28519889 -66.77125381 46.039106 -80 47 C-87.53647912 48.58619462 -94.2231139 51.41975829 -101 55 C-101.66 55 -102.32 55 -103 55 C-103 55.66 -103 56.32 -103 57 C-104.12525155 58.02649277 -105.30282645 58.99587696 -106.5 59.9375 C-117.28432222 69.13476771 -124.13036003 81.80701055 -125.3359375 95.9375 C-125.36536313 97.29140954 -125.37788474 98.64577381 -125.375 100 C-125.37483887 100.7233252 -125.37467773 101.44665039 -125.37451172 102.19189453 C-125.19839039 110.74768322 -123.80964845 120.78552733 -119 128 C-119 128.99 -119 129.98 -119 131 C-118.34 131 -117.68 131 -117 131 C-116.09413201 132.35880198 -115.19267421 133.72067266 -114.30859375 135.09375 C-105.53040815 147.88107709 -93.10077288 155.18507818 -78 158 C-64.00372176 159.70654364 -50.70259359 156.90992822 -39 149 C-26.97080532 139.38003754 -19.1806035 128.22145959 -16 113 C-15.67 109.7 -15.34 106.4 -15 103 C16.68 103 48.36 103 81 103 C81 148.62275785 81 148.62275785 75.25 165.125 C74.71765747 166.68347656 74.71765747 166.68347656 74.17456055 168.2734375 C71.64725212 175.51804702 68.8772555 182.35964288 65 189 C64.59265625 189.72703125 64.1853125 190.4540625 63.765625 191.203125 C60.29226156 197.11235372 55.83498981 202.16501019 51 207 C50.86335937 207.63679687 50.72671875 208.27359375 50.5859375 208.9296875 C49.8345507 211.58458753 48.75391747 212.39579765 46.625 214.125 C43.16401156 217.00399754 39.85070348 219.98703543 36.5625 223.0625 C31.29805121 227.86566885 25.84878062 232.71707313 19 235 C18.67 235.66 18.34 236.32 18 237 C-12.8946597 253.83095571 -48.79971216 259.25974315 -82.90380859 249.64306641 C-88.76322454 247.84552371 -94.37654896 245.41946838 -100 243 C-101.26263672 242.49146484 -101.26263672 242.49146484 -102.55078125 241.97265625 C-107.99048026 239.72141314 -112.79916116 236.71700666 -117.71484375 233.48828125 C-119.90575857 231.99987739 -119.90575857 231.99987739 -122 231 C-122 230.34 -122 229.68 -122 229 C-122.82564453 228.87818359 -122.82564453 228.87818359 -123.66796875 228.75390625 C-131.14327001 226.33726782 -137.54182424 218.76554696 -142.44140625 212.84375 C-143.95806094 211.04961212 -145.5549693 209.4370771 -147.25 207.8125 C-149.75457954 205.2509982 -151.20291505 203.05182712 -153 200 C-154.05407819 198.55631317 -155.11700905 197.11905916 -156.1875 195.6875 C-163.17949514 185.76242215 -168.24313142 174.51168822 -172 163 C-172.350625 162.030625 -172.70125 161.06125 -173.0625 160.0625 C-183.94872087 124.50084517 -180.37526718 88.40796414 -163.0703125 55.65625 C-160.17966309 50.41337882 -156.71466967 45.68530045 -153 41 C-152.37480469 40.17242187 -151.74960938 39.34484375 -151.10546875 38.4921875 C-134.86579354 17.39053213 -113.29401943 2.98924709 -88 -5 C-87.14277344 -5.29519531 -86.28554687 -5.59039062 -85.40234375 -5.89453125 C-59.08175836 -14.58246431 -24.86205905 -12.43102953 0 0 Z " fill="#EC2588" transform="translate(230,203)"></path><path d="M0 0 C30.36 0 60.72 0 92 0 C92 45.62275785 92 45.62275785 86.25 62.125 C85.71765747 63.68347656 85.71765747 63.68347656 85.17456055 65.2734375 C82.64725212 72.51804702 79.8772555 79.35964288 76 86 C75.38898438 87.09054687 75.38898438 87.09054687 74.765625 88.203125 C71.29226156 94.11235372 66.83498981 99.16501019 62 104 C61.86335938 104.63679688 61.72671875 105.27359375 61.5859375 105.9296875 C60.8345507 108.58458753 59.75391747 109.39579765 57.625 111.125 C54.16401156 114.00399754 50.85070348 116.98703543 47.5625 120.0625 C42.29805121 124.86566885 36.84878062 129.71707313 30 132 C29.67 132.66 29.34 133.32 29 134 C1.88775855 148.77034994 -27.38652434 153.84217711 -58 150 C-57.505 148.02 -57.505 148.02 -57 146 C-56.34 146 -55.68 146 -55 146 C-55 145.34 -55 144.68 -55 144 C-53.88625 143.505 -52.7725 143.01 -51.625 142.5 C-46.90833111 140.17535605 -43.095828 136.9976993 -39.1015625 133.609375 C-37 132 -37 132 -35 132 C-35 131.34 -35 130.68 -35 130 C-34.34 130 -33.68 130 -33 130 C-33 129.34 -33 128.68 -33 128 C-30.66294859 125.5331124 -28.21997976 123.20775866 -25.75 120.875 C-23.77556277 119.02022825 -23.77556277 119.02022825 -23 116 C-22.34 116 -21.68 116 -21 116 C-20.7421875 115.42894531 -20.484375 114.85789062 -20.21875 114.26953125 C-18.88661912 111.78886445 -17.30749088 109.843469 -15.5 107.6875 C-12.46600397 103.86529057 -11.14989818 100.77650014 -10 96 C-9.00827001 94.33645293 -8.01575584 92.67330495 -7.0078125 91.01953125 C-5.35072926 87.69894197 -4.6153796 84.14901838 -3.71875 80.5625 C-3 78 -3 78 -1.4375 74.9375 C4.22842495 63.35930553 3.16529869 48.22710795 3.125 35.6875 C3.13080078 33.85348633 3.13080078 33.85348633 3.13671875 31.98242188 C3.84990471 22.48920014 3.84990471 22.48920014 1 14 C0.67 9.38 0.34 4.76 0 0 Z " fill="#11B2AB" transform="translate(219,306)"></path><path d="M0 0 C-1.71793005 5.21702683 -4.80428617 9.5221061 -7.8125 14.0625 C-8.98838595 15.85409795 -10.16416405 17.6457667 -11.33984375 19.4375 C-11.94425293 20.3553125 -12.54866211 21.273125 -13.17138672 22.21875 C-15.52802523 25.80310593 -17.86882211 29.39759712 -20.20605469 32.99462891 C-21.31020777 34.6934999 -22.41629865 36.39111318 -23.52441406 38.08740234 C-25.80649658 41.58626825 -28.07418665 45.08597875 -30.23046875 48.6640625 C-30.83503906 49.66179687 -31.43960938 50.65953125 -32.0625 51.6875 C-32.54847656 52.51636719 -33.03445312 53.34523438 -33.53515625 54.19921875 C-35 56 -35 56 -36.8671875 56.9765625 C-40.04637666 57.01149864 -41.55566958 55.57423964 -44.0625 53.6875 C-45.34833984 52.73423828 -45.34833984 52.73423828 -46.66015625 51.76171875 C-47.43230469 51.18035156 -48.20445312 50.59898437 -49 50 C-50.485 49.01 -50.485 49.01 -52 48 C-52 47.34 -52 46.68 -52 46 C-52.86625 45.87625 -53.7325 45.7525 -54.625 45.625 C-57.89513853 45.01941879 -60.87256899 44.11693965 -64 43 C-64 42.34 -64 41.68 -64 41 C-64.86625 40.814375 -64.86625 40.814375 -65.75 40.625 C-68 40 -68 40 -69.6875 39.0625 C-72.79589937 37.63431651 -75.90196626 37.05700687 -79.25 36.375 C-80.51328125 36.11460937 -81.7765625 35.85421875 -83.078125 35.5859375 C-84.04234375 35.39257812 -85.0065625 35.19921875 -86 35 C-86 34.34 -86 33.68 -86 33 C-108.61196486 32.82684597 -108.61196486 32.82684597 -130 39 C-133.25 39.125 -133.25 39.125 -136 39 C-136 39.66 -136 40.32 -136 41 C-141.28830549 43.15294651 -146.55123997 45.27933894 -152 47 C-152 47.66 -152 48.32 -152 49 C-154.31 49.99 -156.62 50.98 -159 52 C-157.39969872 42.44264514 -147.38807487 33.78659697 -141 27 C-140.47277344 26.40832031 -139.94554687 25.81664062 -139.40234375 25.20703125 C-125.82333506 10.58615489 -106.78034485 0.93186922 -88 -5 C-87.14277344 -5.29519531 -86.28554687 -5.59039062 -85.40234375 -5.89453125 C-59.08175836 -14.58246431 -24.86205905 -12.43102953 0 0 Z " fill="#F16534" transform="translate(230,203)"></path><path d="M0 0 C0.82709473 -0.01087646 1.65418945 -0.02175293 2.50634766 -0.03295898 C11.4113507 0.17229503 19.02547144 3.87858468 25.75 9.625 C28.82662903 12.86355688 30.24082728 15.16973872 30.75 19.625 C31.41 19.625 32.07 19.625 32.75 19.625 C36.79808451 29.16691348 36.96820302 38.80101183 33.75 48.625 C28.75507759 59.58444742 20.95986294 66.38216081 9.75 70.625 C0.23857873 72.98475901 -8.87293229 71.84006076 -17.59765625 67.44140625 C-26.17976785 62.24503336 -32.69143137 54.38546553 -35.25 44.625 C-35.71344039 41.34252576 -35.8219944 38.12509771 -35.8125 34.8125 C-35.81008301 33.93247314 -35.80766602 33.05244629 -35.80517578 32.14575195 C-35.59558487 24.72308299 -33.81512378 19.55648334 -29.25 13.625 C-28.61771484 12.635 -28.61771484 12.635 -27.97265625 11.625 C-21.39390032 2.34675456 -10.6646008 0.09386113 0 0 Z " fill="#13B0A9" transform="translate(259.25,219.375)"></path><path d="M0 0 C4.94195144 5.81472727 6.41735579 11.55057425 6.34765625 19.078125 C5.53743635 25.88761356 1.30117368 31.8083743 -4 36 C-10.15367693 39.40797803 -17.19533187 40.28496938 -24.015625 38.4609375 C-27.84123845 36.94732522 -31.0129584 34.80600877 -34 32 C-34 31.34 -34 30.68 -34 30 C-34.66 30 -35.32 30 -36 30 C-39.30999182 22.82835106 -40.32483568 15.64852421 -38.49609375 7.8515625 C-36.44107089 2.47327411 -32.88344514 -0.90132367 -28 -3.75 C-18.46497054 -7.72292894 -8.35655581 -6.05998462 0 0 Z " fill="#090000" transform="translate(530,330)"></path><path d="M0 0 C5.13479521 2.86174892 9.04707834 6.65665669 11.6875 11.9375 C11.8376182 14.35093878 11.9090537 16.7695643 11.9375 19.1875 C11.96328125 20.49203125 11.9890625 21.7965625 12.015625 23.140625 C11.44111334 29.78854566 8.15828056 34.24863258 3.6875 38.9375 C1.375 39.8125 1.375 39.8125 -0.3125 39.9375 C-0.3125 40.5975 -0.3125 41.2575 -0.3125 41.9375 C-8.97987226 43.76220995 -16.22012521 43.92037901 -24.109375 39.56640625 C-28.67067478 36.19395588 -31.28694055 31.47753195 -32.3125 25.9375 C-33.19754464 14.70758929 -33.19754464 14.70758929 -30.5625 9.4375 C-29.44875 8.2 -29.44875 8.2 -28.3125 6.9375 C-27.735 6.07125 -27.1575 5.205 -26.5625 4.3125 C-19.34152452 -3.30964078 -9.39584312 -4.26698439 0 0 Z " fill="#0B0000" transform="translate(390.3125,326.0625)"></path><path d="M0 0 C6.0328125 -0.0928125 6.0328125 -0.0928125 12.1875 -0.1875 C14.07698364 -0.22846802 14.07698364 -0.22846802 16.00463867 -0.27026367 C17.50861206 -0.28150269 17.50861206 -0.28150269 19.04296875 -0.29296875 C20.06414795 -0.3086792 21.08532715 -0.32438965 22.13745117 -0.34057617 C26.47171237 0.17509925 29.07255079 2.19788176 32.3125 5 C34.88220661 9.56836731 34.75964695 13.87802403 34 19 C32.35601228 22.17459697 30.79669451 24.23175887 28.25 26.6875 C26.65517241 28.05998563 26.65517241 28.05998563 27 31 C27.66 31 28.32 31 29 31 C29.83819158 32.62249941 30.6704116 34.24808497 31.5 35.875 C31.9640625 36.77992188 32.428125 37.68484375 32.90625 38.6171875 C34 41 34 41 34 43 C24.97505417 43.77504306 24.97505417 43.77504306 21.5625 41.0625 C19.57177742 37.16068373 18.20878451 33.20327339 17 29 C14.36 28.67 11.72 28.34 9 28 C9 32.95 9 37.9 9 43 C6.03 43 3.06 43 0 43 C0 28.81 0 14.62 0 0 Z " fill="#060000" transform="translate(543,325)"></path><path d="M0 0 C10 0 10 0 12.4375 2.375 C12.953125 3.24125 13.46875 4.1075 14 5 C14.99 5.66 15.98 6.32 17 7 C17.69205025 8.65628762 18.35418638 10.3251427 19 12 C20.31017142 14.11127828 21.66730228 16.19391915 23.0625 18.25 C23.77535156 19.30703125 24.48820313 20.3640625 25.22265625 21.453125 C26.76887457 23.82727649 26.76887457 23.82727649 28 25 C28.02505615 24.27820557 28.0501123 23.55641113 28.07592773 22.81274414 C28.19151302 19.562465 28.31440774 16.31250312 28.4375 13.0625 C28.47681641 11.92619141 28.51613281 10.78988281 28.55664062 9.61914062 C28.59853516 8.53955078 28.64042969 7.45996094 28.68359375 6.34765625 C28.72025146 5.34742432 28.75690918 4.34719238 28.79467773 3.31665039 C29 1 29 1 30 0 C32.64 0 35.28 0 38 0 C38 14.19 38 28.38 38 43 C28 43 28 43 25.66796875 40.83984375 C25.17941406 39.88207031 24.69085937 38.92429687 24.1875 37.9375 C23.64351562 36.9371875 23.09953125 35.936875 22.5390625 34.90625 C22.03117188 33.9471875 21.52328125 32.988125 21 32 C20.04754345 30.62691543 19.07235944 29.2689348 18.0625 27.9375 C16 25 16 25 16 23 C15.34 23 14.68 23 14 23 C11 18.61538462 11 18.61538462 11 16 C10.34 16 9.68 16 9 16 C9 24.91 9 33.82 9 43 C6.03 43 3.06 43 0 43 C0 28.81 0 14.62 0 0 Z " fill="#080000" transform="translate(672,325)"></path><path d="M0 0 C25.64285714 0 25.64285714 0 31.9375 5.625 C32.9584375 6.800625 32.9584375 6.800625 34 8 C34.495 8.495 34.495 8.495 35 9 C35.0991757 11.14394519 35.1297015 13.29126732 35.125 15.4375 C35.12886719 17.19900391 35.12886719 17.19900391 35.1328125 18.99609375 C35 22 35 22 34 24 C26.66182597 30.14618637 19.05643276 29.40794742 10 29 C10 33.95 10 38.9 10 44 C6.7 44 3.4 44 0 44 C0 29.48 0 14.96 0 0 Z " fill="#050000" transform="translate(451,324)"></path><path d="M0 0 C4.49625 -0.144375 8.9925 -0.28875 13.625 -0.4375 C15.73575928 -0.53309204 15.73575928 -0.53309204 17.88916016 -0.63061523 C26.80241656 -0.76950484 26.80241656 -0.76950484 30.19995117 1.41357422 C33.86526525 5.45885279 34.95146952 9.19007477 35.1640625 14.5703125 C34.89983908 18.48333546 34.08911533 20.63045914 32 24 C27.13784444 28.07982376 23.67707636 28.53454609 17.625 28.25 C16.88894531 28.23195313 16.15289062 28.21390625 15.39453125 28.1953125 C13.59578264 28.14859176 11.79771289 28.07686183 10 28 C10 32.95 10 37.9 10 43 C6.7 43 3.4 43 0 43 C0 28.81 0 14.62 0 0 Z " fill="#0D0000" transform="translate(410,325)"></path><path d="M0 0 C6.15234375 -0.09765625 6.15234375 -0.09765625 8 0 C9.78048289 1.78048289 9.17225822 4.41865407 9.2109375 6.828125 C9.23929688 8.02050781 9.26765625 9.21289062 9.296875 10.44140625 C9.3486349 12.96470125 9.39300024 15.4881596 9.4296875 18.01171875 C9.460625 19.20925781 9.4915625 20.40679687 9.5234375 21.640625 C9.54325684 22.73922852 9.56307617 23.83783203 9.58349609 24.96972656 C10.05193194 28.3778307 10.9562198 30.25368917 13 33 C16.20380017 35.13586678 17.01939967 35.23132175 20.6875 35.125 C21.49574219 35.10695313 22.30398438 35.08890625 23.13671875 35.0703125 C23.75160156 35.04710937 24.36648438 35.02390625 25 35 C25.33 34.01 25.66 33.02 26 32 C26.66 32 27.32 32 28 32 C28.33 21.44 28.66 10.88 29 0 C31.97 0 34.94 0 38 0 C38.09961729 4.41074704 38.17181669 8.82088095 38.21972656 13.23242188 C38.23971919 14.7299339 38.26692299 16.22736908 38.30175781 17.72460938 C38.66094516 33.57111012 38.66094516 33.57111012 34 40 C27.89820022 44.68688968 19.37072647 44.89658059 12 44 C8.24578048 42.86101735 6.20208514 41.54574786 3.75 38.5 C2.99976563 37.58734375 2.99976563 37.58734375 2.234375 36.65625 C-0.42666472 33.08574101 -0.12874521 29.87172438 -0.09765625 25.5859375 C-0.0962413 24.85629791 -0.09482635 24.12665833 -0.09336853 23.37490845 C-0.08776531 21.04156415 -0.07521235 18.70831536 -0.0625 16.375 C-0.05748541 14.79427222 -0.05292243 13.21354293 -0.04882812 11.6328125 C-0.03779484 7.75517146 -0.02052811 3.87760193 0 0 Z " fill="#090001" transform="translate(624,325)"></path><path d="M0 0 C3.3 0 6.6 0 10 0 C10.83848804 1.45537568 11.67063934 2.91440373 12.5 4.375 C12.9640625 5.18710937 13.428125 5.99921875 13.90625 6.8359375 C15 9 15 9 15 11 C15.99 11.33 16.98 11.66 18 12 C18.6875 14.0625 18.6875 14.0625 19 16 C21.34058637 13.87219421 22.70700306 11.88437779 24 9 C24.66 9 25.32 9 26 9 C26.103125 8.2575 26.20625 7.515 26.3125 6.75 C27.07437773 3.70248909 27.82484702 2.25147414 30 0 C32.48046875 -0.390625 32.48046875 -0.390625 35.1875 -0.25 C36.08855469 -0.21390625 36.98960937 -0.1778125 37.91796875 -0.140625 C38.94857422 -0.07101562 38.94857422 -0.07101562 40 0 C39.75 3.375 39.75 3.375 39 7 C37.6846659 7.70151152 36.34882408 8.36525925 35 9 C34.26270444 10.6421583 33.5403493 12.29387857 32.921875 13.984375 C31.87145667 16.28105237 30.48185323 17.86897276 28.875 19.8125 C24.15115472 26.50071658 25.01697797 35.13071016 25 43 C22.03 43 19.06 43 16 43 C15.90203125 41.77023437 15.8040625 40.54046875 15.703125 39.2734375 C15.55297377 37.64054288 15.40188228 36.00773452 15.25 34.375 C15.188125 33.56675781 15.12625 32.75851562 15.0625 31.92578125 C14.53754067 26.54494813 13.36109135 23.38430182 10 19 C8.93332211 17.16010823 7.89041065 15.30617458 6.875 13.4375 C6.37742187 12.52871094 5.87984375 11.61992187 5.3671875 10.68359375 C4.08365095 8.16419487 3.00319994 5.64175983 2 3 C1.34 3 0.68 3 0 3 C0 2.01 0 1.02 0 0 Z " fill="#0C0000" transform="translate(774,325)"></path><path d="M0 0 C3.23942217 1.71139284 5.37718497 3.03746768 7.375 6.125 C8.65856603 12.02940374 9.02356267 17.08934968 6.125 22.5 C3.0730196 26.09056518 1.85512173 27.28765498 -2.8125 27.8125 C-6.17715225 28.08439109 -7.81222098 28.0743292 -11 26.8125 C-13.02933859 24.9734119 -14.03418603 23.54623682 -15 21 C-15.66 21 -16.32 21 -17 21 C-18.98587797 17.02824407 -18.5367556 12.31844275 -18 8 C-16.28136393 4.29604294 -13.47942713 2.32309219 -10.125 0.0625 C-6.1988351 -1.27239606 -3.9963295 -1.0704454 0 0 Z " fill="#790102" transform="translate(518,333)"></path><path d="M0 0 C1.43352212 0.00015908 2.86704998 0.00585132 4.30053711 0.01586914 C5.43041298 0.01799156 5.43041298 0.01799156 6.58311462 0.02015686 C8.99807646 0.02577163 11.41294687 0.03832656 13.82788086 0.05102539 C15.46134307 0.05603849 17.09480672 0.06060173 18.72827148 0.06469727 C22.74067671 0.07574585 26.75301326 0.09302033 30.76538086 0.11352539 C30.76538086 3.08352539 30.76538086 6.05352539 30.76538086 9.11352539 C26.47538086 8.78352539 22.18538086 8.45352539 17.76538086 8.11352539 C17.76538086 19.66352539 17.76538086 31.21352539 17.76538086 43.11352539 C14.79538086 43.11352539 11.82538086 43.11352539 8.76538086 43.11352539 C8.76538086 31.56352539 8.76538086 20.01352539 8.76538086 8.11352539 C4.47538086 8.11352539 0.18538086 8.11352539 -4.23461914 8.11352539 C-4.27703637 5.78057764 -4.27554851 3.44649972 -4.23461914 1.11352539 C-3.23461914 0.11352539 -3.23461914 0.11352539 0 0 Z " fill="#060001" transform="translate(740.234619140625,324.886474609375)"></path><path d="M0 0 C0 2.97 0 5.94 0 9 C-4.29 9 -8.58 9 -13 9 C-13 20.55 -13 32.1 -13 44 C-15.97 44 -18.94 44 -22 44 C-22 32.45 -22 20.9 -22 9 C-25.96 9 -29.92 9 -34 9 C-34 6.36 -34 3.72 -34 1 C-29.31860934 0.85739262 -24.63721278 0.71498107 -19.95581055 0.57275391 C-18.36205889 0.52430568 -16.76830889 0.47580319 -15.17456055 0.42724609 C-12.88851339 0.35760586 -10.60246045 0.28815845 -8.31640625 0.21875 C-7.59973282 0.19687622 -6.88305939 0.17500244 -6.14466858 0.15246582 C-1.11387171 0 -1.11387171 0 0 0 Z " fill="#060001" transform="translate(617,324)"></path><path d="M0 0 C2.79692375 1.36179808 3.91712745 2.57936433 6 5 C7.77909815 10.33729446 7.89989381 15.9547868 5.625 21.125 C4.820625 22.053125 4.820625 22.053125 4 23 C3.34 23 2.68 23 2 23 C2 23.66 2 24.32 2 25 C-2.31899602 27.43309957 -6.12636748 27.83620385 -11 27 C-14.86019689 24.95156571 -17.36732369 22.03367088 -19 18 C-19.7164344 12.95163669 -19.54701546 9.05630571 -17.1875 4.5 C-12.27638617 -1.11270152 -7.04871318 -0.92990939 0 0 Z " fill="#1D0001" transform="translate(574,410)"></path><path d="M0 0 C3.18666128 2.43948819 5.21886097 5.43772194 7 9 C7.12148305 10.62165752 7.17543652 12.24884327 7.1875 13.875 C7.20167969 14.73867188 7.21585937 15.60234375 7.23046875 16.4921875 C6.91448875 19.9304783 5.9598362 22.01422228 3.5546875 24.484375 C-0.13413106 27.26385689 -3.22246941 28.9731532 -7.93359375 28.5859375 C-12.48101389 27.2964989 -15.52480344 25.02538409 -18 21 C-19.11712959 15.12144613 -19.44151493 8.48953287 -16.25 3.1875 C-12.06642451 -0.87986506 -5.57772948 -1.10676207 0 0 Z " fill="#7A0202" transform="translate(386,333)"></path><path d="M0 0 C3.63525099 2.7071018 6.05597607 5.90731803 8 10 C8 11.65 8 13.3 8 15 C1.07 15 -5.86 15 -13 15 C-10.83333333 20.83333333 -10.83333333 20.83333333 -8 22 C-1.70935834 22.31997673 -1.70935834 22.31997673 4 20 C4.66 20.33 5.32 20.66 6 21 C6 22.32 6 23.64 6 25 C0.00363766 27.39854494 -4.99948009 27.63472537 -11.25 26.3125 C-14.64048227 24.69431528 -15.92278401 23.12015151 -18 20 C-19.1468241 14.73261022 -19.39850942 9.32454943 -16.5546875 4.59765625 C-11.75443154 -0.15401413 -6.58562469 -1.62369712 0 0 Z " fill="#0B0000" transform="translate(436,410)"></path><path d="M0 0 C1.75570312 0.02707031 1.75570312 0.02707031 3.546875 0.0546875 C4.88492188 0.08949219 4.88492188 0.08949219 6.25 0.125 C9.72159188 5.61029741 9.61163875 10.23993536 9.4375 16.5 C9.41719727 17.89025391 9.41719727 17.89025391 9.39648438 19.30859375 C9.36133881 21.58133998 9.31214132 23.85285847 9.25 26.125 C7.41308594 26.09986328 7.41308594 26.09986328 5.5390625 26.07421875 C2.45903191 26.07082814 -0.34949596 26.33126605 -3.375 26.9375 C-6.70479159 27.32991911 -8.54692142 27.13967311 -11.3125 25.1875 C-14.56208927 21.10468271 -14.26693033 19.20814821 -13.75 14.125 C-13.09 14.125 -12.43 14.125 -11.75 14.125 C-11.09 12.805 -10.43 11.485 -9.75 10.125 C-7.77090602 10.09813447 -5.79171029 10.07866625 -3.8125 10.0625 C-2.71035156 10.05089844 -1.60820312 10.03929687 -0.47265625 10.02734375 C2.25 10.125 2.25 10.125 3.25 11.125 C3.25 8.815 3.25 6.505 3.25 4.125 C-1.5833472 4.04166643 -5.98692563 4.17238513 -10.75 5.125 C-10.75 4.135 -10.75 3.145 -10.75 2.125 C-7.15537669 -0.13498595 -4.18404325 -0.08368087 0 0 Z " fill="#260001" transform="translate(510.75,409.875)"></path><path d="M0 0 C2.37426758 1.81005859 2.37426758 1.81005859 2.94189453 4.26196289 C2.91571045 5.20982666 2.88952637 6.15769043 2.86254883 7.13427734 C2.84643555 8.16230469 2.83032227 9.19033203 2.8137207 10.24951172 C2.77182617 11.32136719 2.72993164 12.39322266 2.68676758 13.49755859 C2.66420898 14.58101563 2.64165039 15.66447266 2.6184082 16.78076172 C2.55942547 19.45857764 2.47717065 22.13362886 2.37426758 24.81005859 C-0.02101836 25.06013247 -2.41452567 25.28557986 -4.81323242 25.49755859 C-5.48676758 25.57039063 -6.16030273 25.64322266 -6.85424805 25.71826172 C-11.43284901 26.09795058 -13.98158135 25.61478913 -17.62573242 22.81005859 C-19.62573242 20.81005859 -19.62573242 20.81005859 -20.00073242 16.93505859 C-19.89391748 14.13752439 -19.64231975 12.8416535 -18.31323242 10.31005859 C-14.00355784 7.90465883 -9.45476612 8.34248549 -4.62573242 8.81005859 C-3.96573242 9.14005859 -3.30573242 9.47005859 -2.62573242 9.81005859 C-2.58301142 8.14393954 -2.5850941 6.47622974 -2.62573242 4.81005859 C-3.61397097 3.60321411 -3.61397097 3.60321411 -5.51635742 3.67724609 C-9.67979982 3.69103233 -13.56498271 3.76212318 -17.62573242 4.81005859 C-17.62573242 3.49005859 -17.62573242 2.17005859 -17.62573242 0.81005859 C-12.25987666 -2.05173114 -5.54862932 -2.51455317 0 0 Z " fill="#1A0000" transform="translate(636.625732421875,411.18994140625)"></path><path d="M0 0 C2.97 0 5.94 0 9 0 C9 14.19 9 28.38 9 43 C6.03 43 3.06 43 0 43 C0 28.81 0 14.62 0 0 Z " fill="#0A0000" transform="translate(720,325)"></path><path d="M0 0 C0.86818359 -0.02900391 1.73636719 -0.05800781 2.63085938 -0.08789062 C6.33286119 -0.12482541 8.97089434 -0.04740478 12.30859375 1.62890625 C14.61434297 6.11629922 13.83117935 10.63838368 13.4375 15.5625 C13.37175781 16.59375 13.30601562 17.625 13.23828125 18.6875 C13.07342189 21.23104445 12.88919465 23.77165488 12.6875 26.3125 C11.0375 26.3125 9.3875 26.3125 7.6875 26.3125 C7.1925 16.4125 7.1925 16.4125 6.6875 6.3125 C0.13214865 6.02954177 0.13214865 6.02954177 -4.3125 7.3125 C-4.3125 13.5825 -4.3125 19.8525 -4.3125 26.3125 C-6.2925 26.3125 -8.2725 26.3125 -10.3125 26.3125 C-10.34136751 22.16668113 -10.35925327 18.02088784 -10.375 13.875 C-10.38337891 12.69099609 -10.39175781 11.50699219 -10.40039062 10.28710938 C-10.40361328 9.16240234 -10.40683594 8.03769531 -10.41015625 6.87890625 C-10.41539307 5.83677979 -10.42062988 4.79465332 -10.42602539 3.72094727 C-10.17189607 -1.67041984 -4.25033963 0.04670703 0 0 Z " fill="#350203" transform="translate(382.3125,409.6875)"></path><path d="M0 0 C2.4375 1.3125 2.4375 1.3125 4 4 C4.63143279 9.26726844 4.94932228 14.39822056 2 19 C-1.22816959 20.61408479 -4.50930484 20.57258438 -8 20 C-10.5 18.1875 -10.5 18.1875 -12 15 C-12.58713882 11.21994437 -12.66179464 7.77339048 -12 4 C-8.66093649 -0.35090094 -5.30058083 -0.77099358 0 0 Z " fill="#7A0102" transform="translate(572,413)"></path><path d="M0 0 C1.32 0 2.64 0 4 0 C4 0.66 4 1.32 4 2 C4.99 2 5.98 2 7 2 C7 1.34 7 0.68 7 0 C9.12438339 -0.08078641 11.2496323 -0.13909141 13.375 -0.1875 C14.55835938 -0.22230469 15.74171875 -0.25710938 16.9609375 -0.29296875 C18.46527344 -0.14794922 18.46527344 -0.14794922 20 0 C22.23413013 3.35119519 22.23847762 4.4177755 22.1953125 8.32421875 C22.18886719 9.35224609 22.18242187 10.38027344 22.17578125 11.43945312 C22.15902344 12.51130859 22.14226562 13.58316406 22.125 14.6875 C22.11597656 15.77095703 22.10695313 16.85441406 22.09765625 17.97070312 C22.0740734 20.6473571 22.04116126 23.32356797 22 26 C20.68 26 19.36 26 18 26 C17.97494385 25.39937744 17.9498877 24.79875488 17.92407227 24.17993164 C17.8084472 21.47388563 17.68557064 18.76821717 17.5625 16.0625 C17.52318359 15.11697266 17.48386719 14.17144531 17.44335938 13.19726562 C17.40146484 12.29814453 17.35957031 11.39902344 17.31640625 10.47265625 C17.27974854 9.64000244 17.24309082 8.80734863 17.20532227 7.94946289 C17.20632897 5.99661142 17.20632897 5.99661142 16 5 C10.12353969 4.53668563 10.12353969 4.53668563 5 7 C4.49378487 9.02276681 4.49378487 9.02276681 4.48828125 11.3515625 C4.45283203 12.20234375 4.41738281 13.053125 4.38085938 13.9296875 C4.35830078 14.81914062 4.33574219 15.70859375 4.3125 16.625 C4.27833984 17.5221875 4.24417969 18.419375 4.20898438 19.34375 C4.12637598 21.56237538 4.05727281 23.7805994 4 26 C2.68 26 1.36 26 0 26 C0 17.42 0 8.84 0 0 Z " fill="#1A0001" transform="translate(468,410)"></path><path d="M0 0 C2.64 0 5.28 0 8 0 C8 0.66 8 1.32 8 2 C9.32 2.66 10.64 3.32 12 4 C12 11.59 12 19.18 12 27 C10.68 27 9.36 27 8 27 C7.97494385 26.40985107 7.9498877 25.81970215 7.92407227 25.21166992 C7.80799948 22.53673186 7.68532428 19.8621362 7.5625 17.1875 C7.52318359 16.25873047 7.48386719 15.32996094 7.44335938 14.37304688 C7.40146484 13.48037109 7.35957031 12.58769531 7.31640625 11.66796875 C7.27974854 10.84578857 7.24309082 10.0236084 7.20532227 9.17651367 C7.06572228 6.82094822 7.06572228 6.82094822 6 4 C1.51311093 4.5278693 -1.73727501 5.29491 -6 7 C-6 13.6 -6 20.2 -6 27 C-7.32 27 -8.64 27 -10 27 C-10 18.42 -10 9.84 -10 1 C-8.68 1 -7.36 1 -6 1 C-6 1.66 -6 2.32 -6 3 C-4.02 2.67 -2.04 2.34 0 2 C0 1.34 0 0.68 0 0 Z " fill="#170000" transform="translate(598,409)"></path><path d="M0 0 C30.36 0 60.72 0 92 0 C92 11.88 92 23.76 92 36 C91.67 36 91.34 36 91 36 C91 24.45 91 12.9 91 1 C61.63 1 32.26 1 2 1 C2.07908908 8.28373595 2.07908908 8.28373595 4 10 C4.32351301 12.83972535 4.5130429 15.68073737 4.71875 18.53125 C4.73385265 20.9413605 4.73385265 20.9413605 6 22 C6.25649473 26.51473837 6.18524281 31.04135574 6.1875 35.5625 C6.19974609 36.82642578 6.21199219 38.09035156 6.22460938 39.39257812 C6.23489351 45.9504292 5.99813853 51.73705988 4 58 C3.67 58 3.34 58 3 58 C3.00523682 56.94611084 3.01047363 55.89222168 3.01586914 54.80639648 C3.03405784 50.87216043 3.04548245 46.93792805 3.05493164 43.00366211 C3.05994027 41.30541355 3.06674906 39.60716926 3.07543945 37.90893555 C3.08765773 35.45881085 3.09326314 33.0087435 3.09765625 30.55859375 C3.10281754 29.80726669 3.10797882 29.05593964 3.11329651 28.28184509 C3.11376977 23.76909788 2.81887289 19.45583268 2 15 C1.67 14.67 1.34 14.34 1 14 C0.67 9.38 0.34 4.76 0 0 Z " fill="#459298" transform="translate(219,306)"></path><path d="M0 0 C0.85049423 0.00222061 1.70098846 0.00444122 2.57725525 0.00672913 C4.01863609 0.00684242 4.01863609 0.00684242 5.48913574 0.00695801 C7.05630592 0.01469994 7.05630592 0.01469994 8.65513611 0.02259827 C9.71913132 0.02401321 10.78312653 0.02542816 11.87936401 0.02688599 C15.29293069 0.03250388 18.70643286 0.04505941 22.11997986 0.05775452 C24.42792162 0.06276721 26.73586441 0.06733052 29.04380798 0.07142639 C34.71505412 0.08247912 40.38626238 0.09923465 46.05747986 0.12025452 C46.55247986 2.10025452 46.55247986 2.10025452 47.05747986 4.12025452 C46.56247986 3.13025452 46.56247986 3.13025452 46.05747986 2.12025452 C42.75747986 2.12025452 39.45747986 2.12025452 36.05747986 2.12025452 C36.05747986 3.11025452 36.05747986 4.10025452 36.05747986 5.12025452 C36.71747986 5.12025452 37.37747986 5.12025452 38.05747986 5.12025452 C39.60044861 7.23744202 39.60044861 7.23744202 41.24497986 9.99525452 C41.79540955 10.90017639 42.34583923 11.80509827 42.91294861 12.73744202 C43.29064392 13.52377014 43.66833923 14.31009827 44.05747986 15.12025452 C43.72747986 15.78025452 43.39747986 16.44025452 43.05747986 17.12025452 C37.48605129 10.97739737 37.48605129 10.97739737 37.05747986 6.12025452 C36.06747986 6.12025452 35.07747986 6.12025452 34.05747986 6.12025452 C33.72747986 7.44025452 33.39747986 8.76025452 33.05747986 10.12025452 C33.05747986 7.48025452 33.05747986 4.84025452 33.05747986 2.12025452 C21.83747986 2.45025452 10.61747986 2.78025452 -0.94252014 3.12025452 C-1.27252014 5.43025452 -1.60252014 7.74025452 -1.94252014 10.12025452 C2.34747986 10.12025452 6.63747986 10.12025452 11.05747986 10.12025452 C11.05747986 21.67025452 11.05747986 33.22025452 11.05747986 45.12025452 C14.02747986 45.12025452 16.99747986 45.12025452 20.05747986 45.12025452 C20.05747986 45.45025452 20.05747986 45.78025452 20.05747986 46.12025452 C16.75747986 46.12025452 13.45747986 46.12025452 10.05747986 46.12025452 C10.05747986 34.57025452 10.05747986 23.02025452 10.05747986 11.12025452 C5.76747986 11.12025452 1.47747986 11.12025452 -2.94252014 11.12025452 C-3.04017639 3.40541077 -3.04017639 3.40541077 -2.94252014 1.12025452 C-1.94252014 0.12025452 -1.94252014 0.12025452 0 0 Z " fill="#650706" transform="translate(737.9425201416016,322.87974548339844)"></path><path d="M0 0 C1.65 0.33 3.3 0.66 5 1 C5 2.98 5 4.96 5 7 C6.65 7 8.3 7 10 7 C10 8.32 10 9.64 10 11 C8.35 11 6.7 11 5 11 C5 16.94 5 22.88 5 29 C6.98 29.33 8.96 29.66 11 30 C10.67 31.32 10.34 32.64 10 34 C7.03 33.67 4.06 33.34 1 33 C0.67 26.07 0.34 19.14 0 12 C-1.32 11.67 -2.64 11.34 -4 11 C-4 9.68 -4 8.36 -4 7 C-2.68 7 -1.36 7 0 7 C0 4.69 0 2.38 0 0 Z " fill="#160000" transform="translate(528,403)"></path><path d="M0 0 C1.32 0 2.64 0 4 0 C4 2.31 4 4.62 4 7 C5.65 7 7.3 7 9 7 C9 8.32 9 9.64 9 11 C7.35 11 5.7 11 4 11 C4 16.94 4 22.88 4 29 C5.98 29 7.96 29 10 29 C9.505 31.475 9.505 31.475 9 34 C3.5047654 34.36634897 3.5047654 34.36634897 1.3190918 32.7800293 C-0.38322249 30.48286597 -0.34720925 29.17061766 -0.29296875 26.33203125 C-0.28330078 25.43935547 -0.27363281 24.54667969 -0.26367188 23.62695312 C-0.23853516 22.69818359 -0.21339844 21.76941406 -0.1875 20.8125 C-0.16719727 19.40194336 -0.16719727 19.40194336 -0.14648438 17.96289062 C-0.11113096 15.64134962 -0.06178674 13.32096347 0 11 C-1.32 11 -2.64 11 -4 11 C-3.67 9.68 -3.34 8.36 -3 7 C-2.01 7 -1.02 7 0 7 C0 4.69 0 2.38 0 0 Z " fill="#100000" transform="translate(404,403)"></path><path d="M0 0 C21 0 21 0 27 2 C27 2.33 27 2.66 27 3 C18.75 3 10.5 3 2 3 C2 16.2 2 29.4 2 43 C3.98 43 5.96 43 8 43 C8 38.71 8 34.42 8 30 C8.66 29.67 9.32 29.34 10 29 C10 33.95 10 38.9 10 44 C6.7 44 3.4 44 0 44 C0 29.48 0 14.96 0 0 Z " fill="#2E0000" transform="translate(451,324)"></path><path d="M0 0 C2.29109597 -0.08075665 4.58299267 -0.13907731 6.875 -0.1875 C8.78925781 -0.23970703 8.78925781 -0.23970703 10.7421875 -0.29296875 C11.81726563 -0.19628906 12.89234375 -0.09960938 14 0 C16.4294516 3.6441774 16.16179575 5.71241272 16 10 C10.99791398 13.08381031 5.70008452 12.12391488 0 12 C0 8.04 0 4.08 0 0 Z " fill="#6D0303" transform="translate(552,333)"></path><path d="M0 0 C1.65 0 3.3 0 5 0 C5 11.88 5 23.76 5 36 C3.35 36 1.7 36 0 36 C0 24.12 0 12.24 0 0 Z " fill="#220000" transform="translate(359,400)"></path><path d="M0 0 C2.10353495 -0.0810206 4.20795952 -0.13919907 6.3125 -0.1875 C7.48425781 -0.22230469 8.65601563 -0.25710938 9.86328125 -0.29296875 C13 0 13 0 14.89453125 1.32421875 C16.62064064 3.94082981 16.38086549 5.95307606 16 9 C14.859375 10.671875 14.859375 10.671875 13 12 C10.1171875 12.328125 10.1171875 12.328125 6.875 12.25 C5.79992187 12.23453125 4.72484375 12.2190625 3.6171875 12.203125 C1 12 1 12 0 11 C-0.07226502 9.14712498 -0.0838122 7.29166122 -0.0625 5.4375 C-0.05347656 4.42558594 -0.04445313 3.41367187 -0.03515625 2.37109375 C-0.02355469 1.58863281 -0.01195312 0.80617188 0 0 Z " fill="#7F0101" transform="translate(419,333)"></path><path d="M0 0 C2.475 0.495 2.475 0.495 5 1 C5 12.55 5 24.1 5 36 C3.35 36 1.7 36 0 36 C0 24.12 0 12.24 0 0 Z " fill="#240000" transform="translate(647,400)"></path><path d="M0 0 C1.06992188 0.00644531 2.13984375 0.01289063 3.2421875 0.01953125 C4.35335937 0.03628906 5.46453125 0.05304688 6.609375 0.0703125 C7.73601562 0.07933594 8.86265625 0.08835938 10.0234375 0.09765625 C12.80229865 0.12120592 15.5807289 0.1540957 18.359375 0.1953125 C18.359375 0.8553125 18.359375 1.5153125 18.359375 2.1953125 C19.514375 2.3190625 20.669375 2.4428125 21.859375 2.5703125 C28.59250374 3.42682358 34.36419241 4.89796208 40.359375 8.1953125 C40.359375 8.8553125 40.359375 9.5153125 40.359375 10.1953125 C41.04 10.1334375 41.720625 10.0715625 42.421875 10.0078125 C46.27873625 10.25399513 48.87017094 11.55333412 52.359375 13.1953125 C52.359375 13.8553125 52.359375 14.5153125 52.359375 15.1953125 C53.679375 15.8553125 54.999375 16.5153125 56.359375 17.1953125 C55.699375 17.5253125 55.039375 17.8553125 54.359375 18.1953125 C52.48205781 17.45749302 50.6051357 16.71864863 48.73046875 15.97412109 C44.53762081 14.59693978 40.23825734 14.35468617 35.859375 14.0078125 C34.48265625 13.8850293 34.48265625 13.8850293 33.078125 13.75976562 C30.83921076 13.56152843 28.59995092 13.37359833 26.359375 13.1953125 C26.359375 12.8653125 26.359375 12.5353125 26.359375 12.1953125 C27.21402344 12.14632812 28.06867188 12.09734375 28.94921875 12.046875 C30.05394531 11.97210938 31.15867188 11.89734375 32.296875 11.8203125 C33.95009766 11.71589844 33.95009766 11.71589844 35.63671875 11.609375 C36.53519531 11.47273437 37.43367188 11.33609375 38.359375 11.1953125 C38.689375 10.5353125 39.019375 9.8753125 39.359375 9.1953125 C38.66972656 9.07027344 37.98007813 8.94523438 37.26953125 8.81640625 C34.359375 8.1953125 34.359375 8.1953125 31.35546875 7.29296875 C17.94338087 3.39153814 4.24858991 2.91553739 -9.640625 2.1953125 C-6.3223173 0.20570477 -3.84102801 -0.040862 0 0 Z " fill="#E73468" transform="translate(125.640625,235.8046875)"></path><path d="M0 0 C1.32 0 2.64 0 4 0 C4 0.99 4 1.98 4 3 C4.556875 2.505 5.11375 2.01 5.6875 1.5 C8.38162983 -0.24754367 9.85375007 -0.26218749 13 0 C12.67 1.65 12.34 3.3 12 5 C9.69 5.33 7.38 5.66 5 6 C5 12.6 5 19.2 5 26 C3.35 26 1.7 26 0 26 C0 17.42 0 8.84 0 0 Z " fill="#2E0101" transform="translate(450,410)"></path><path d="M0 0 C1.43859375 -0.01836914 1.43859375 -0.01836914 2.90625 -0.03710938 C3.83179688 -0.03904297 4.75734375 -0.04097656 5.7109375 -0.04296875 C6.5570459 -0.04707764 7.4031543 -0.05118652 8.27490234 -0.05541992 C10.625 0.1875 10.625 0.1875 14.625 2.1875 C6.375 2.1875 -1.875 2.1875 -10.375 2.1875 C-10.375 16.3775 -10.375 30.5675 -10.375 45.1875 C-11.035 44.8575 -11.695 44.5275 -12.375 44.1875 C-13.35973005 39.96087956 -13.50350384 35.86557558 -13.5078125 31.5390625 C-13.50910156 30.28609375 -13.51039063 29.033125 -13.51171875 27.7421875 C-13.50785156 26.44539063 -13.50398437 25.14859375 -13.5 23.8125 C-13.50386719 22.5234375 -13.50773438 21.234375 -13.51171875 19.90625 C-13.49838398 6.91818028 -13.49838398 6.91818028 -12.375 1.1875 C-8.63342335 -0.68328832 -4.11707312 0.00274472 0 0 Z " fill="#700609" transform="translate(553.375,322.8125)"></path><path d="M0 0 C10.32840689 -0.36887167 10.32840689 -0.36887167 13.33984375 1.28515625 C15 3 15 3 15.3125 6.625 C15 10 15 10 14 11 C11.64686445 11.07271741 9.29166332 11.08370868 6.9375 11.0625 C5.64714844 11.05347656 4.35679687 11.04445313 3.02734375 11.03515625 C2.02832031 11.02355469 1.02929688 11.01195312 0 11 C0 7.37 0 3.74 0 0 Z " fill="#720404" transform="translate(461,333)"></path><path d="M0 0 C8.25 0 16.5 0 25 0 C25.33 0.66 25.66 1.32 26 2 C18.08 2 10.16 2 2 2 C2 15.2 2 28.4 2 42 C3.98 42 5.96 42 8 42 C8 37.38 8 32.76 8 28 C8.33 28 8.66 28 9 28 C9 32.95 9 37.9 9 43 C6.03 43 3.06 43 0 43 C0 28.81 0 14.62 0 0 Z " fill="#200000" transform="translate(543,325)"></path><path d="M0 0 C3 2.375 3 2.375 5 5 C5.66 5.66 6.32 6.32 7 7 C7.125 10.625 7.125 10.625 7 14 C3.37 14 -0.26 14 -4 14 C-4 13.34 -4 12.68 -4 12 C-1.69 12 0.62 12 3 12 C1.73025028 7.58477891 1.73025028 7.58477891 -1 4 C-5.04378787 3.60896708 -5.04378787 3.60896708 -9 4 C-10.77409808 5.92022703 -10.77409808 5.92022703 -12 8 C-13.32 8 -14.64 8 -16 8 C-16 12.29 -16 16.58 -16 21 C-16.66 20.67 -17.32 20.34 -18 20 C-19.18937611 9.01479013 -19.18937611 9.01479013 -16.5703125 4.578125 C-11.74035407 -0.11605147 -6.58555928 -1.65489097 0 0 Z " fill="#1A0000" transform="translate(436,410)"></path><path d="M0 0 C1.43352212 0.00015908 2.86704998 0.00585132 4.30053711 0.01586914 C5.43041298 0.01799156 5.43041298 0.01799156 6.58311462 0.02015686 C8.99807646 0.02577163 11.41294687 0.03832656 13.82788086 0.05102539 C15.46134307 0.05603849 17.09480672 0.06060173 18.72827148 0.06469727 C22.74067671 0.07574585 26.75301326 0.09302033 30.76538086 0.11352539 C30.76538086 3.08352539 30.76538086 6.05352539 30.76538086 9.11352539 C26.47538086 8.78352539 22.18538086 8.45352539 17.76538086 8.11352539 C18.09538086 7.45352539 18.42538086 6.79352539 18.76538086 6.11352539 C22.06538086 6.11352539 25.36538086 6.11352539 28.76538086 6.11352539 C28.27038086 4.62852539 28.27038086 4.62852539 27.76538086 3.11352539 C12.91538086 2.61852539 12.91538086 2.61852539 -2.23461914 2.11352539 C-2.23461914 3.43352539 -2.23461914 4.75352539 -2.23461914 6.11352539 C1.39538086 6.44352539 5.02538086 6.77352539 8.76538086 7.11352539 C8.76538086 7.44352539 8.76538086 7.77352539 8.76538086 8.11352539 C4.47538086 8.11352539 0.18538086 8.11352539 -4.23461914 8.11352539 C-4.27703637 5.78057764 -4.27554851 3.44649972 -4.23461914 1.11352539 C-3.23461914 0.11352539 -3.23461914 0.11352539 0 0 Z " fill="#220000" transform="translate(740.234619140625,324.886474609375)"></path><path d="M0 0 C0 2.97 0 5.94 0 9 C-4.29 9 -8.58 9 -13 9 C-12.67 8.34 -12.34 7.68 -12 7 C-8.7 7 -5.4 7 -2 7 C-2 5.68 -2 4.36 -2 3 C-11.9 3 -21.8 3 -32 3 C-32 4.32 -32 5.64 -32 7 C-29.36 7 -26.72 7 -24 7 C-24 7.66 -24 8.32 -24 9 C-27.3 9 -30.6 9 -34 9 C-34 6.36 -34 3.72 -34 1 C-29.31860934 0.85739262 -24.63721278 0.71498107 -19.95581055 0.57275391 C-18.36205889 0.52430568 -16.76830889 0.47580319 -15.17456055 0.42724609 C-12.88851339 0.35760586 -10.60246045 0.28815845 -8.31640625 0.21875 C-7.59973282 0.19687622 -6.88305939 0.17500244 -6.14466858 0.15246582 C-1.11387171 0 -1.11387171 0 0 0 Z " fill="#200000" transform="translate(617,324)"></path><path d="M0 0 C2.56231382 0.07919879 3.85022116 0.19671154 6.125 1.4375 C7.56021013 4.30792026 6.89737829 6.29409388 6.0625 9.3125 C4.0625 11.3125 4.0625 11.3125 0.625 11.5625 C-2.9375 11.3125 -2.9375 11.3125 -5.9375 9.3125 C-6.25 5.8125 -6.25 5.8125 -5.9375 2.3125 C-3.9375 0.3125 -3.9375 0.3125 0 0 Z " fill="#710505" transform="translate(507.9375,422.6875)"></path><path d="M0 0 C2.0625 1.125 2.0625 1.125 3 3 C2.56521739 8.43478261 2.56521739 8.43478261 1 10 C-0.9609375 10.203125 -0.9609375 10.203125 -3.375 10.25 C-4.16648437 10.27578125 -4.95796875 10.3015625 -5.7734375 10.328125 C-8 10 -8 10 -9.80078125 8.6796875 C-11 7 -11 7 -10.8125 3.875 C-10.544375 2.92625 -10.27625 1.9775 -10 1 C-6.81257991 -0.59371004 -3.46851119 -0.38224409 0 0 Z " fill="#710404" transform="translate(632,423)"></path><path d="M0 0 C1.2065625 0.2475 1.2065625 0.2475 2.4375 0.5 C4.97658116 1.26597109 4.97658116 1.26597109 7 0 C8.49649362 -0.12005453 9.99874793 -0.17531451 11.5 -0.1875 C12.2940625 -0.20167969 13.088125 -0.21585937 13.90625 -0.23046875 C16 0 16 0 18 2 C18.125 5.125 18.125 5.125 18 8 C17.01 7.67 16.02 7.34 15 7 C13.16859259 6.90622311 11.33380013 6.87007043 9.5 6.875 C8.5409375 6.87242187 7.581875 6.86984375 6.59375 6.8671875 C3.88428848 6.89007028 3.88428848 6.89007028 1 8 C0.67 8.66 0.34 9.32 0 10 C-1.49106457 7.01787087 -1.11941467 4.28390342 -1 1 C-0.67 0.67 -0.34 0.34 0 0 Z " fill="#790203" transform="translate(617,414)"></path><path d="M0 0 C2.64 0 5.28 0 8 0 C8 14.19 8 28.38 8 43 C4.7 43 1.4 43 -2 43 C-2 42.67 -2 42.34 -2 42 C0.97 42 3.94 42 7 42 C7 28.47 7 14.94 7 1 C5.35 1 3.7 1 2 1 C1.67 9.25 1.34 17.5 1 26 C0.01 26 -0.98 26 -2 26 C-1.86186975 21.85387186 -1.71321141 17.70818838 -1.5625 13.5625 C-1.52318359 12.37849609 -1.48386719 11.19449219 -1.44335938 9.97460938 C-1.40146484 8.84990234 -1.35957031 7.72519531 -1.31640625 6.56640625 C-1.27974854 5.52427979 -1.24309082 4.48215332 -1.20532227 3.40844727 C-1 1 -1 1 0 0 Z " fill="#1C0000" transform="translate(702,325)"></path><path d="M0 0 C3.3 0 6.6 0 10 0 C10 14.85 10 29.7 10 45 C9.34 45 8.68 45 8 45 C8 30.81 8 16.62 8 2 C5.03 2 2.06 2 -1 2 C-0.67 1.34 -0.34 0.68 0 0 Z " fill="#650909" transform="translate(721,323)"></path><path d="M0 0 C1.32 0 2.64 0 4 0 C4 8.58 4 17.16 4 26 C2.68 26 1.36 26 0 26 C0 17.42 0 8.84 0 0 Z " fill="#130000" transform="translate(544,410)"></path><path d="M0 0 C2 1.1875 2 1.1875 3 3 C3 4.65 3 6.3 3 8 C-1.95 8 -6.9 8 -12 8 C-11 3 -11 3 -9.9375 1.1875 C-6.79178251 -0.74052039 -3.58280381 -0.54488475 0 0 Z " fill="#6D0504" transform="translate(435,413)"></path><path d="M0 0 C2.64 0 5.28 0 8 0 C9 1 9 1 9.11352539 3.59204102 C9.10828857 4.71795654 9.10305176 5.84387207 9.09765625 7.00390625 C9.09443359 8.21884766 9.09121094 9.43378906 9.08789062 10.68554688 C9.07951172 11.96494141 9.07113281 13.24433594 9.0625 14.5625 C9.05798828 15.84576172 9.05347656 17.12902344 9.04882812 18.45117188 C9.03699545 21.63416022 9.02051068 24.81705762 9 28 C6.76586987 24.64880481 6.76152238 23.5822245 6.8046875 19.67578125 C6.81113281 18.64775391 6.81757812 17.61972656 6.82421875 16.56054688 C6.84097656 15.48869141 6.85773437 14.41683594 6.875 13.3125 C6.88402344 12.22904297 6.89304687 11.14558594 6.90234375 10.02929688 C6.9259266 7.3526429 6.95883874 4.67643203 7 2 C5.02 2 3.04 2 1 2 C1 12.23 1 22.46 1 33 C0.67 33 0.34 33 0 33 C0 22.11 0 11.22 0 0 Z " fill="#180000" transform="translate(624,325)"></path><path d="M0 0 C2.10353495 -0.0810206 4.20795952 -0.13919907 6.3125 -0.1875 C7.48425781 -0.22230469 8.65601563 -0.25710938 9.86328125 -0.29296875 C13 0 13 0 14.89453125 1.32421875 C16.62064064 3.94082981 16.38086549 5.95307606 16 9 C14.859375 10.671875 14.859375 10.671875 13 12 C10.1171875 12.328125 10.1171875 12.328125 6.875 12.25 C5.79992187 12.23453125 4.72484375 12.2190625 3.6171875 12.203125 C1 12 1 12 0 11 C-0.07226502 9.14712498 -0.0838122 7.29166122 -0.0625 5.4375 C-0.05347656 4.42558594 -0.04445313 3.41367187 -0.03515625 2.37109375 C-0.02355469 1.58863281 -0.01195312 0.80617188 0 0 Z M2 2 C2 4.64 2 7.28 2 10 C3.81242052 10.02687279 5.62495233 10.04633715 7.4375 10.0625 C8.95150391 10.07990234 8.95150391 10.07990234 10.49609375 10.09765625 C12.94021067 10.28612676 12.94021067 10.28612676 14 9 C13.71269945 6.66055264 13.38063221 4.3260857 13 2 C9.37 2 5.74 2 2 2 Z " fill="#55070A" transform="translate(419,333)"></path><path d="M0 0 C2.64 0 5.28 0 8 0 C8 0.66 8 1.32 8 2 C8.99 2.33 9.98 2.66 11 3 C11 10.26 11 17.52 11 25 C10.01 25 9.02 25 8 25 C7.67 18.07 7.34 11.14 7 4 C4.69 3.01 2.38 2.02 0 1 C0 0.67 0 0.34 0 0 Z " fill="#0B0000" transform="translate(383,411)"></path><path d="M0 0 C0.33 0 0.66 0 1 0 C1 1.65 1 3.3 1 5 C-1.31 5 -3.62 5 -6 5 C-6 5.66 -6 6.32 -6 7 C-2.37 7 1.26 7 5 7 C5.33 5.68 5.66 4.36 6 3 C6 4.65 6 6.3 6 8 C-0.93 8 -7.86 8 -15 8 C-14.01 10.31 -13.02 12.62 -12 15 C-12.99 14.67 -13.98 14.34 -15 14 C-16.25 10.5625 -16.25 10.5625 -17 7 C-16.67 6.34 -16.34 5.68 -16 5 C-15.64830932 3.67139075 -15.31229724 2.33841672 -15 1 C-15 1.99 -15 2.98 -15 4 C-10.05 4 -5.1 4 0 4 C0 2.68 0 1.36 0 0 Z " fill="#2F0101" transform="translate(438,417)"></path><path d="M0 0 C0.33 0.99 0.66 1.98 1 3 C-2.74472394 5.49014638 -6.11384025 7.72609608 -10.4375 9.0625 C-11.283125 9.371875 -12.12875 9.68125 -13 10 C-13.33 11.32 -13.66 12.64 -14 14 C-0.635 14.495 -0.635 14.495 13 15 C13 15.33 13 15.66 13 16 C9.52085157 16.0294191 6.04173583 16.04693792 2.5625 16.0625 C1.10166992 16.07506836 1.10166992 16.07506836 -0.38867188 16.08789062 C-6.34778969 16.10782078 -12.09067683 15.77609518 -18 15 C-17.67 13.68 -17.34 12.36 -17 11 C-16.34 11 -15.68 11 -15 11 C-15 10.34 -15 9.68 -15 9 C-13.824375 8.443125 -12.64875 7.88625 -11.4375 7.3125 C-7.28775193 5.24872155 -3.70395264 2.77796448 0 0 Z " fill="#45898E" transform="translate(179,441)"></path><path d="M0 0 C3.63 0 7.26 0 11 0 C11 10.23 11 20.46 11 31 C10.34 30.67 9.68 30.34 9 30 C8.67 21.09 8.34 12.18 8 3 C5.36 2.67 2.72 2.34 0 2 C0 1.34 0 0.68 0 0 Z " fill="#660A08" transform="translate(624,323)"></path><path d="M0 0 C0.66 0.33 1.32 0.66 2 1 C0.71372289 2.17260611 -0.57919783 3.3379283 -1.875 4.5 C-2.95394531 5.47453125 -2.95394531 5.47453125 -4.0546875 6.46875 C-6 8 -6 8 -8 8 C-8.33 14.6 -8.66 21.2 -9 28 C-8.01 28 -7.02 28 -6 28 C-6 29.65 -6 31.3 -6 33 C-6.66 33 -7.32 33 -8 33 C-11.30999182 25.82835106 -12.32483568 18.64852421 -10.49609375 10.8515625 C-8.90740863 6.69374658 -6.3517166 3.84895911 -3 1 C-2.01 0.67 -1.02 0.34 0 0 Z " fill="#1F0000" transform="translate(502,327)"></path><path d="M0 0 C0.98120464 3.05263664 0.98120464 4.94736336 0 8 C-0.66 8 -1.32 8 -2 8 C-2.226875 8.763125 -2.45375 9.52625 -2.6875 10.3125 C-4.79069853 14.61904936 -7.83138049 15.56463195 -12.1875 17.1875 C-16.86118319 18.18353084 -21.24353989 18.17226616 -26 18 C-26 17.34 -26 16.68 -26 16 C-21.05 15.67 -16.1 15.34 -11 15 C-11 14.34 -11 13.68 -11 13 C-10.278125 12.608125 -9.55625 12.21625 -8.8125 11.8125 C-4.3730098 8.9514952 -1.66301549 4.98904647 0 0 Z " fill="#660408" transform="translate(401,353)"></path><path d="M0 0 C0.33 0.66 0.66 1.32 1 2 C-1.39755752 4.649932 -3.7836183 6.42754672 -7 8 C-10.33203125 8.07421875 -10.33203125 8.07421875 -13.8125 7.6875 C-14.97394531 7.56761719 -16.13539063 7.44773437 -17.33203125 7.32421875 C-18.65267578 7.16373047 -18.65267578 7.16373047 -20 7 C-19.67 7.99 -19.34 8.98 -19 10 C-18.93259135 11.56118428 -18.91485544 13.1250252 -18.9375 14.6875 C-18.94652344 15.49574219 -18.95554687 16.30398438 -18.96484375 17.13671875 C-18.97644531 17.75160156 -18.98804688 18.36648438 -19 19 C-19.66 19.33 -20.32 19.66 -21 20 C-21 15.05 -21 10.1 -21 5 C-13.875 4.75 -13.875 4.75 -11.66748047 4.70214844 C-6.52256843 4.43701871 -3.93305011 3.06312314 0 0 Z " fill="#6A0607" transform="translate(482,348)"></path><path d="M0 0 C0.66 0 1.32 0 2 0 C5 4.38461538 5 4.38461538 5 7 C5.66 7 6.32 7 7 7 C7 7.66 7 8.32 7 9 C5.68 8.34 4.36 7.68 3 7 C2.67 13.6 2.34 20.2 2 27 C1.34 27 0.68 27 0 27 C0 18.09 0 9.18 0 0 Z " fill="#560809" transform="translate(681,341)"></path><path d="M0 0 C0.66 0 1.32 0 2 0 C2 6.27 2 12.54 2 19 C1.01 19 0.02 19 -1 19 C-3.08708012 12.73875963 -2.54971958 6.055584 0 0 Z " fill="#0A0000" transform="translate(517,417)"></path><path d="M0 0 C2.64 0.33 5.28 0.66 8 1 C6.71034824 2.37562854 5.37310707 3.70766393 4 5 C3.34 5 2.68 5 2 5 C2 11.27 2 17.54 2 24 C1.34 24 0.68 24 0 24 C0 16.08 0 8.16 0 0 Z " fill="#090000" transform="translate(374,411)"></path><path d="M0 0 C1 1 1 1 1.11352539 3.04125977 C1.10828857 3.91580811 1.10305176 4.79035645 1.09765625 5.69140625 C1.09443359 6.63564453 1.09121094 7.57988281 1.08789062 8.55273438 C1.07951172 9.54595703 1.07113281 10.53917969 1.0625 11.5625 C1.05798828 12.55958984 1.05347656 13.55667969 1.04882812 14.58398438 C1.03700007 17.05604849 1.02051849 19.52799518 1 22 C0.67 22 0.34 22 0 22 C-0.33 15.4 -0.66 8.8 -1 2 C-7.55535135 1.71704177 -7.55535135 1.71704177 -12 3 C-12 9.27 -12 15.54 -12 22 C-12.33 22 -12.66 22 -13 22 C-13 15.4 -13 8.8 -13 2 C-7.04806784 -0.97596608 -6.01348775 -1.41493829 0 0 Z " fill="#510606" transform="translate(390,414)"></path><path d="M0 0 C0.33 0 0.66 0 1 0 C1.12470787 4.39240301 1.21485131 8.78383631 1.2746582 13.17749023 C1.29961933 14.668233 1.33360159 16.1588557 1.37719727 17.64916992 C1.86236546 34.67571967 1.86236546 34.67571967 -4 41 C-7.47325181 42.1577506 -10.36067448 42.06866652 -14 42 C-11.65759392 40.82879696 -9.38589417 39.76187733 -6.9375 38.8125 C-3.25657832 36.541293 -2.22802513 33.99228809 -1 30 C-0.50585714 26.43521517 -0.50585714 26.43521517 -0.48828125 22.75390625 C-0.47033005 22.09792953 -0.45237885 21.44195282 -0.43388367 20.76609802 C-0.38027847 18.69829488 -0.34604907 16.63071562 -0.3125 14.5625 C-0.27928257 13.14905769 -0.24478889 11.73564477 -0.20898438 10.32226562 C-0.12458381 6.88172554 -0.05753721 3.44110634 0 0 Z " fill="#550606" transform="translate(662,327)"></path><path d="M0 0 C2.125 0.375 2.125 0.375 4 1 C4 2.32 4 3.64 4 5 C-3.06627849 7.8265114 -8.93372151 7.8265114 -16 5 C-13.45297384 3.72648692 -12.5717055 4.19808075 -9.875 4.9375 C-8.78832031 5.22947266 -8.78832031 5.22947266 -7.6796875 5.52734375 C-7.12539063 5.68332031 -6.57109375 5.83929688 -6 6 C-6 5.34 -6 4.68 -6 4 C-7.65 4 -9.3 4 -11 4 C-11.33 3.34 -11.66 2.68 -12 2 C-11.30132812 2.02320313 -10.60265625 2.04640625 -9.8828125 2.0703125 C-8.51769531 2.09738281 -8.51769531 2.09738281 -7.125 2.125 C-6.22007812 2.14820313 -5.31515625 2.17140625 -4.3828125 2.1953125 C-1.81193006 2.24324836 -1.81193006 2.24324836 0 0 Z " fill="#2D0000" transform="translate(438,430)"></path><path d="M0 0 C2 2 2 2 2.22705078 4.15478516 C2.21657715 5.02409668 2.20610352 5.8934082 2.1953125 6.7890625 C2.18886719 7.73007812 2.18242187 8.67109375 2.17578125 9.640625 C2.15902344 10.62546875 2.14226562 11.6103125 2.125 12.625 C2.11597656 13.61757813 2.10695313 14.61015625 2.09765625 15.6328125 C2.07404116 18.08878134 2.04110799 20.54427168 2 23 C1.01 23 0.02 23 -1 23 C-1.02911321 19.9166866 -1.04683682 16.83340875 -1.0625 13.75 C-1.07087891 12.87730469 -1.07925781 12.00460937 -1.08789062 11.10546875 C-1.09111328 10.26113281 -1.09433594 9.41679687 -1.09765625 8.546875 C-1.10551147 7.38430176 -1.10551147 7.38430176 -1.11352539 6.19824219 C-1.00036998 4.00716402 -0.60552448 2.10362139 0 0 Z " fill="#0B0000" transform="translate(452,412)"></path><path d="M0 0 C2.375 -0.1875 2.375 -0.1875 5 0 C7.16926659 3.25389988 7.24080049 4.13395957 7.1953125 7.88671875 C7.18886719 8.82451172 7.18242187 9.76230469 7.17578125 10.72851562 C7.15902344 11.70498047 7.14226562 12.68144531 7.125 13.6875 C7.11597656 14.67556641 7.10695313 15.66363281 7.09765625 16.68164062 C7.0740843 19.12133765 7.04118022 21.56054697 7 24 C6.34 24 5.68 24 5 24 C5 17.73 5 11.46 5 5 C4.01 4.67 3.02 4.34 2 4 C2 3.01 2 2.02 2 1 C1.34 0.67 0.68 0.34 0 0 Z " fill="#070000" transform="translate(482,411)"></path><path d="M0 0 C0 0.66 0 1.32 0 2 C0.78375 2.103125 1.5675 2.20625 2.375 2.3125 C5 3 5 3 7 6 C0.45813997 4.20419528 0.45813997 4.20419528 -2.41015625 2.92578125 C-7.75167405 1.01636991 -13.58827729 1.94508819 -18.71484375 4.1875 C-20.86975703 5.38580881 -22.95128497 6.62913142 -25 8 C-24.34 6.68 -23.68 5.36 -23 4 C-22.34 4 -21.68 4 -21 4 C-21 3.34 -21 2.68 -21 2 C-13.94887561 -0.21211746 -7.35342179 -0.20177072 0 0 Z " fill="#620706" transform="translate(521,323)"></path><path d="M0 0 C0.33 0 0.66 0 1 0 C1 7.26 1 14.52 1 22 C0.01 22 -0.98 22 -2 22 C-2.05790353 18.70840684 -2.09356261 15.41694397 -2.125 12.125 C-2.14175781 11.18785156 -2.15851562 10.25070312 -2.17578125 9.28515625 C-2.18544922 7.94130859 -2.18544922 7.94130859 -2.1953125 6.5703125 C-2.20578613 5.74289551 -2.21625977 4.91547852 -2.22705078 4.06298828 C-2 2 -2 2 0 0 Z " fill="#0B0000" transform="translate(637,414)"></path><path d="M0 0 C0.33 0.99 0.66 1.98 1 3 C1.86625 2.67 2.7325 2.34 3.625 2 C7.02806507 0.99168442 9.48062171 0.60895797 13 1 C14.875 2.125 14.875 2.125 16 4 C16.1875 7.1875 16.1875 7.1875 16 10 C15.34 9.67 14.68 9.34 14 9 C11.7927077 8.92907158 9.58332548 8.91584975 7.375 8.9375 C5.59222656 8.95103516 5.59222656 8.95103516 3.7734375 8.96484375 C2.40058594 8.98224609 2.40058594 8.98224609 1 9 C1 8.34 1 7.68 1 7 C5.29 7 9.58 7 14 7 C14 5.68 14 4.36 14 3 C9.62065881 3.51958285 5.31196609 4.05675742 1 5 C0.34 3.68 -0.32 2.36 -1 1 C-0.67 0.67 -0.34 0.34 0 0 Z " fill="#5F0506" transform="translate(499,412)"></path><path d="M0 0 C1.12921875 0.32484375 1.12921875 0.32484375 2.28125 0.65625 C13.80481193 3.67698953 25.24131904 3.95978016 37 2 C35.1852342 4.36552932 34.26779328 4.95754526 31.27270508 5.43237305 C29.66238403 5.47164917 29.66238403 5.47164917 28.01953125 5.51171875 C26.85615234 5.54716797 25.69277344 5.58261719 24.49414062 5.61914062 C23.27919922 5.64169922 22.06425781 5.66425781 20.8125 5.6875 C19.58595703 5.72166016 18.35941406 5.75582031 17.09570312 5.79101562 C14.06389322 5.8735941 11.03237621 5.94271369 8 6 C8 5.01 8 4.02 8 3 C6.865625 2.87625 5.73125 2.7525 4.5625 2.625 C3.386875 2.41875 2.21125 2.2125 1 2 C0.67 1.34 0.34 0.68 0 0 Z " fill="#E02972" transform="translate(139,358)"></path><path d="M0 0 C0.77601563 0.00644531 1.55203125 0.01289063 2.3515625 0.01953125 C4.375 0.1875 4.375 0.1875 6.375 1.1875 C6.375 1.8475 6.375 2.5075 6.375 3.1875 C7.035 3.1875 7.695 3.1875 8.375 3.1875 C8.045 4.1775 7.715 5.1675 7.375 6.1875 C6.83875 5.8575 6.3025 5.5275 5.75 5.1875 C1.03363778 3.20166327 -3.72984498 4.25508952 -8.625 5.1875 C-8.625 4.1975 -8.625 3.2075 -8.625 2.1875 C-5.61560247 0.44919503 -3.46557335 -0.063748 0 0 Z " fill="#110000" transform="translate(508.625,409.8125)"></path><path d="M0 0 C0.33 1.32 0.66 2.64 1 4 C0.01 4 -0.98 4 -2 4 C-2 4.66 -2 5.32 -2 6 C-8.98892932 9.26830933 -15.47269191 11.78464745 -23.1171875 9.31640625 C-24.77829961 8.61927285 -26.39560275 7.81926668 -28 7 C-25.4493393 5.72466965 -24.69795419 6.27568437 -22 7 C-14.88397347 7.74970228 -9.14501325 6.75738029 -3 3 C-1.29078983 1.44838298 -1.29078983 1.44838298 0 0 Z " fill="#690A07" transform="translate(530,361)"></path><path d="M0 0 C0.66 0 1.32 0 2 0 C2 1.98 2 3.96 2 6 C1.34 6 0.68 6 0 6 C0 8.97 0 11.94 0 15 C-9.9 15 -19.8 15 -30 15 C-30 14.67 -30 14.34 -30 14 C-20.43 14 -10.86 14 -1 14 C-1 9.71 -1 5.42 -1 1 C-0.67 0.67 -0.34 0.34 0 0 Z " fill="#690F0B" transform="translate(310,290)"></path><path d="M0 0 C4.95 0 9.9 0 15 0 C14.67 1.32 14.34 2.64 14 4 C14 3.01 14 2.02 14 1 C13.071875 1.309375 12.14375 1.61875 11.1875 1.9375 C9.125 2.625 7.0625 3.3125 5 4 C5 3.01 5 2.02 5 1 C3.68 1 2.36 1 1 1 C1 9.58 1 18.16 1 27 C0.67 27 0.34 27 0 27 C0 18.09 0 9.18 0 0 Z " fill="#680608" transform="translate(449,409)"></path><path d="M0 0 C3.96 0 7.92 0 12 0 C11.67 0.99 11.34 1.98 11 3 C11 2.34 11 1.68 11 1 C7.7 1 4.4 1 1 1 C1 1.99 1 2.98 1 4 C1.66 4 2.32 4 3 4 C4.54296875 6.1171875 4.54296875 6.1171875 6.1875 8.875 C6.73792969 9.77992188 7.28835938 10.68484375 7.85546875 11.6171875 C8.23316406 12.40351563 8.61085938 13.18984375 9 14 C8.67 14.66 8.34 15.32 8 16 C2.42857143 9.85714286 2.42857143 9.85714286 2 5 C1.01 5 0.02 5 -1 5 C-1.33 6.32 -1.66 7.64 -2 9 C-2 6.69 -2 4.38 -2 2 C-1.34 2 -0.68 2 0 2 C0 1.34 0 0.68 0 0 Z " fill="#5E0505" transform="translate(773,324)"></path><path d="M0 0 C-0.33 0.99 -0.66 1.98 -1 3 C-4.5625 4.1875 -4.5625 4.1875 -8 5 C-8 5.66 -8 6.32 -8 7 C-9.28913487 7.67154933 -10.58140204 8.33708859 -11.875 9 C-12.59429687 9.37125 -13.31359375 9.7425 -14.0546875 10.125 C-16 11 -16 11 -18 11 C-18.66 12.65 -19.32 14.3 -20 16 C-20.66 15.67 -21.32 15.34 -22 15 C-19.10782241 8.49260042 -19.10782241 8.49260042 -15.953125 7.08984375 C-13.9911917 6.62023206 -11.99503477 6.29925522 -10 6 C-10 5.34 -10 4.68 -10 4 C-3.375 0 -3.375 0 0 0 Z " fill="#E5316B" transform="translate(88,246)"></path><path d="M0 0 C1.30420898 -0.04350586 1.30420898 -0.04350586 2.63476562 -0.08789062 C9.54809961 -0.15491027 15.98132547 1.08651238 21.18969727 5.94799805 C21.60147217 6.39828369 22.01324707 6.84856934 22.4375 7.3125 C21.1175 7.6425 19.7975 7.9725 18.4375 8.3125 C18.4375 7.3225 18.4375 6.3325 18.4375 5.3125 C15.1375 4.6525 11.8375 3.9925 8.4375 3.3125 C8.4375 2.6525 8.4375 1.9925 8.4375 1.3125 C5.91641897 1.45474587 3.39569597 1.60120121 0.875 1.75 C0.17052734 1.78931641 -0.53394531 1.82863281 -1.25976562 1.86914062 C-5.7423541 2.13768279 -10.12543497 2.61866197 -14.5625 3.3125 C-9.48950745 -0.06949503 -5.97988753 0.06448477 0 0 Z " fill="#3B928C" transform="translate(258.5625,219.6875)"></path><path d="M0 0 C0.33 0 0.66 0 1 0 C1.41276847 5.02693031 0.52437156 7.37850901 -2.5 11.375 C-3.47453125 12.68597656 -3.47453125 12.68597656 -4.46875 14.0234375 C-5.22671875 15.00183594 -5.22671875 15.00183594 -6 16 C-7.32 15.67 -8.64 15.34 -10 15 C-9.4225 14.319375 -8.845 13.63875 -8.25 12.9375 C-5.79798575 9.73625917 -3.9570882 6.52275877 -2 3 C-1.34 2.01 -0.68 1.02 0 0 Z " fill="#E02872" transform="translate(211,328)"></path><path d="M0 0 C1.670625 0.2475 1.670625 0.2475 3.375 0.5 C10.66327926 1.40297265 17.77105143 1.25720845 25 0 C24.67 0.66 24.34 1.32 24 2 C22.68 2 21.36 2 20 2 C20 2.66 20 3.32 20 4 C6.3667426 4.3690205 6.3667426 4.3690205 0 2 C0 1.34 0 0.68 0 0 Z " fill="#5D1617" transform="translate(246,289)"></path><path d="M0 0 C0.66 0 1.32 0 2 0 C1.67515625 0.78632813 1.3503125 1.57265625 1.015625 2.3828125 C-0.27188981 6.968346 -0.29222444 11.13882587 -0.25 15.875 C-0.25773438 16.73480469 -0.26546875 17.59460938 -0.2734375 18.48046875 C-0.25673578 23.98368553 0.45548422 28.7167754 2 34 C1.34 34 0.68 34 0 34 C0 32.68 0 31.36 0 30 C-0.66 30 -1.32 30 -2 30 C-2 21.42 -2 12.84 -2 4 C-1.34 4 -0.68 4 0 4 C0 2.68 0 1.36 0 0 Z " fill="#572B28" transform="translate(225,238)"></path><path d="M0 0 C0.33 0 0.66 0 1 0 C1 3.3 1 6.6 1 10 C5.95 9.67 10.9 9.34 16 9 C16 9.66 16 10.32 16 11 C12.79619983 13.13586678 11.98060033 13.23132175 8.3125 13.125 C7.50425781 13.10695313 6.69601562 13.08890625 5.86328125 13.0703125 C4.94095703 13.03550781 4.94095703 13.03550781 4 13 C4 12.34 4 11.68 4 11 C2.68 11 1.36 11 0 11 C0 7.37 0 3.74 0 0 Z " fill="#230102" transform="translate(460,334)"></path><path d="M0 0 C0.99 0.33 1.98 0.66 3 1 C1.68 1.33 0.36 1.66 -1 2 C-0.67 1.34 -0.34 0.68 0 0 Z M-1 2 C-1 6.95 -1 11.9 -1 17 C-4 14 -4 14 -4.29296875 11.30078125 C-4.25816406 10.31464844 -4.22335937 9.32851563 -4.1875 8.3125 C-4.16042969 7.31863281 -4.13335938 6.32476562 -4.10546875 5.30078125 C-4.07066406 4.54152344 -4.03585937 3.78226562 -4 3 C-2 2 -2 2 -1 2 Z " fill="#080000" transform="translate(560,413)"></path><path d="M0 0 C0.33 0 0.66 0 1 0 C1 8.25 1 16.5 1 25 C-2.87961647 21.12038353 -5.2157554 18.43416733 -8 14 C-7.67 13.34 -7.34 12.68 -7 12 C-6.16094435 13.12073862 -5.32892169 14.24674547 -4.5 15.375 C-3.80390625 16.31472656 -3.80390625 16.31472656 -3.09375 17.2734375 C-2 19 -2 19 -2 21 C-1.34 21 -0.68 21 0 21 C0 14.07 0 7.14 0 0 Z " fill="#590A08" transform="translate(700,326)"></path><path d="M0 0 C-2.49399165 2.49399165 -3.61442573 2.32932088 -7.0625 2.5625 C-10.33839564 2.53981953 -10.33839564 2.53981953 -13 4 C-15.53049402 4.07313567 -18.03304837 4.09247527 -20.5625 4.0625 C-21.27341797 4.05798828 -21.98433594 4.05347656 -22.71679688 4.04882812 C-24.47790013 4.03700864 -26.23896036 4.01907263 -28 4 C-28 3.67 -28 3.34 -28 3 C-27.37955811 2.91435791 -26.75911621 2.82871582 -26.11987305 2.74047852 C-23.30866566 2.3507567 -20.49808577 1.9566787 -17.6875 1.5625 C-16.71103516 1.42779297 -15.73457031 1.29308594 -14.72851562 1.15429688 C-13.79072266 1.02216797 -12.85292969 0.89003906 -11.88671875 0.75390625 C-11.02264404 0.63345947 -10.15856934 0.5130127 -9.26831055 0.38891602 C-2.49105657 -0.77308652 -2.49105657 -0.77308652 0 0 Z " fill="#562723" transform="translate(220,453)"></path><path d="M0 0 C0.99 0 1.98 0 3 0 C3 6.93 3 13.86 3 21 C2.34 21 1.68 21 1 21 C0.67 14.07 0.34 7.14 0 0 Z " fill="#050101" transform="translate(606,414)"></path><path d="M0 0 C2.375 -0.1875 2.375 -0.1875 5 0 C7 3 7 3 6.625 5.1875 C6.41875 5.785625 6.2125 6.38375 6 7 C4.02 7 2.04 7 0 7 C0 4.69 0 2.38 0 0 Z " fill="#660604" transform="translate(544,400)"></path><path d="M0 0 C0.66 0.33 1.32 0.66 2 1 C1.67 1.99 1.34 2.98 1 4 C0.77357216 7.45751714 0.60586212 10.9087453 0.48242188 14.37109375 C0.39129606 16.25206812 0.20313498 18.12780752 0 20 C-0.66 20.33 -1.32 20.66 -2 21 C-2.05791844 17.87507749 -2.09356746 14.75029234 -2.125 11.625 C-2.14175781 10.73554688 -2.15851563 9.84609375 -2.17578125 8.9296875 C-2.18222656 8.07890625 -2.18867188 7.228125 -2.1953125 6.3515625 C-2.20578613 5.56604004 -2.21625977 4.78051758 -2.22705078 3.97119141 C-2 2 -2 2 0 0 Z " fill="#5A0303" transform="translate(474,415)"></path><path d="M0 0 C1.17773343 3.53320029 0.750497 4.82299105 -0.1875 8.375 C-0.4659375 9.42945313 -0.744375 10.48390625 -1.03125 11.5703125 C-2.58711166 17.07856465 -4.26678535 22.54521277 -6 28 C-7.30415252 23.77528056 -6.26779592 21.2259864 -5 17 C-4.5707788 14.3360293 -4.28265686 11.68524013 -4 9 C-3.34 9 -2.68 9 -2 9 C-1.34 6.03 -0.68 3.06 0 0 Z " fill="#3A8D87" transform="translate(309,347)"></path><path d="M0 0 C0.7940625 -0.01417969 1.588125 -0.02835937 2.40625 -0.04296875 C4.5 0.1875 4.5 0.1875 6.5 2.1875 C6.625 5.3125 6.625 5.3125 6.5 8.1875 C5.51 7.8575 4.52 7.5275 3.5 7.1875 C1.43854893 7.118509 -0.62501401 7.10282273 -2.6875 7.125 C-3.77417969 7.13402344 -4.86085938 7.14304687 -5.98046875 7.15234375 C-6.81191406 7.16394531 -7.64335938 7.17554688 -8.5 7.1875 C-8.5 6.5275 -8.5 5.8675 -8.5 5.1875 C-4.21 5.1875 0.08 5.1875 4.5 5.1875 C4.17 4.1975 3.84 3.2075 3.5 2.1875 C-0.64093698 1.97779441 -0.64093698 1.97779441 -4.5 3.1875 C-5.16 2.5275 -5.82 1.8675 -6.5 1.1875 C-4.14653604 0.01076802 -2.6193967 0.02126134 0 0 Z " fill="#5E070A" transform="translate(628.5,413.8125)"></path><path d="M0 0 C0.99 0 1.98 0 3 0 C2.51814387 4.7221901 0.30336567 7.70054372 -2.5625 11.3125 C-2.98724609 11.86228516 -3.41199219 12.41207031 -3.84960938 12.97851562 C-4.89181259 14.3251827 -5.94483843 15.66346201 -7 17 C-7.33 16.01 -7.66 15.02 -8 14 C-7.34 13.01 -6.68 12.02 -6 11 C-5.34 11 -4.68 11 -4 11 C-4 9.35 -4 7.7 -4 6 C-2.68 5.67 -1.36 5.34 0 5 C0 3.35 0 1.7 0 0 Z " fill="#A7498E" transform="translate(205,405)"></path><path d="M0 0 C0.66 0.33 1.32 0.66 2 1 C1.52949219 1.51046875 1.05898438 2.0209375 0.57421875 2.546875 C-1.48616842 5.75760241 -1.73347307 8.47808397 -2.1875 12.25 C-2.34605469 13.51328125 -2.50460937 14.7765625 -2.66796875 16.078125 C-2.77753906 17.04234375 -2.88710938 18.0065625 -3 19 C-5.55573817 16.44426183 -5.35498461 15.30301573 -5.4375 11.75 C-5.39033111 7.76160811 -5.10270448 5.38708292 -2.5 2.3125 C-1.675 1.549375 -0.85 0.78625 0 0 Z " fill="#590505" transform="translate(505,335)"></path><path d="M0 0 C-2.86148733 1.90765822 -4.35300379 2.4283509 -7.625 3.0625 C-10.59769652 3.47094016 -10.59769652 3.47094016 -13 5 C-14.51469448 5.23192865 -16.03754562 5.41215238 -17.5625 5.5625 C-18.80193359 5.68818359 -18.80193359 5.68818359 -20.06640625 5.81640625 C-21.02353516 5.90728516 -21.02353516 5.90728516 -22 6 C-22 5.34 -22 4.68 -22 4 C-20.33151306 3.52328945 -18.66268469 3.04774268 -16.9921875 2.578125 C-15.17049921 2.0494782 -13.36525472 1.46499245 -11.5625 0.875 C-7.49736935 -0.12345314 -4.16859302 -0.14626642 0 0 Z " fill="#E43268" transform="translate(116,238)"></path><path d="M0 0 C0.99 0 1.98 0 3 0 C1.56835889 3.65938172 0.01065704 7.23988068 -1.625 10.8125 C-2.29402344 12.27623047 -2.29402344 12.27623047 -2.9765625 13.76953125 C-3.31429688 14.50558594 -3.65203125 15.24164063 -4 16 C-5.33332095 13.3333581 -4.67102033 11.83319697 -4 9 C-3.34 9 -2.68 9 -2 9 C-2.33 7.35 -2.66 5.7 -3 4 C-2.01 4 -1.02 4 0 4 C0 2.68 0 1.36 0 0 Z " fill="#3A9088" transform="translate(299,376)"></path><path d="M0 0 C3.96 0 7.92 0 12 0 C8.55549263 2.29633824 6.06187717 2.54016485 2 3 C1.67 6.96 1.34 10.92 1 15 C0.67 15 0.34 15 0 15 C0 10.05 0 5.1 0 0 Z " fill="#6B080D" transform="translate(420,353)"></path><path d="M0 0 C0.66 0.33 1.32 0.66 2 1 C2.55353075 15.78132118 2.55353075 15.78132118 -1 22 C-1.99 21.67 -2.98 21.34 -4 21 C-3.34 19.948125 -2.68 18.89625 -2 17.8125 C0.91696794 12.11208731 0.34262045 6.24330593 0 0 Z " fill="#6C0406" transform="translate(535,339)"></path><path d="M0 0 C1.32 0.33 2.64 0.66 4 1 C3.54625 1.433125 3.0925 1.86625 2.625 2.3125 C0.79975666 4.10798342 0.79975666 4.10798342 -1 7 C-1.66 7 -2.32 7 -3 7 C-2.67 11.62 -2.34 16.24 -2 21 C-2.66 20.67 -3.32 20.34 -4 20 C-4.68912276 6.02612175 -4.68912276 6.02612175 -2 2.125 C-1.34 1.42375 -0.68 0.7225 0 0 Z " fill="#5E0508" transform="translate(372,334)"></path><path d="M0 0 C1.03115279 3.26913624 0.9638984 5.86041348 0.5625 9.25 C0.46066406 10.14203125 0.35882813 11.0340625 0.25390625 11.953125 C0.17011719 12.62859375 0.08632812 13.3040625 0 14 C-0.66 14 -1.32 14 -2 14 C-2.12375 14.804375 -2.2475 15.60875 -2.375 16.4375 C-2.684375 17.7059375 -2.684375 17.7059375 -3 19 C-3.66 19.33 -4.32 19.66 -5 20 C-4.56432506 17.45856287 -4.0808127 15.18856297 -3.0625 12.8125 C-1.49318422 8.65842883 -0.79564534 4.35912072 0 0 Z " fill="#4392A1" transform="translate(221,368)"></path><path d="M0 0 C4.22797927 1.76165803 4.22797927 1.76165803 6 4 C6.54825364 8.04202683 6.34434166 11.94442049 6 16 C5.34 16 4.68 16 4 16 C3.96261719 15.24074219 3.92523437 14.48148437 3.88671875 13.69921875 C3.82097656 12.70535156 3.75523437 11.71148437 3.6875 10.6875 C3.62949219 9.70136719 3.57148437 8.71523438 3.51171875 7.69921875 C2.94340105 4.70145133 2.23500395 3.9473895 0 2 C0 1.34 0 0.68 0 0 Z " fill="#570405" transform="translate(573,328)"></path><path d="M0 0 C0 0.66 0 1.32 0 2 C1.32 2.66 2.64 3.32 4 4 C3.01 4.495 3.01 4.495 2 5 C0.05210965 4.273668 -1.8942498 3.54222449 -3.82421875 2.76953125 C-6.8780114 1.68946455 -9.78500511 1.3348953 -13 1 C-13 0.67 -13 0.34 -13 0 C-8.34462607 -0.83796731 -4.62921525 -1.0161692 0 0 Z " fill="#D72A56" transform="translate(178,249)"></path><path d="M0 0 C0.33 0.99 0.66 1.98 1 3 C1.99 3 2.98 3 4 3 C4 2.01 4 1.02 4 0 C6.97 0.495 6.97 0.495 10 1 C9.67 2.32 9.34 3.64 9 5 C6.03 4.67 3.06 4.34 0 4 C0 2.68 0 1.36 0 0 Z " fill="#250000" transform="translate(529,432)"></path><path d="M0 0 C0 3.98919362 -1.17179136 6.46966608 -3 10 C-5.5625 12 -5.5625 12 -8 13 C-8.66 12.67 -9.32 12.34 -10 12 C-8.71034824 10.62437146 -7.37310707 9.29233607 -6 8 C-5.34 8 -4.68 8 -4 8 C-3.896875 7.236875 -3.79375 6.47375 -3.6875 5.6875 C-2.95635961 2.82940576 -2.23048087 1.84257115 0 0 Z " fill="#552D2A" transform="translate(284,406)"></path><path d="M0 0 C2.3828125 -0.29296875 2.3828125 -0.29296875 5.125 -0.1875 C6.03507813 -0.16042969 6.94515625 -0.13335937 7.8828125 -0.10546875 C8.58148437 -0.07066406 9.28015625 -0.03585937 10 0 C9.67 2.31 9.34 4.62 9 7 C8.34 7 7.68 7 7 7 C7.66 5.02 8.32 3.04 9 1 C6.36 1 3.72 1 1 1 C1 2.32 1 3.64 1 5 C-0.65 5.66 -2.3 6.32 -4 7 C-2.79618552 4.50638429 -1.54571278 2.31856917 0 0 Z " fill="#380201" transform="translate(804,325)"></path><path d="M0 0 C0 0.66 0 1.32 0 2 C-1.0725 2.53625 -2.145 3.0725 -3.25 3.625 C-7.02163759 5.73894204 -8.68353282 8.35983728 -11 12 C-11.99 12 -12.98 12 -14 12 C-12.20745208 6.62235624 -9.80991736 4.01355372 -4.875 1.25 C-2 0 -2 0 0 0 Z " fill="#3F8683" transform="translate(244,223)"></path><path d="M0 0 C0.66 0.99 1.32 1.98 2 3 C0.02 5.64 -1.96 8.28 -4 11 C-4.99 10.67 -5.98 10.34 -7 10 C-6.67 9.01 -6.34 8.02 -6 7 C-5.34 7 -4.68 7 -4 7 C-3.71125 6.401875 -3.4225 5.80375 -3.125 5.1875 C-2 3 -2 3 0 0 Z " fill="#329EA1" transform="translate(202,415)"></path><path d="M0 0 C0.69287109 0.00451172 1.38574219 0.00902344 2.09960938 0.01367188 C3.79561068 0.02536844 5.49156703 0.04330076 7.1875 0.0625 C7.1875 0.3925 7.1875 0.7225 7.1875 1.0625 C6.34445313 1.12308594 5.50140625 1.18367187 4.6328125 1.24609375 C3.53710938 1.32988281 2.44140625 1.41367188 1.3125 1.5 C0.22195312 1.58121094 -0.86859375 1.66242188 -1.9921875 1.74609375 C-4.75978971 1.89251703 -4.75978971 1.89251703 -6.8125 3.0625 C-8.35273996 3.13200541 -9.89584988 3.14702357 -11.4375 3.125 C-12.66339844 3.11146484 -12.66339844 3.11146484 -13.9140625 3.09765625 C-14.85378906 3.08025391 -14.85378906 3.08025391 -15.8125 3.0625 C-10.78198894 -0.29117404 -5.8984437 -0.07337777 0 0 Z " fill="#A20529" transform="translate(157.8125,248.9375)"></path><path d="M0 0 C4.00940142 -0.51973722 6.14408897 -0.59913772 9.5 1.75 C11 4 11 4 10.75 6.25 C10.5025 6.8275 10.255 7.405 10 8 C10 7.34 10 6.68 10 6 C9.34 6 8.68 6 8 6 C7.67 4.68 7.34 3.36 7 2 C2.545 2.495 2.545 2.495 -2 3 C-1.34 2.01 -0.68 1.02 0 0 Z " fill="#5A0704" transform="translate(565,413)"></path><path d="M0 0 C0 0.66 0 1.32 0 2 C2.64 2 5.28 2 8 2 C8 2.33 8 2.66 8 3 C3.71 3.66 -0.58 4.32 -5 5 C-5 3.68 -5 2.36 -5 1 C-2 0 -2 0 0 0 Z " fill="#2F0203" transform="translate(624,411)"></path><path d="M0 0 C0.33 0 0.66 0 1 0 C1 2.64 1 5.28 1 8 C0.34 8 -0.32 8 -1 8 C-1.66 11.3 -2.32 14.6 -3 18 C-3.66 18 -4.32 18 -5 18 C-4.35702496 15.37426939 -3.71075589 12.74942697 -3.0625 10.125 C-2.88009766 9.37863281 -2.69769531 8.63226563 -2.50976562 7.86328125 C-1.11328125 2.2265625 -1.11328125 2.2265625 0 0 Z " fill="#512622" transform="translate(308,356)"></path><path d="M0 0 C0.33 0.66 0.66 1.32 1 2 C3.02463255 2.65213292 3.02463255 2.65213292 5 3 C4.34 3 3.68 3 3 3 C3 3.66 3 4.32 3 5 C-0.465 6.485 -0.465 6.485 -4 8 C-3.40072174 4.64404172 -2.15377564 2.62198774 0 0 Z " fill="#EA5E46" transform="translate(75,247)"></path><path d="M0 0 C1.65 0 3.3 0 5 0 C4.09373216 1.2989839 3.17450463 2.58893167 2.25 3.875 C1.73953125 4.59429687 1.2290625 5.31359375 0.703125 6.0546875 C-1.07503547 8.08570565 -2.52701607 8.97855012 -5 10 C-5 10.66 -5 11.32 -5 12 C-5.66 11.67 -6.32 11.34 -7 11 C-6.57847656 10.54109375 -6.15695313 10.0821875 -5.72265625 9.609375 C-4.90087891 8.68898438 -4.90087891 8.68898438 -4.0625 7.75 C-3.51722656 7.14671875 -2.97195312 6.5434375 -2.41015625 5.921875 C-0.93787201 3.91532695 -0.42470811 2.42997551 0 0 Z " fill="#9E5092" transform="translate(191,424)"></path><path d="M0 0 C5.72398793 0.74660712 11.34853777 1.82877141 17 3 C17 3.33 17 3.66 17 4 C10.48208608 4.3540919 5.82478551 4.03901852 0 1 C0 0.67 0 0.34 0 0 Z " fill="#200000" transform="translate(501,365)"></path><path d="M0 0 C0.8125 1.625 0.8125 1.625 1 4 C-0.66666667 6 -2.33333333 8 -4 10 C-3.96624167 12.32171592 -3.96624167 12.32171592 -3 14 C-3.33 13.34 -3.66 12.68 -4 12 C-4.66 12 -5.32 12 -6 12 C-6.33 10.68 -6.66 9.36 -7 8 C-6.21625 7.4225 -5.4325 6.845 -4.625 6.25 C-2.19952756 4.17102363 -1.14305583 2.90959667 0 0 Z " fill="#65040A" transform="translate(576,344)"></path><path d="M0 0 C2.89537207 2.31858198 3.92206337 3.42083791 4.42578125 7.1640625 C4.38839844 8.30617188 4.35101563 9.44828125 4.3125 10.625 C4.28800781 11.77226562 4.26351563 12.91953125 4.23828125 14.1015625 C4 17 4 17 3 19 C2.34 19 1.68 19 1 19 C1.66 14.38 2.32 9.76 3 5 C2.01 4.67 1.02 4.34 0 4 C0 2.68 0 1.36 0 0 Z " fill="#3A0302" transform="translate(482,329)"></path><path d="M0 0 C-0.375 2.4375 -0.375 2.4375 -1 5 C-3.70879335 6.35439668 -6.00933268 6.06501451 -9 6 C-9 5.34 -9 4.68 -9 4 C-7.68 4 -6.36 4 -5 4 C-5 3.34 -5 2.68 -5 2 C-2 0 -2 0 0 0 Z " fill="#0C0000" transform="translate(577,430)"></path><path d="M0 0 C0.33 0 0.66 0 1 0 C1.6319296 6.00333124 -0.62455877 10.63404795 -3 16 C-3.33 16 -3.66 16 -4 16 C-4.17835515 11.45194365 -3.99785435 8.1205746 -2 4 C-1.34 4 -0.68 4 0 4 C0 2.68 0 1.36 0 0 Z " fill="#AE488F" transform="translate(219,372)"></path><path d="M0 0 C0.33 1.32 0.66 2.64 1 4 C0.01 4 -0.98 4 -2 4 C-2 4.66 -2 5.32 -2 6 C-5.4019487 8.09350689 -8.05272412 8.17942163 -12 8 C-9.85321187 6.25076522 -8.03074239 5.01199703 -5.4375 4 C-2.96935799 2.98742892 -1.72410817 1.99633578 0 0 Z " fill="#5B0504" transform="translate(530,361)"></path><path d="M0 0 C1.65 0 3.3 0 5 0 C4.67 1.65 4.34 3.3 4 5 C2.02 5 0.04 5 -2 5 C-2.33 4.34 -2.66 3.68 -3 3 C-2.01 3 -1.02 3 0 3 C0 2.01 0 1.02 0 0 Z " fill="#240000" transform="translate(409,432)"></path><path d="M0 0 C0.33 0.66 0.66 1.32 1 2 C-0.25 4.5625 -0.25 4.5625 -2 7 C-5.47325181 8.1577506 -8.36067448 8.06866652 -12 8 C-9.63716998 6.81858499 -7.27592754 5.66692667 -4.875 4.5625 C-1.77452368 3.16681716 -1.77452368 3.16681716 0 0 Z " fill="#670507" transform="translate(660,361)"></path><path d="M0 0 C2.04159095 -0.0272616 4.08328963 -0.04651345 6.125 -0.0625 C7.26195312 -0.07410156 8.39890625 -0.08570313 9.5703125 -0.09765625 C12.8129156 -0.005327 15.81932612 0.38610094 19 1 C19 1.99 19 2.98 19 4 C18.0925 3.67 17.185 3.34 16.25 3 C10.93816204 1.44478146 5.47979305 1.83803567 0 2 C0 1.34 0 0.68 0 0 Z " fill="#6E0408" transform="translate(373,323)"></path><path d="M0 0 C0.33 0.66 0.66 1.32 1 2 C0 4.5625 0 4.5625 -2 7 C-5.6875 7.8125 -5.6875 7.8125 -9 8 C-7.88625 7.13375 -7.88625 7.13375 -6.75 6.25 C-4.33912357 4.27746474 -2.15957299 2.23955718 0 0 Z " fill="#601B1F" transform="translate(285,279)"></path><path d="M0 0 C0.66 0.33 1.32 0.66 2 1 C0.90398831 2.00893131 -0.20213918 3.00688225 -1.3125 4 C-1.92738281 4.556875 -2.54226562 5.11375 -3.17578125 5.6875 C-5 7 -5 7 -8 7 C-8 7.66 -8 8.32 -8 9 C-9.32 8.67 -10.64 8.34 -12 8 C-9 6 -9 6 -6 6 C-5.67 5.01 -5.34 4.02 -5 3 C-2.5625 1.25 -2.5625 1.25 0 0 Z " fill="#503533" transform="translate(254,434)"></path><path d="M0 0 C2.64 0.33 5.28 0.66 8 1 C8 1.66 8 2.32 8 3 C9.98 3.66 11.96 4.32 14 5 C13.67 5.66 13.34 6.32 13 7 C10.03 6.01 7.06 5.02 4 4 C4 3.34 4 2.68 4 2 C2.68 1.67 1.36 1.34 0 1 C0 0.67 0 0.34 0 0 Z " fill="#EF4B4D" transform="translate(162,242)"></path><path d="M0 0 C2.93804996 -0.08086376 5.87388075 -0.1404283 8.8125 -0.1875 C9.64587891 -0.21263672 10.47925781 -0.23777344 11.33789062 -0.26367188 C12.54155273 -0.27817383 12.54155273 -0.27817383 13.76953125 -0.29296875 C14.87711792 -0.31653442 14.87711792 -0.31653442 16.00708008 -0.34057617 C18 0 18 0 21 3 C14.07 2.34 7.14 1.68 0 1 C0 0.67 0 0.34 0 0 Z " fill="#5A3334" transform="translate(254,219)"></path><path d="M0 0 C0.66 0 1.32 0 2 0 C2.309375 1.093125 2.61875 2.18625 2.9375 3.3125 C3.58337897 5.55407994 4.2623117 7.7869351 5 10 C3.68 10 2.36 10 1 10 C-0.1577506 6.52674819 -0.06866652 3.63932552 0 0 Z " fill="#070000" transform="translate(499,425)"></path><path d="M0 0 C1.32 0.33 2.64 0.66 4 1 C3.67 1.33 3.34 1.66 3 2 C5.97 2.495 5.97 2.495 9 3 C9 3.33 9 3.66 9 4 C7.37585622 4.19477739 5.75063577 4.38059458 4.125 4.5625 C3.22007812 4.66691406 2.31515625 4.77132813 1.3828125 4.87890625 C-1 5 -1 5 -3 4 C-3 3.34 -3 2.68 -3 2 C-2.01 2 -1.02 2 0 2 C0 1.34 0 0.68 0 0 Z " fill="#2B0303" transform="translate(475,410)"></path><path d="M0 0 C2.31 0 4.62 0 7 0 C7 2.31 7 4.62 7 7 C7.99 7.33 8.98 7.66 10 8 C8.35 8 6.7 8 5 8 C4.9175 7.05125 4.835 6.1025 4.75 5.125 C4.34925077 1.89538209 4.34925077 1.89538209 1.9375 0.625 C1.298125 0.41875 0.65875 0.2125 0 0 Z " fill="#660805" transform="translate(528,402)"></path><path d="M0 0 C0.33 0 0.66 0 1 0 C1.03738281 0.67546875 1.07476562 1.3509375 1.11328125 2.046875 C1.17902344 2.93890625 1.24476563 3.8309375 1.3125 4.75 C1.37050781 5.63171875 1.42851562 6.5134375 1.48828125 7.421875 C2.0641181 10.32303774 3.07596148 11.79225607 5 14 C3.02 14 1.04 14 -1 14 C-0.67 9.38 -0.34 4.76 0 0 Z " fill="#1F0102" transform="translate(367,344)"></path><path d="M0 0 C0.66 0.33 1.32 0.66 2 1 C1.21085079 2.60540659 0.41858235 4.20928016 -0.375 5.8125 C-0.81585938 6.70582031 -1.25671875 7.59914063 -1.7109375 8.51953125 C-3 11 -3 11 -5 14 C-4.58669586 8.00708997 -3.68096635 4.74963401 0 0 Z " fill="#920419" transform="translate(65,260)"></path><path d="M0 0 C0.66 0.33 1.32 0.66 2 1 C0.95600254 2.34786992 -0.11102066 3.67792729 -1.1875 5 C-1.77917969 5.7425 -2.37085938 6.485 -2.98046875 7.25 C-5 9 -5 9 -7.73828125 9.25 C-8.48464844 9.1675 -9.23101562 9.085 -10 9 C-7.86474649 6.8121864 -5.6425721 4.79086311 -3.3125 2.8125 C-2.68988281 2.28269531 -2.06726563 1.75289063 -1.42578125 1.20703125 C-0.95527344 0.80871094 -0.48476563 0.41039062 0 0 Z " fill="#552C2D" transform="translate(266,425)"></path><path d="M0 0 C0.33 0.99 0.66 1.98 1 3 C-0.125 4.5 -0.125 4.5 -2 6 C-5.1875 6.1875 -5.1875 6.1875 -8 6 C-5.38485683 3.87961365 -2.80362384 1.86908256 0 0 Z " fill="#DC256E" transform="translate(194,350)"></path><path d="M0 0 C0.95412881 2.57614778 1.01981848 3.91676239 0.375 6.625 C-1.33984343 9.58700229 -2.77611813 10.06677104 -6 11 C-5.65066406 10.37351562 -5.30132812 9.74703125 -4.94140625 9.1015625 C-4.48636719 8.28429687 -4.03132813 7.46703125 -3.5625 6.625 C-3.11003906 5.81289063 -2.65757812 5.00078125 -2.19140625 4.1640625 C-1.4349464 2.79003378 -0.70145369 1.40290739 0 0 Z " fill="#5B1E20" transform="translate(292,268)"></path><path d="M0 0 C0 0.33 0 0.66 0 1 C-3.96 1.66 -7.92 2.32 -12 3 C-12 2.01 -12 1.02 -12 0 C-7.74433453 -1.16063604 -4.3164922 -0.76173392 0 0 Z " fill="#5A0607" transform="translate(512,409)"></path><path d="M0 0 C0.33 0 0.66 0 1 0 C1 1.65 1 3.3 1 5 C-0.32 5.33 -1.64 5.66 -3 6 C-3 5.67 -3 5.34 -3 5 C-5.64 4.67 -8.28 4.34 -11 4 C-10.67 3.34 -10.34 2.68 -10 2 C-7.03 2 -4.06 2 -1 2 C-0.67 1.34 -0.34 0.68 0 0 Z " fill="#330102" transform="translate(634,430)"></path><path d="M0 0 C0.598125 0.763125 1.19625 1.52625 1.8125 2.3125 C3.46959332 4.3483575 5.10297674 6.1978279 7 8 C4.36 7.67 1.72 7.34 -1 7 C-0.67 4.69 -0.34 2.38 0 0 Z " fill="#6C0305" transform="translate(555,428)"></path><path d="M0 0 C0.33 0.66 0.66 1.32 1 2 C-0.25 5.0625 -0.25 5.0625 -2 8 C-2.99 8.33 -3.98 8.66 -5 9 C-3.90931332 5.22454612 -3.0916909 2.52956528 0 0 Z " fill="#65140C" transform="translate(288,402)"></path><path d="M0 0 C0.98120464 3.05263664 0.98120464 4.94736336 0 8 C-0.99 8 -1.98 8 -3 8 C-3.33 8.99 -3.66 9.98 -4 11 C-4.66 10.67 -5.32 10.34 -6 10 C-5.65066406 9.52949219 -5.30132812 9.05898438 -4.94140625 8.57421875 C-4.48636719 7.95160156 -4.03132813 7.32898438 -3.5625 6.6875 C-2.88380859 5.76517578 -2.88380859 5.76517578 -2.19140625 4.82421875 C-0.82663692 2.90322899 -0.82663692 2.90322899 0 0 Z " fill="#520509" transform="translate(401,353)"></path><path d="M0 0 C0.33 0.99 0.66 1.98 1 3 C0.67 3.33 0.34 3.66 0 4 C-0.23481693 6.18292774 -0.41363323 8.37203174 -0.5625 10.5625 C-0.64628906 11.76003906 -0.73007812 12.95757812 -0.81640625 14.19140625 C-0.87699219 15.11824219 -0.93757813 16.04507812 -1 17 C-1.33 17 -1.66 17 -2 17 C-2.05383848 14.54137599 -2.09359038 12.0839245 -2.125 9.625 C-2.14175781 8.92632812 -2.15851563 8.22765625 -2.17578125 7.5078125 C-2.19344267 5.67102514 -2.10303261 3.83398037 -2 2 C-1.34 1.34 -0.68 0.68 0 0 Z " fill="#6C0609" transform="translate(359,335)"></path><path d="M0 0 C1.32 0 2.64 0 4 0 C4 1.65 4 3.3 4 5 C2.68 5 1.36 5 0 5 C0 3.35 0 1.7 0 0 Z " fill="#200000" transform="translate(544,401)"></path><path d="M0 0 C3.3 0 6.6 0 10 0 C10 0.33 10 0.66 10 1 C6.04 1.99 2.08 2.98 -2 4 C-1.34 2.68 -0.68 1.36 0 0 Z " fill="#DF2876" transform="translate(140,249)"></path><path d="M0 0 C2 2 2 2 2 5 C-1.3 5.33 -4.6 5.66 -8 6 C-8 5.34 -8 4.68 -8 4 C-4.535 3.505 -4.535 3.505 -1 3 C-0.67 2.01 -0.34 1.02 0 0 Z " fill="#070000" transform="translate(440,418)"></path><path d="M0 0 C0.66 0 1.32 0 2 0 C2 1.32 2 2.64 2 4 C1.34 4 0.68 4 0 4 C0 6.64 0 9.28 0 12 C-0.33 12 -0.66 12 -1 12 C-1.02687279 10.18757948 -1.04633715 8.37504767 -1.0625 6.5625 C-1.07410156 5.55316406 -1.08570313 4.54382813 -1.09765625 3.50390625 C-1 1 -1 1 0 0 Z " fill="#650505" transform="translate(561,416)"></path><path d="M0 0 C1.22589844 0.01353516 1.22589844 0.01353516 2.4765625 0.02734375 C3.41628906 0.04474609 3.41628906 0.04474609 4.375 0.0625 C4.705 1.7125 5.035 3.3625 5.375 5.0625 C4.715 4.0725 4.055 3.0825 3.375 2.0625 C0.29578868 1.80589906 -1.83636993 1.66818496 -4.625 3.0625 C-5.285 2.4025 -5.945 1.7425 -6.625 1.0625 C-4.21954362 -0.14022819 -2.67503047 -0.03821472 0 0 Z " fill="#6C0808" transform="translate(628.625,413.9375)"></path><path d="M0 0 C3.55420724 0.29618394 4.80337043 0.80337043 7.375 3.375 C8.179375 4.674375 8.179375 4.674375 9 6 C8.67 6.99 8.34 7.98 8 9 C7.59007812 8.51789063 7.18015625 8.03578125 6.7578125 7.5390625 C5.94957031 6.59160156 5.94957031 6.59160156 5.125 5.625 C4.59132813 4.99851562 4.05765625 4.37203125 3.5078125 3.7265625 C2.38567993 2.44163349 1.20628025 1.20628025 0 0 Z " fill="#68070B" transform="translate(392,327)"></path><path d="M0 0 C-2.31 1.65 -4.62 3.3 -7 5 C-7 3.35 -7 1.7 -7 0 C-4 -1 -4 -1 0 0 Z " fill="#DC286E" transform="translate(127,260)"></path><path d="M0 0 C-2.97 2.475 -2.97 2.475 -6 5 C-6 3.35 -6 1.7 -6 0 C-3 -1 -3 -1 0 0 Z " fill="#309F9F" transform="translate(275,418)"></path><path d="M0 0 C1.65 0 3.3 0 5 0 C5.33 0.99 5.66 1.98 6 3 C3.69 3 1.38 3 -1 3 C-0.67 2.01 -0.34 1.02 0 0 Z " fill="#750503" transform="translate(504,416)"></path><path d="M0 0 C0.99 0 1.98 0 3 0 C2.6875 2.375 2.6875 2.375 2 5 C1.01 5.66 0.02 6.32 -1 7 C-0.67 4.69 -0.34 2.38 0 0 Z " fill="#895A92" transform="translate(205,405)"></path><path d="M0 0 C4.455 1.98 4.455 1.98 9 4 C4.70600835 5.07349791 3.80504787 4.79682816 0 3 C0 2.01 0 1.02 0 0 Z " fill="#DD2571" transform="translate(130,353)"></path><path d="M0 0 C1.875 0.625 1.875 0.625 4 2 C5.25 5.125 5.25 5.125 6 8 C2.24623848 6.74874616 1.75926711 5.4347596 0 2 C0 1.34 0 0.68 0 0 Z " fill="#550304" transform="translate(786,329)"></path><path d="M0 0 C0.33 0 0.66 0 1 0 C1.33 2.64 1.66 5.28 2 8 C0.02 8.99 0.02 8.99 -2 10 C-1.34 6.7 -0.68 3.4 0 0 Z " fill="#DF2770" transform="translate(214,316)"></path><path d="M0 0 C0.66 0.33 1.32 0.66 2 1 C2 1.66 2 2.32 2 3 C1.34 3 0.68 3 0 3 C-0.66 4.65 -1.32 6.3 -2 8 C-2.66 7.67 -3.32 7.34 -4 7 C-2.68 4.69 -1.36 2.38 0 0 Z " fill="#D2325B" transform="translate(70,254)"></path></svg>