<svg xmlns="http://www.w3.org/2000/svg" width="195.153" height="37.543" viewBox="0 0 195.153 37.543"><g id="SVG_SeamlessAI_Blue" transform="translate(-2.585 -2.069)"><path id="Path_13232" d="M11.746,13.034c.371,1.482,1.235,2.841,2.717,2.841s2.347-1.359,2.717-2.964a1.17,1.17,0,0,0,.618-1.359.679.679,0,0,0-.371-.618A3.166,3.166,0,0,0,14.463,7.6,3.463,3.463,0,0,0,11.5,11.058a.565.565,0,0,0-.494.618A1.331,1.331,0,0,0,11.746,13.034Z" transform="translate(1.973 1.3)" fill="#0065f2"></path><path id="Path_13233" d="M20.774,16.059A28.763,28.763,0,0,0,17.316,14.7h-.124c0,.741-1.112,5.064-1.112,5.064l-.618-3.458.371-.865-.618-.494h-.371l-.494.618.371.865L14.1,19.887s-.988-4.446-1.112-5.064H12.87a16.779,16.779,0,0,0-3.458,1.359A3.831,3.831,0,0,0,8.3,18.9a9.078,9.078,0,0,0,2.347,1.976v-.865a1.992,1.992,0,0,1,.371-1.112v2.223a8.548,8.548,0,0,0,4.2,1.112,8.275,8.275,0,0,0,3.829-.865V19.023a1.66,1.66,0,0,1,.247,1.112v1.235a11.744,11.744,0,0,0,2.47-1.853v-.124A4.332,4.332,0,0,0,20.774,16.059Z" transform="translate(1.343 2.969)" fill="#0065f2"></path><path id="Path_13234" d="M32,36.07l-6.3-9.88a13.731,13.731,0,0,0,.988-19.513,13.775,13.775,0,1,0-4.94,21.983l6.3,9.88a2.379,2.379,0,0,0,3.211.741A2.292,2.292,0,0,0,32,36.07ZM21.746,24.214A9.714,9.714,0,0,1,8.161,21.127a9.851,9.851,0,1,1,16.673-10.5,10.484,10.484,0,0,1,1.359,7.41A11.176,11.176,0,0,1,21.746,24.214Z" transform="translate(0 0)" fill="#0065f2"></path><path id="Path_13235" d="M30.3,21.367,32.894,18.4a6.2,6.2,0,0,0,5.064,2.347c1.976,0,3.088-.865,3.088-2.223,0-1.112-.741-1.853-2.347-2.223l-2.347-.494c-3.335-.741-5.064-2.594-5.064-5.311,0-3.582,3.088-6.3,7.657-6.3,2.841,0,5.558,1.112,6.793,2.841L43.021,9.758a5.206,5.206,0,0,0-4.2-2.1c-1.853,0-2.964.988-2.964,2.347s.741,1.853,2.347,2.223l2.347.494c3.335.741,5.187,2.594,5.187,5.311,0,3.582-3.088,6.3-7.781,6.3C34.746,24.454,31.659,23.343,30.3,21.367Z" transform="translate(6.514 0.501)" fill="#0065f2"></path><path id="Path_13236" d="M44.3,16.393A7.023,7.023,0,0,1,51.093,9.6c3.582,0,6.422,2.964,6.422,7.41H48.252A3.269,3.269,0,0,0,51.587,20.1h.124a3.106,3.106,0,0,0,2.964-1.729l2.841,1.482a6.1,6.1,0,0,1-5.928,3.211A6.912,6.912,0,0,1,44.3,16.516Zm4.076-1.482h5.187a2.586,2.586,0,0,0-2.47-2.594h0A2.637,2.637,0,0,0,48.376,14.911Z" transform="translate(9.804 1.77)" fill="#0065f2"></path><path id="Path_13237" d="M56.5,19.6c0-2.964,3.088-3.582,5.8-3.952,1.606-.247,2.347-.371,2.347-1.482s-.618-1.482-1.976-1.482a2.93,2.93,0,0,0-2.841,1.482l-2.717-1.606c.988-1.976,3.335-2.964,6.052-2.964,3.335,0,5.558,1.606,5.558,5.064v8.151H64.775V20.962a4.215,4.215,0,0,1-3.952,2.1C58.106,23.185,56.5,21.827,56.5,19.6Zm8.275-1.482V16.64c-.37.618-.988.741-1.976.988s-2.347.371-2.347,1.606c0,.865.618,1.482,1.729,1.482a2.444,2.444,0,0,0,2.594-2.1Z" transform="translate(12.671 1.77)" fill="#0065f2"></path><path id="Path_13238" d="M69.4,9.972h1.359a6.2,6.2,0,0,0,2.594-.247v2.347a5.017,5.017,0,0,1,4.57-2.47A3.914,3.914,0,0,1,82,12.319a5.145,5.145,0,0,1,4.817-2.594c2.717,0,4.446,1.606,4.446,4.693V22.94H87.184V15.283c0-1.606-.618-2.223-1.853-2.223-1.853,0-2.964,1.359-2.964,3.582v6.175H78.292V15.283c0-1.606-.618-2.223-1.853-2.223-1.729,0-2.964,1.359-2.964,3.582v6.175H69.4V9.972Z" transform="translate(15.703 1.768)" fill="#0065f2"></path><path id="Path_13239" d="M90.2,4.547h1.359A10.132,10.132,0,0,0,94.276,4.3V24.06H90.2S90.2,4.547,90.2,4.547Z" transform="translate(20.592 0.524)" fill="#0065f2"></path><path id="Path_13240" d="M95.6,16.393A7.023,7.023,0,0,1,102.393,9.6c3.582,0,6.546,2.964,6.546,7.41H99.676A3.269,3.269,0,0,0,103.01,20.1h0a3,3,0,0,0,2.964-1.729l2.841,1.482a6.1,6.1,0,0,1-5.928,3.211A6.912,6.912,0,0,1,95.6,16.516Zm4.076-1.482h5.187a2.5,2.5,0,0,0-2.47-2.594h0A2.8,2.8,0,0,0,99.676,14.911Z" transform="translate(21.861 1.77)" fill="#0065f2"></path><path id="Path_13241" d="M107.7,21.235l1.976-2.347a4.4,4.4,0,0,0,3.582,1.359c1.482,0,2.223-.494,2.223-1.235,0-.494-.37-.865-1.482-1.112l-2.1-.371c-2.47-.371-3.705-1.853-3.705-3.582,0-2.594,2.594-4.446,5.928-4.446a6,6,0,0,1,5.064,2.1l-2.1,2.223A3.747,3.747,0,0,0,114,12.343c-1.235,0-1.976.494-1.976,1.235,0,.618.371.865,1.853,1.235l1.729.371c2.47.494,3.705,1.729,3.705,3.582,0,2.717-2.717,4.446-6.422,4.446C110.664,23.211,108.565,22.47,107.7,21.235Z" transform="translate(24.705 1.744)" fill="#0065f2"></path><path id="Path_13242" d="M118.5,21.235l1.976-2.347a4.4,4.4,0,0,0,3.582,1.359c1.482,0,2.223-.494,2.223-1.235,0-.494-.37-.865-1.482-1.112l-2.1-.371c-2.47-.371-3.705-1.853-3.705-3.582,0-2.594,2.594-4.446,5.928-4.446a6,6,0,0,1,5.064,2.1l-2.1,2.223a3.747,3.747,0,0,0-3.088-1.482c-1.235,0-1.976.494-1.976,1.235,0,.618.371.865,1.853,1.235l1.729.371c2.47.494,3.705,1.729,3.705,3.582,0,2.717-2.717,4.446-6.422,4.446C121.464,23.211,119.365,22.47,118.5,21.235Z" transform="translate(27.243 1.744)" fill="#0065f2"></path><path id="Path_13243" d="M130.1,19.147a2.347,2.347,0,1,1,2.347,2.347h0a2.271,2.271,0,0,1-2.347-2.347Z" transform="translate(29.969 3.462)" fill="#0065f2"></path><path id="Path_13244" d="M142.54,4.5h4.446l7.163,19.513h-4.693l-1.235-3.829h-7.04l-1.235,3.829H135.5Zm-.494,12.474h5.187l-2.594-7.657Z" transform="translate(31.238 0.571)" fill="#0065f2"></path><path id="Path_13245" d="M152.3,4.5h4.446V24.013H152.3Z" transform="translate(35.187 0.571)" fill="#0065f2"></path><g id="Group_951" transform="translate(194.032 4.701)"><path id="Path_13246" d="M161.305,6.053a1.853,1.853,0,1,1-3.705,0A1.9,1.9,0,0,1,159.453,4.2,1.819,1.819,0,0,1,161.305,6.053Zm-3.211,0a1.483,1.483,0,0,0,1.359,1.482,1.4,1.4,0,0,0,1.359-1.482,1.364,1.364,0,1,0-2.717,0Zm1.112.988h-.37V5.188h.741c.371,0,.494,0,.618.124a.454.454,0,0,1,.124.371.327.327,0,0,1-.371.371h0a1.705,1.705,0,0,1,.371.494c0,.247.124.371.124.494h-.494c0-.124-.124-.247-.124-.494s-.124-.247-.371-.247h-.247v.741Zm0-1.112h.247c.247,0,.37-.124.37-.247s-.124-.247-.37-.247h-.247Z" transform="translate(-157.6 -4.2)" fill="#0065f2"></path></g></g></svg>