<svg xmlns="http://www.w3.org/2000/svg" id="&#x421;&#x43B;&#x43E;&#x439;_1" height="512" viewBox="0 0 512 512" width="512"><g><path d="m288.154 47.931c-6.713-11.614-18.728-18.565-32.155-18.565s-25.441 6.951-32.167 18.578l.012-.012-218.807 379.006c-6.713 11.614-6.713 25.491-.012 37.118 6.713 11.627 18.728 18.578 32.155 18.578h437.64c13.427 0 25.441-6.951 32.155-18.578 6.701-11.627 6.701-25.504 0-37.118zm-32.155 361.692c-14.14 0-25.604-11.464-25.604-25.604s11.464-25.604 25.604-25.604 25.604 11.464 25.604 25.604-11.464 25.604-25.604 25.604zm25.604-123.556c0 14.139-11.464 25.604-25.604 25.604s-25.604-11.464-25.604-25.604v-125.456c0-14.14 11.464-25.604 25.604-25.604s25.604 11.464 25.604 25.604z"></path></g></svg>