<svg xmlns="http://www.w3.org/2000/svg" fill="none" height="24" viewBox="0 0 24 24" width="24"><g fill="rgb(0,0,0)"><path clip-rule="evenodd" d="m16.7486 12.0001c0-.9148-.301-1.7459-.795-2.39337l1.59-1.21317c.7569.99192 1.205 2.24834 1.205 3.60654 0 1.3583-.4481 2.6147-1.205 3.6066l-1.59-1.2131c.494-.6475.795-1.4786.795-2.3935z" fill-rule="evenodd"></path><path clip-rule="evenodd" d="m20.7498 12c0-1.621-.6392-3.12504-1.7376-4.32471l1.4751-1.35058c1.4032 1.53258 2.2625 3.50775 2.2625 5.67529 0 2.1675-.8593 4.1427-2.2625 5.6753l-1.4751-1.3506c1.0984-1.1997 1.7376-2.7037 1.7376-4.3247z" fill-rule="evenodd"></path><path d="m14.3592 3.34171c.2408.13146.3906.38393.3906.65829v16c0 .2744-.1498.5268-.3906.6583-.2409.1315-.5342.1209-.765-.0274l-6.81401-4.3809h-4.7797c-.41422 0-.75-.3358-.75-.75v-7c0-.41421.33578-.75.75-.75h4.7797l6.81401-4.38086c.2308-.14838.5241-.1589.765-.02743z"></path></g></svg>