<svg xmlns="http://www.w3.org/2000/svg" id="glipy" viewBox="0 0 64 64"><path d="m15.59714 49.77477a12.23742 12.23742 0 0 1 11.45946-3.25256c-1.03231-.43231-5.51169-2.6302-4.11723-4.08967l3.98-3.98a12.22479 12.22479 0 0 1 11.48006-3.2457c-1.02284-.42594-5.53728-2.62756-4.13783-4.09653l3.98-3.98a12.24458 12.24458 0 0 1 16.5785-.65876l1.33122-1.33123a.97043.97043 0 0 1 1.37239 1.3724l-5.96992 5.96992a12.22465 12.22465 0 0 1 -11.48002 3.24566c1.03156.4262 5.53569 2.63234 4.13783 4.09654l-3.98 3.98a12.22453 12.22453 0 0 1 -11.52122 3.232c1.02506.4104 5.59055 2.64188 4.179 4.11022l-3.98 3.98a12.23622 12.23622 0 0 1 -17.28526-.00687.967.967 0 0 1 0-1.37239z"></path><path d="m31.51692 12.44569 5.96992-5.96992a.97043.97043 0 0 1 1.37239 1.3724l-1.33123 1.33122a12.2446 12.2446 0 0 1 -.65876 16.5785l-3.97994 3.97993c-1.47852 1.39116-3.66506-3.10636-4.0967-4.13766a12.22443 12.22443 0 0 1 -3.24561 11.48l-3.97994 3.97994c-1.48388 1.39283-3.65216-3.10033-4.08983-4.11706a12.23705 12.23705 0 0 1 -3.25248 11.45937l-3.97306 3.97307a.967.967 0 0 1 -1.3724 0 12.23624 12.23624 0 0 1 -.00687-17.28526l3.97994-3.97994c1.47559-1.39961 3.692 3.13526 4.11039 4.17884a12.22421 12.22421 0 0 1 3.23192-11.52115l3.97994-3.97997c1.48556-1.39183 3.66264 3.11 4.0967 4.13766a12.22432 12.22432 0 0 1 3.24562-11.47997z"></path><path d="m9.28609 56.08583-3.72948 3.72947c-.67907.67916-2.05285-.69193-1.37235-1.37243l3.72944-3.72944c.28601-.28601 1.65841 1.08638 1.37239 1.3724z"></path><path d="m41.18 22.81952a.97805.97805 0 0 1 -.2882-.6725c-.0686-6.58748 1.3038-10.8556 4.09658-12.68777 2.521-1.45771 5.839-1.75152 9.44894-2.97137l2.46347-.73407c-.01709-.02966 1.37457-1.39719 1.43413-1.46161a.97059.97059 0 0 1 1.37235 1.37244c-.07216.06848-1.43224 1.45277-1.46148 1.434l-.73432 2.46355c-1.21743 3.604-1.51471 6.93585-2.971 9.449-1.83239 2.79274-6.10051 4.16513-12.688 4.09653a.978.978 0 0 1 -.67247-.2882z"></path></svg>