<svg id="Layer_1" data-name="Layer 1" xmlns="http://www.w3.org/2000/svg" viewBox="0 0 446 684"><path d="M341.41,570.09H103.13a6.3,6.3,0,0,1-6.31-6.31V407.13A215.91,215.91,0,0,1,6.56,231.63c0-118.95,96.77-215.72,215.7-215.72S438,112.68,438,231.63a216,216,0,0,1-90.25,175.5V563.78A6.31,6.31,0,0,1,341.41,570.09Zm-232-12.62H335.1V403.86a6.32,6.32,0,0,1,2.72-5.19,203.34,203.34,0,0,0,87.54-167c0-112-91.11-203.09-203.1-203.09S19.18,119.64,19.18,231.63a203.28,203.28,0,0,0,87.54,167,6.3,6.3,0,0,1,2.72,5.19Z"/><path d="M372.07,480.84H72.45a6.31,6.31,0,0,1,0-12.62H372.07a6.31,6.31,0,1,1,0,12.62Z"/><path d="M372.07,520.8H72.45a6.31,6.31,0,0,1,0-12.62H372.07a6.31,6.31,0,1,1,0,12.62Z"/><path d="M299.88,640.52H144.62a6.3,6.3,0,0,1-6.31-6.31V563.78a6.3,6.3,0,0,1,6.31-6.31H299.88a6.3,6.3,0,0,1,6.31,6.31v70.43A6.3,6.3,0,0,1,299.88,640.52ZM150.93,627.9H293.57V570.09H150.93Z"/><path d="M247.15,675h-49.8a6.3,6.3,0,0,1-6.31-6.31V634.21a6.3,6.3,0,0,1,6.31-6.31h49.8a6.3,6.3,0,0,1,6.31,6.31v34.48A6.3,6.3,0,0,1,247.15,675Zm-43.49-12.62h37.18V640.52H203.66Z"/><path d="M231.67,480.84H212.82a6.31,6.31,0,0,1-5.88-4l-74.32-192a6.29,6.29,0,0,1,.95-6.2,6.39,6.39,0,0,1,5.82-2.32L177,281.59l38.65-64.17a6.32,6.32,0,0,1,5.36-3.06h0a6.34,6.34,0,0,1,5.38,3l39.57,64,39.23-5.12a6.31,6.31,0,0,1,6.7,8.53l-74.31,192A6.31,6.31,0,0,1,231.67,480.84Zm-14.53-12.62h10.21l68.92-178.06-32.74,4.27a6.22,6.22,0,0,1-6.18-2.94l-36.28-58.71-35.46,58.89a6.31,6.31,0,0,1-6.29,3l-31-4.39Z"/></svg>