<svg id="Layer_1" data-name="Layer 1" xmlns="http://www.w3.org/2000/svg" viewBox="0 0 712.76 664.36"><path d="M361.18,367.88a5.78,5.78,0,0,1-2.62-.63L8,192a5.84,5.84,0,0,1,0-10.46L358.56,6.26a5.82,5.82,0,0,1,5.24,0L714.29,181.57a5.85,5.85,0,0,1,0,10.46L363.8,367.25A5.78,5.78,0,0,1,361.18,367.88ZM23.7,186.8,361.18,355.48,698.59,186.8,361.18,18Z" transform="translate(-4.76 -5.64)"/><path d="M361.18,519a5.9,5.9,0,0,1-2.62-.62L8,343.05a5.84,5.84,0,0,1,0-10.46l151.08-75.48a5.87,5.87,0,0,1,5.23,0l196.86,98.37L558,257.11a5.87,5.87,0,0,1,5.23,0l151.06,75.48a5.85,5.85,0,0,1,0,10.46L363.8,518.36A5.9,5.9,0,0,1,361.18,519ZM23.71,337.82,361.18,506.59l337.4-168.77-138-68.93L363.8,367.25a5.82,5.82,0,0,1-5.24,0L161.7,268.89Z" transform="translate(-4.76 -5.64)"/><path d="M361.18,670a5.9,5.9,0,0,1-2.62-.62L8,494.15a5.84,5.84,0,0,1,0-10.46l151.08-75.55a5.82,5.82,0,0,1,5.24,0l196.86,98.45L558,408.14a5.82,5.82,0,0,1,5.24,0l151.06,75.55a5.85,5.85,0,0,1,0,10.46L363.8,669.38A5.9,5.9,0,0,1,361.18,670ZM23.7,488.92,361.18,657.6,698.59,488.92l-138-69L363.8,518.36a5.89,5.89,0,0,1-5.24,0L161.7,419.91Z" transform="translate(-4.76 -5.64)"/><path d="M100.72,235.47a5.85,5.85,0,0,1-2.76-11L435,44.64A5.85,5.85,0,1,1,440.49,55l-337,179.82A5.78,5.78,0,0,1,100.72,235.47Z" transform="translate(-4.76 -5.64)"/><path d="M185.58,279.56a5.85,5.85,0,0,1-2.71-11.05L523.8,91.27a5.85,5.85,0,1,1,5.4,10.39L188.27,278.9A5.81,5.81,0,0,1,185.58,279.56Z" transform="translate(-4.76 -5.64)"/><path d="M271.49,319.38a5.86,5.86,0,0,1-2.63-11.09L615.3,134.65a5.85,5.85,0,1,1,5.24,10.47L274.1,318.76A5.79,5.79,0,0,1,271.49,319.38Z" transform="translate(-4.76 -5.64)"/></svg>