<svg id="Layer_1" data-name="Layer 1" xmlns="http://www.w3.org/2000/svg" viewBox="0 0 476.44 568.91"><path d="M594,195.45,460.37,61.77l-3.31-3.31a4.66,4.66,0,0,0-3.31-1.37H180.68A4.67,4.67,0,0,0,176,61.76V568.31a4.67,4.67,0,0,0,4.68,4.67H471.23a4.67,4.67,0,0,0,4.67-4.67,4.77,4.77,0,0,0-.12-1.08,4.67,4.67,0,0,0-.88-1.82l0,0-.19-.42c-.12-.26-.24-.52-.35-.78-.22-.48-.43-1-.63-1.45-.29-.66-.56-1.33-.81-2a82.89,82.89,0,0,1-3.35-10.29c-.19-.71-.37-1.41-.52-2.12s-.33-1.43-.47-2.15-.29-1.44-.41-2.16-.26-1.44-.36-2.17-.22-1.45-.31-2.18v0c-.1-.73-.19-1.45-.25-2.18s-.15-1.45-.2-2.18-.09-1.34-.13-2,0-1.07-.07-1.6c0-1.07-.06-2.14-.06-3.22a88.26,88.26,0,0,1,88.16-88.17c1.48,0,3,0,4.41.11l1.06.06c.44,0,.87.05,1.3.09q2.24.17,4.44.45c.73.09,1.47.19,2.2.31q3.09.47,6.11,1.16c.7.16,1.41.33,2.11.51s1.4.36,2.09.56l2.08.61q4.15,1.29,8.17,3a4.56,4.56,0,0,0,.52.18,4.67,4.67,0,0,0,6-4.49v-244A4.68,4.68,0,0,0,594,195.45ZM586,436c-1.24-.42-2.5-.82-3.76-1.19l-1.6-.46c-.57-.17-1.15-.32-1.73-.46s-1.14-.29-1.71-.42l-.4-.1a95.6,95.6,0,0,0-11.94-2c-1-.09-2-.18-3-.25-.65-.05-1.31-.09-2-.12h0c-.66,0-1.32-.06-2-.08-1,0-2,0-3,0a97.63,97.63,0,0,0-97.51,97.52c0,.76,0,1.53,0,2.28,0,.33,0,.67,0,1,0,.58,0,1.16.07,1.73,0,.75.08,1.49.13,2.23,0,.25,0,.51.07.77.05.62.1,1.24.16,1.85a1.37,1.37,0,0,1,0,.19,95.27,95.27,0,0,0,4.62,21.21c.26.75.52,1.51.8,2.25.2.57.41,1.14.63,1.7H185.35V66.44H451.81l10.11,10.11,121,121,3.14,3.14Z" transform="translate(-176 -57.09)"/><path d="M594,195.45,460.37,61.77a4.67,4.67,0,0,0-7.8,3.47v137a4.68,4.68,0,0,0,4.67,4.68H594.37a5,5,0,0,0,1-.11v-8A4.68,4.68,0,0,0,594,195.45Zm-132.11,2.1v-121l121,121Z" transform="translate(-176 -57.09)"/><path d="M386.91,126.59h-143a4.68,4.68,0,1,1,0-9.35h143a4.68,4.68,0,0,1,0,9.35Z" transform="translate(-176 -57.09)"/><path d="M427.42,187.08H243.91a4.67,4.67,0,1,1,0-9.34H427.42a4.67,4.67,0,1,1,0,9.34Z" transform="translate(-176 -57.09)"/><path d="M511.85,376.3H243.91a4.67,4.67,0,1,1,0-9.34H511.85a4.67,4.67,0,1,1,0,9.34Z" transform="translate(-176 -57.09)"/><path d="M511.85,318.24H243.91a4.68,4.68,0,1,1,0-9.35H511.85a4.68,4.68,0,1,1,0,9.35Z" transform="translate(-176 -57.09)"/><path d="M511.85,257.75H243.91a4.68,4.68,0,1,1,0-9.35H511.85a4.68,4.68,0,1,1,0,9.35Z" transform="translate(-176 -57.09)"/><path d="M595.4,439.72A94.93,94.93,0,0,0,586,436c-1.24-.42-2.49-.81-3.76-1.17l-1.6-.46c-.57-.17-1.15-.32-1.73-.46s-1.14-.29-1.71-.42l-.4-.1a99.44,99.44,0,0,0-11.94-2c-1-.09-2-.18-3-.25-.65-.05-1.31-.09-2-.12h0c-.66,0-1.32-.06-2-.08-1,0-2,0-3,0a97.63,97.63,0,0,0-97.51,97.52c0,.76,0,1.53,0,2.28,0,.33,0,.67,0,1,0,.58,0,1.16.07,1.73,0,.75.08,1.49.13,2.23,0,.25,0,.51.07.77.05.62.1,1.24.16,1.85a1.37,1.37,0,0,1,0,.19,97.48,97.48,0,0,0,4.62,21.21c.26.75.52,1.51.8,2.25a97.51,97.51,0,1,0,132-122.22ZM554.93,616.65a88.22,88.22,0,0,1-79.15-49.42c-.31-.6-.6-1.21-.88-1.82l-.21-.45c-.12-.26-.24-.52-.35-.78l-.63-1.45c-.28-.66-.55-1.32-.81-2a87.08,87.08,0,0,1-3.35-10.29c-.18-.71-.35-1.41-.52-2.12s-.32-1.43-.47-2.15-.28-1.43-.41-2.16-.25-1.45-.36-2.17-.21-1.45-.31-2.18v0c-.1-.73-.18-1.45-.25-2.18s-.14-1.45-.2-2.18-.09-1.34-.13-2,0-1.06-.07-1.6c0-1.07-.06-2.14-.06-3.22a88.26,88.26,0,0,1,88.16-88.17c1.48,0,3,0,4.41.11l1.06.06c.44,0,.87.05,1.3.09q2.24.17,4.44.45c.74.09,1.47.2,2.2.31q3.09.47,6.11,1.16c.71.16,1.41.33,2.11.51s1.4.36,2.09.56,1.39.39,2.08.61a84.15,84.15,0,0,1,8.69,3.17,88.2,88.2,0,0,1-34.49,169.36Z" transform="translate(-176 -57.09)"/><path d="M546.08,544.18a4.81,4.81,0,0,1-2-.44L513.86,529.5a4.68,4.68,0,0,1,4-8.46l28.25,13.31,46-21.19a4.68,4.68,0,0,1,3.92,8.49L548,543.75A4.69,4.69,0,0,1,546.08,544.18Z" transform="translate(-176 -57.09)"/></svg>