<svg height="512" viewBox="0 0 48 48" width="512" xmlns="http://www.w3.org/2000/svg"><g id="Agreement"><circle cx="11" cy="32" r="5"/><path d="m16.32 36.54a7 7 0 0 1 -4.32 2.38v2.08a1 1 0 0 1 -2 0v-2.08a6.91 6.91 0 0 1 -4.32-2.37 9.94 9.94 0 0 0 -4.68 8.45v2h20v-2a10 10 0 0 0 -4.68-8.46z"/><circle cx="37" cy="32" r="5"/><path d="m44.07 37.93a9.72 9.72 0 0 0 -1.75-1.39 7 7 0 0 1 -4.32 2.38v2.08a1 1 0 0 1 -2 0v-2.08a6.91 6.91 0 0 1 -4.32-2.37 9.94 9.94 0 0 0 -4.68 8.45v2h20c0-3.06.11-6-2.93-9.07z"/><path d="m10 19h2v4l6-4h12l6 4v-4h2a2 2 0 0 0 2-2v-14a2 2 0 0 0 -2-2h-28a2 2 0 0 0 -2 2v14a2 2 0 0 0 2 2zm9.71-9.71 2.29 2.3 5.29-5.3a1 1 0 0 1 1.42 1.42l-6 6a1 1 0 0 1 -1.42 0l-3-3a1 1 0 0 1 1.42-1.42z"/></g></svg>