<svg id="Layer_1" enable-background="new 0 0 512 512" height="512" viewBox="0 0 512 512" width="512" xmlns="http://www.w3.org/2000/svg"><path d="m420 92c-43.8-43.9-102-68-164-68s-120.2 24.1-164 68-68 102-68 164 24.1 120.2 68 164 102.1 68 164 68 120.2-24.1 164-68 68-102.1 68-164-24.1-120.2-68-164zm36.4 244.6c-44.4 4.5-85.7 21.3-120.5 48.9-6.3-14.6-14-28.6-23.2-41.7 44.4-30.4 99.3-43.1 152.9-35.5-2.5 9.8-5.5 19.2-9.2 28.3zm-181-12.4c35.4 35.4 57.4 82.1 62.2 131.8-11.2 4.6-22.9 8.3-34.9 10.9-10.1-41.1-31.1-78.6-61.3-108.8-52.1-52.1-125.7-76.2-198.3-65.4-.9-5.2-1.6-10.5-2.1-15.9 80.9-32.9 172.3-14.7 234.4 47.4zm27.7 6.9c-5.1-6.3-10.6-12.4-16.4-18.2-5.5-5.5-11.3-10.7-17.2-15.6 59.3-39.7 135.1-47.4 201.5-20.4-.5 5.3-1.2 10.6-2.1 15.8-58.1-8.6-117.7 5.2-165.8 38.4zm-47.1-291.1c119.1 0 216 96.9 216 216 0 1.4 0 2.7-.1 4.1-68.8-26.2-146.3-18-207.9 21.6v-88.6c14.2-.6 44.5-4.5 64.5-24.6 26.8-26.8 24.7-71.1 24.6-72.9-.2-4.1-3.5-7.3-7.5-7.5-.1 0-1.3-.1-3.4-.1-10.5 0-46.6 1.8-69.5 24.7-13.6 13.6-19.7 31.6-22.5 46.3-3-5.1-6.6-9.9-11-14.3-22.9-22.9-59-24.7-69.5-24.7-2.1 0-3.3.1-3.4.1-4.1.2-7.3 3.5-7.5 7.5-.1 1.9-2.2 46.1 24.6 72.9 20.1 20.1 50.5 23.9 64.6 24.6v56.6c-25.5-16.4-54-27.6-84.2-33.1-41.8-7.5-84.4-3.5-123.7 11.5 0-1.4-.1-2.7-.1-4.1 0-119.1 96.9-216 216-216zm8.1 137.1c.6-12.4 4-37.2 19.9-53.1s40.7-19.2 53.1-19.9c-.6 12.4-4 37.2-19.9 53.1s-40.6 19.2-53.1 19.9zm-16.3 32c-12.4-.6-37.2-4-53.1-19.9-15.8-15.8-19.2-40.7-19.8-53.1 12.4.6 37.2 4 53.1 19.9 15.7 15.8 19.1 40.6 19.8 53.1zm-184.4 144.6c45.8 6.7 88.5 28 121.5 61 16.3 16.3 29.7 34.8 39.9 55-70.5-10.2-130.2-54.7-161.4-116zm180.1 117.9c-11.5-25.4-27.4-48.3-47.3-68.2-37.8-37.8-87.5-61.4-140.6-66.7-3.7-9.1-6.8-18.5-9.2-28.2 67.3-9.7 135.4 12.8 183.7 61 27.8 27.8 47.4 62.4 56.8 100.3-10.1 1.5-20.4 2.2-31 2.2-4.1 0-8.3-.1-12.4-.4zm109.4-22.6c-2-16.3-5.7-32.4-11-47.8 30.7-25.6 67.2-41.8 106.7-47.5-20.9 41-54.5 74.5-95.7 95.3z"/></svg>