<svg xmlns="http://www.w3.org/2000/svg" fill="none" height="24" viewBox="0 0 24 24" width="24"><g clip-rule="evenodd" fill="rgb(0,0,0)" fill-rule="evenodd"><path d="m12.6464 19.3536c-.1952-.1953-.1952-.5119 0-.7072l6.6465-6.6464-6.6465-6.64645c-.1952-.19526-.1952-.51184 0-.7071.1953-.19527.5119-.19527.7072 0l7 6.99995c.1952.1953.1952.5119 0 .7072l-7 7c-.1953.1952-.5119.1952-.7072 0z"></path><path d="m3.5 12c0-.2761.22386-.5.5-.5h16c.2761 0 .5.2239.5.5s-.2239.5-.5.5h-16c-.27614 0-.5-.2239-.5-.5z"></path></g></svg>