<?xml version="1.0" encoding="iso-8859-1"?>
<!-- Generator: Adobe Illustrator 19.0.0, SVG Export Plug-In . SVG Version: 6.00 Build 0)  -->
<svg version="1.1" id="Capa_1" xmlns="http://www.w3.org/2000/svg" xmlns:xlink="http://www.w3.org/1999/xlink" x="0px" y="0px"
	 viewBox="0 0 512 512" style="enable-background:new 0 0 512 512;" xml:space="preserve">
<g>
	<g>
		<g>
			<path d="M201.208,442.942c1.158,0.533,2.379,0.792,3.588,0.792c2.675,0,5.283-1.258,6.929-3.546l153.6-213.333
				c1.871-2.6,2.129-6.029,0.671-8.879c-1.462-2.85-4.392-4.642-7.596-4.642h-76.458l33.537-134.467
				c0.992-3.971-0.975-8.087-4.688-9.808c-3.733-1.717-8.133-0.571-10.517,2.754l-153.6,213.333c-1.871,2.6-2.129,6.029-0.671,8.879
				c1.462,2.85,4.392,4.642,7.596,4.642h76.458l-33.538,134.467C195.529,437.104,197.496,441.221,201.208,442.942z M249.263,292.2
				c0.638-2.55,0.062-5.25-1.554-7.321s-4.1-3.279-6.725-3.279h-70.725l117.912-163.767L262.737,219.8
				c-0.638,2.55-0.062,5.25,1.554,7.321s4.1,3.279,6.725,3.279h70.725L223.829,394.167L249.263,292.2z"/>
			<path d="M503.467,247.467c-4.713,0-8.533,3.821-8.533,8.533c0,131.75-107.183,238.933-238.933,238.933
				c-70.547,0-137.665-31.642-182.867-85.333h46.333c4.713,0,8.533-3.821,8.533-8.533c0-4.713-3.821-8.533-8.533-8.533H51.2
				c-4.713,0-8.533,3.821-8.533,8.533v68.267c0,4.713,3.821,8.533,8.533,8.533s8.533-3.821,8.533-8.533v-49.146
				C108.161,477.95,180.235,512,256,512c141.158,0,256-114.842,256-256C512,251.287,508.179,247.467,503.467,247.467z"/>
			<path d="M256,17.067c70.547,0,137.665,31.642,182.867,85.333h-46.333c-4.713,0-8.533,3.821-8.533,8.533s3.821,8.533,8.533,8.533
				H460.8c4.713,0,8.533-3.821,8.533-8.533V42.667c0-4.713-3.821-8.533-8.533-8.533c-4.713,0-8.533,3.821-8.533,8.533v49.146
				C403.839,34.05,331.765,0,256,0C114.842,0,0,114.842,0,256c0,4.713,3.821,8.533,8.533,8.533s8.533-3.821,8.533-8.533
				C17.067,124.25,124.25,17.067,256,17.067z"/>
		</g>
	</g>
</g>
<g>
</g>
<g>
</g>
<g>
</g>
<g>
</g>
<g>
</g>
<g>
</g>
<g>
</g>
<g>
</g>
<g>
</g>
<g>
</g>
<g>
</g>
<g>
</g>
<g>
</g>
<g>
</g>
<g>
</g>
</svg>
