<svg enable-background="new 0 0 32 32" viewBox="0 0 32 32" xmlns="http://www.w3.org/2000/svg"><g id="Grid" display="none"/><g id="setting"/><g id="telephone"/><g id="microphone"/><g id="weather"/><g id="camera"/><g id="internet_browser"/><g id="chat_bubble"><path d="m29.893 14.255c-.771-6.29-5.839-11.379-12.129-12.147-9.115-1.114-16.77 6.542-15.656 15.657.769 6.289 5.858 11.358 12.147 12.128 3.428.42 6.634-.419 9.257-2.092l5.235 1.403c.277.074.53-.179.456-.456l-1.403-5.235c1.674-2.624 2.513-5.83 2.093-9.258zm-19.377 2.953c-.667 0-1.208-.541-1.208-1.208s.541-1.208 1.208-1.208 1.208.541 1.208 1.208-.541 1.208-1.208 1.208zm5.484 0c-.667 0-1.208-.541-1.208-1.208s.541-1.208 1.208-1.208 1.208.541 1.208 1.208-.541 1.208-1.208 1.208zm5.484 0c-.667 0-1.208-.541-1.208-1.208s.541-1.208 1.208-1.208 1.208.541 1.208 1.208-.541 1.208-1.208 1.208z"/></g><g id="message"/><g id="notes"/><g id="contact"/><g id="reminder"/><g id="clock"/><g id="book"/><g id="home"/><g id="calendar"/><g id="calculator"/><g id="tv"/><g id="game"/><g id="photo"/><g id="music"/><g id="battery_1_"/><g id="compass"/><g id="pages"/><g id="handphone"/><g id="folder"/></svg>