<svg id="Capa_1" enable-background="new 0 0 502.132 502.132" height="512" viewBox="0 0 502.132 502.132" width="512" xmlns="http://www.w3.org/2000/svg"><g><path d="m251.066 448.822c-25.923-.043-51.711-3.738-76.603-10.976-46.064-6.028-89.872-23.543-127.395-50.935-3.098-2.47-3.606-6.984-1.135-10.082.952-1.193 2.259-2.052 3.732-2.451 33.854-9.563 65.289-26.214 92.221-48.847-21.244-7.215-41.262-17.63-59.364-30.884-3.111-2.453-3.645-6.964-1.191-10.075.951-1.206 2.264-2.075 3.745-2.479 33.222-9.553 63.563-27.18 88.318-51.308-22.127-6.017-42.96-16.05-61.459-29.6-3.087-2.483-3.576-6.999-1.093-10.086.948-1.179 2.245-2.027 3.704-2.425 32.499-9.692 61.596-28.374 83.935-53.891-19.887-4.364-38.647-12.825-55.081-24.843-3.102-2.465-3.619-6.978-1.154-10.08.951-1.197 2.261-2.06 3.737-2.46 65.426-17.77 98.254-92.314 98.577-93.096 1.144-2.62 3.734-4.311 6.593-4.304 2.865.002 5.454 1.708 6.586 4.34.323.717 33 75.326 98.433 93.024 3.824 1.038 6.081 4.98 5.043 8.803-.401 1.476-1.263 2.785-2.46 3.737-16.429 12.013-35.181 20.472-55.06 24.836 22.197 25.67 51.324 44.396 83.892 53.934 3.827 1.027 6.096 4.962 5.069 8.789-.397 1.477-1.255 2.789-2.45 3.744-18.478 13.594-39.32 23.638-61.466 29.621 24.766 24.114 55.103 41.738 88.318 51.308 3.821 1.049 6.067 4.997 5.018 8.818-.405 1.475-1.271 2.781-2.471 3.729-18.102 13.254-38.12 23.669-59.364 30.884 26.918 22.648 58.354 39.298 92.214 48.84 3.826 1.03 6.093 4.966 5.063 8.792-.398 1.48-1.26 2.794-2.459 3.748-37.522 27.392-81.331 44.907-127.395 50.935-24.893 7.226-50.679 10.908-76.598 10.94zm-183.265-64.974c33.057 20.973 70.252 34.562 109.044 39.837.371.048.738.125 1.098.23 47.75 14.075 98.547 14.075 146.298 0 .359-.105.726-.181 1.098-.23 38.777-5.277 75.957-18.863 109.001-39.83-34.525-12.194-66.254-31.187-93.311-55.856-2.961-2.633-3.227-7.167-.594-10.128.9-1.012 2.069-1.749 3.37-2.125 19.348-5.629 37.86-13.813 55.046-24.334-34.027-12.672-64.656-33.052-89.488-59.544-2.756-2.846-2.683-7.388.163-10.144.987-.956 2.228-1.608 3.575-1.879 19.855-4.126 38.882-11.541 56.294-21.938-33.409-13.289-62.716-35.163-84.961-63.41-2.532-3.048-2.113-7.571.934-10.102 1.049-.872 2.325-1.426 3.679-1.598 17.196-2.31 33.792-7.884 48.897-16.421-46.494-18.853-74.846-61.452-86.805-83.203-11.995 21.737-40.418 64.35-86.876 83.167 15.102 8.528 31.689 14.103 48.876 16.428 3.931.498 6.713 4.088 6.215 8.019-.17 1.345-.718 2.614-1.581 3.66-22.38 28.128-51.667 49.977-85.004 63.417 17.417 10.386 36.438 17.807 56.287 21.959 3.883.785 6.395 4.57 5.61 8.453-.272 1.345-.924 2.584-1.879 3.57-24.825 26.496-55.453 46.877-89.48 59.544 17.19 10.517 35.703 18.698 55.053 24.327 3.806 1.1 6.001 5.077 4.901 8.883-.376 1.301-1.113 2.47-2.125 3.37-27.07 24.671-58.805 43.671-93.335 55.878z"/><path d="m250.664 502.132c-17.668-.064-35.102-4.051-51.042-11.672-3.078-1.444-4.719-4.85-3.931-8.157l10.696-44.973c.819-3.876 4.625-6.355 8.502-5.536 3.876.819 6.355 4.625 5.536 8.502-.025.119-.053.238-.085.356l-9.326 39.162c25.595 10.792 54.469 10.769 80.047-.065l-9.326-39.098c-1.016-3.83 1.266-7.758 5.095-8.773 3.83-1.016 7.758 1.266 8.773 5.095.031.118.06.237.085.356l10.696 44.973c.795 3.339-.886 6.772-4.01 8.193-16.202 7.544-33.838 11.513-51.71 11.637z"/></g></svg>