<svg id="Layer_1" height="512" viewBox="0 0 512 512" width="512" xmlns="http://www.w3.org/2000/svg" data-name="Layer 1"><path d="m412.548 121.576c3.4-26.279-7.877-51.348-30.283-66.448-22.029-14.832-49.058-15.951-71.889-3.37-11.934-20.208-29.011-35.322-49.813-43.893a108.582 108.582 0 0 0 -66.606-4.708c-22.406 5.472-42.642 17.869-56.935 34.94-14.812 17.7-23.114 39.879-24.1 64.4a106.233 106.233 0 0 0 23.067 209.93h40.19v51.94h-64.158a29.37 29.37 0 1 0 0 12h64.579a11.591 11.591 0 0 0 11.6-11.58v-52.359h24.906v115.219h-64.2a29.37 29.37 0 1 0 0 12h64.625a11.581 11.581 0 0 0 11.556-11.581v-115.638h24.913v141.439a29.388 29.388 0 1 0 11.981 0v-141.439h24.907v115.639a11.582 11.582 0 0 0 11.557 11.581h64.624a29.371 29.371 0 1 0 0-12h-64.2v-115.22h24.906v52.359a11.591 11.591 0 0 0 11.605 11.58h64.577a29.37 29.37 0 1 0 0-12h-64.2v-51.94h49.435c26.793 0 50.237-9.16 67.832-26.492 15.755-15.479 25.9-36.749 28.539-59.9 2.641-23.129-2.406-46.12-14.246-64.73-12.317-19.358-31.136-33.005-54.769-39.729z" fill-rule="evenodd"/></svg>