<?xml version="1.0" encoding="utf-8"?>
<!-- Generator: Adobe Illustrator 24.2.0, SVG Export Plug-In . SVG Version: 6.00 Build 0)  -->
<svg version="1.1" id="katman_1" xmlns="http://www.w3.org/2000/svg" xmlns:xlink="http://www.w3.org/1999/xlink" x="0px" y="0px"
	 viewBox="0 0 841.9 595.3" style="enable-background:new 0 0 841.9 595.3;" xml:space="preserve">
<style type="text/css">
	.st0{fill:#010202;}
	.st1{fill:#E52421;}
</style>
<g>
	<rect x="290.5" y="165.5" class="st0" width="24.9" height="154.6"/>
	<path class="st0" d="M402.1,320.1H427V215.4h-24.9v55.3h0.5c0,23.1-20,25.4-25.4,25.4c-14.5,0-17.7-14.1-17.7-22.7v-58h-24.9v59
		c0,14.5,5,26.3,12.2,34.9c6.8,6.8,17.7,10.9,29.9,10.9c8.6,0,20-2.3,25.4-8.6L402.1,320.1L402.1,320.1z"/>
	<polygon class="st0" points="451.1,320.1 476,320.1 476,240.3 494.1,240.3 494.1,215.4 476,215.4 476,178.2 451.1,178.2 
		451.1,215.4 432.5,215.4 432.5,240.3 451.1,240.3 	"/>
	<path class="st0" d="M552.2,319.7c14.1,0,27.2-5,37.2-14.1l3.6-3.6l-17.2-17.2l-3.6,4.5c-5.4,5-12.2,7.7-20,7.7
		c-17.2,0-29.9-12.2-29.9-30.4s12.2-29.9,29.9-29.9c7.7,0,14.5,2.3,20,7.7l3.6,3.2l16.3-16.3l-3.6-3.6
		c-10.4-8.6-22.7-14.1-36.3-14.1c-30.8-0.4-53.5,21.8-53.5,53C498.7,296.1,521.8,319.7,552.2,319.7z"/>
	<path class="st0" d="M629.7,261.6c0-23.1,17.2-25.4,22.7-25.4c14.5,0,14.5,14.1,14.5,22.7v61.2h24.9v-61.7
		c0.5-13.6-2.7-25.9-10.9-34c-6.8-6.8-15.9-10.9-27.2-10.9c-8.6,0-17.7,2.3-24.5,8.6v-56.7h-24.9v154.6h24.9v-58.5L629.7,261.6
		L629.7,261.6z"/>
	<path class="st1" d="M533.2,266.6c0,10,8.2,17.7,17.7,17.7c10,0,17.7-8.2,17.7-17.7c0-10-8.2-17.7-17.7-17.7
		S533.2,256.6,533.2,266.6z"/>
	<path class="st0" d="M220.3,319.7c19.9,0,39-7.7,51.7-21.8l3.6-3.6L259.3,277l-3.2,4.5c-9.1,9.1-22.7,14.5-35.8,14.5
		c-28.1,0-48.1-21.8-48.1-51.2c0-29.9,19.9-51.2,47.6-51.2c13.1,0,25.4,5.4,35.8,14.5l3.6,3.6l16.3-16.3l-3.6-3.6
		c-13.6-14.5-32.2-21.8-51.7-21.8c-40.8,0.4-71.2,32.2-71.2,74.8S179.4,319.7,220.3,319.7z"/>
	<polygon class="st0" points="189.4,399 180.4,399 180.4,407.2 169,407.2 187.2,381.8 177.2,381.8 157.2,408.5 157.2,414.9 
		179.9,414.9 179.9,424 189.4,424 189.4,414.9 196.2,414.9 196.2,407.2 189.4,407.2 	"/>
	<path class="st0" d="M205.8,412.6c-1.8,0-3.2,0.5-4.1,1.8c-0.9,0.9-1.8,2.3-1.8,4.1s0.4,3.2,1.8,4.1c0.9,0.9,2.7,1.8,4.1,1.8
		c1.8,0,3.2-0.5,4.1-1.8c0.9-0.9,1.8-2.7,1.8-4.1c0-1.8-0.4-3.2-1.8-4.1C208.9,413.1,207.6,412.6,205.8,412.6z"/>
	<path class="st0" d="M244.8,386.3c-3.2-3.6-8.2-5.4-14.1-5.4c-3.2,0-5.4,0.5-8.2,1.8c-2.3,1.4-4.5,2.7-5.9,5s-2.3,4.5-2.3,7.3
		c0,2.7,0.4,5,1.8,6.8s3.2,3.6,5.4,4.5c2.3,0.9,4.5,1.8,7.3,1.8c4.5,0,8.2-1.4,10.4-3.6c0,4.1-1.4,6.8-3.2,9.1
		c-2.3,2.3-5,3.2-8.6,3.2c-3.2,0-5.9-0.9-7.7-2.3l-3.6,7.3c1.4,0.9,3.2,1.8,5.4,2.3c2.3,0.5,4.1,0.9,6.4,0.9c4.1,0,8.2-0.9,11.3-2.7
		c3.2-1.8,5.9-4.5,7.7-7.7c1.8-3.6,2.7-7.7,2.7-12.2C249.7,394.9,247.9,389.9,244.8,386.3z M237,399c-1.4,1.4-3.2,1.8-5,1.8
		c-2.3,0-4.1-0.5-5-1.8c-1.4-1.4-1.8-2.7-1.8-4.5s0.4-3.6,1.8-4.5c1.4-0.9,3.2-1.8,5-1.8c2.3,0,4.1,0.5,5.4,1.8s1.8,2.7,1.8,4.5
		C238.9,396.3,238.4,397.6,237,399z"/>
	<polygon class="st0" points="268.8,373.2 248.8,429.9 257.5,429.9 277,373.2 	"/>
	<path class="st0" d="M291.5,397.6h-3.6l0.5-8.2H306v-7.7h-25.9l-2.3,23.6h10.9c3.6,0,6.4,0.5,7.7,1.4c1.4,0.9,2.3,2.3,2.3,4.1
		s-0.9,3.2-2.3,4.1c-1.4,0.9-3.2,1.4-5.9,1.4c-2.3,0-4.5-0.5-6.4-0.9c-2.3-0.5-4.1-1.8-5.4-2.7l-3.6,7.3c1.8,1.4,4.5,2.7,7.3,3.2
		c2.7,0.9,5.9,1.4,8.6,1.4c3.6,0,7.3-0.5,9.5-1.8c2.7-1.4,4.5-2.7,5.9-5c1.4-2.3,1.8-4.5,1.8-6.8c0-4.1-1.4-7.3-4.1-9.5
		C301.4,398.6,297.4,397.6,291.5,397.6z"/>
	<path class="st0" d="M318.2,412.6c-1.8,0-3.2,0.5-4.1,1.8c-0.9,0.9-1.8,2.3-1.8,4.1s0.5,3.2,1.8,4.1c0.9,0.9,2.7,1.8,4.1,1.8
		c1.8,0,3.2-0.5,4.1-1.8c0.9-0.9,1.8-2.7,1.8-4.1c0-1.8-0.5-3.2-1.8-4.1C321.4,413.1,320,412.6,318.2,412.6z"/>
	<path class="st0" d="M354.9,383.6c-2.7-1.8-5.9-2.7-9.5-2.7c-3.6,0-6.8,0.9-9.5,2.7s-5,4.1-6.4,7.7c-1.4,3.2-2.3,7.3-2.3,11.8
		s0.9,8.6,2.3,11.8s3.6,5.9,6.4,7.7s5.9,2.7,9.5,2.7c3.6,0,6.8-0.9,9.5-2.7s5-4.1,6.4-7.7c1.4-3.2,2.3-7.3,2.3-11.8
		s-0.9-8.6-2.3-11.8C359.9,387.7,357.7,385.4,354.9,383.6z M351.8,413.1c-1.4,2.3-3.6,3.2-5.9,3.2c-2.7,0-4.5-0.9-5.9-3.2
		c-1.4-2.3-2.3-5.4-2.3-10.4s0.9-8.2,2.3-10.4s3.6-3.2,5.9-3.2c2.7,0,4.5,0.9,5.9,3.2s2.3,5.4,2.3,10.4
		C354,407.6,353.1,410.8,351.8,413.1z"/>
	<path class="st1" d="M444.3,390.4h-19c-0.5,0-1.4-0.5-1.4-0.9l-5.9-18.1c-0.5-1.4-2.7-1.4-3.2,0l-5.9,18.1c0,0.5-0.9,0.9-1.4,0.9
		h-19c-1.4,0-2.3,1.8-0.9,2.7l15.4,11.3c0.5,0.5,0.9,0.9,0.5,1.8l-5.9,18.1c-0.5,1.4,1.4,2.7,2.3,1.8l15.4-11.3
		c0.5-0.5,1.4-0.5,1.8,0l15.4,11.3c1.4,0.9,2.7-0.5,2.3-1.8l-5.9-18.1c0-0.5,0-1.4,0.5-1.8l15.4-11.3
		C446.5,392.2,446.1,390.4,444.3,390.4z"/>
	<path class="st1" d="M505.5,390.4h-19c-0.5,0-1.4-0.5-1.4-0.9l-5.9-18.1c-0.5-1.4-2.7-1.4-3.2,0l-5.9,18.1c0,0.5-0.9,0.9-1.4,0.9
		h-19c-1.4,0-2.3,1.8-0.9,2.7l15.4,11.3c0.5,0.5,0.9,0.9,0.5,1.8l-5.9,18.1c-0.5,1.4,1.4,2.7,2.3,1.8l15.4-11.3
		c0.5-0.5,1.4-0.5,1.8,0l15.4,11.3c1.4,0.9,2.7-0.5,2.3-1.8l-5.9-18.1c0-0.5,0-1.4,0.5-1.8l15.4-11.3
		C507.3,392.2,506.9,390.4,505.5,390.4z"/>
	<path class="st1" d="M568.1,390.4h-19c-0.5,0-1.4-0.5-1.4-0.9l-5.9-18.1c-0.5-1.4-2.7-1.4-3.2,0l-5.9,18.1c0,0.5-0.9,0.9-1.4,0.9
		h-19c-1.4,0-2.3,1.8-0.9,2.7l15.4,11.3c0.5,0.5,0.9,0.9,0.5,1.8l-5.9,18.1c-0.5,1.4,1.4,2.7,2.3,1.8l15.4-11.3
		c0.5-0.5,1.4-0.5,1.8,0l15.4,11.3c1.4,0.9,2.7-0.5,2.3-1.8l-5.9-18.1c0-0.5,0-1.4,0.5-1.8l15.4-11.3
		C569.9,392.2,569.4,390.4,568.1,390.4z"/>
	<path class="st1" d="M630.2,390.4h-19c-0.5,0-1.4-0.5-1.4-0.9l-5.9-18.1c-0.5-1.4-2.7-1.4-3.2,0l-5.9,18.1c0,0.5-0.9,0.9-1.4,0.9
		h-19c-1.4,0-2.3,1.8-0.9,2.7l15.4,11.3c0.5,0.5,0.9,0.9,0.5,1.8l-5.9,18.1c-0.5,1.4,1.4,2.7,2.3,1.8l15.4-11.3
		c0.5-0.5,1.4-0.5,1.8,0l15.4,11.3c1.4,0.9,2.7-0.5,2.3-1.8l-5.9-18.1c0-0.5,0-1.4,0.5-1.8l15.4-11.3
		C632,392.2,631.5,390.4,630.2,390.4z"/>
	<path class="st1" d="M691.9,393.1c1.4-0.9,0.5-2.7-0.9-2.7h-19c-0.5,0-1.4-0.5-1.4-0.9l-5.9-18.1c-0.5-1.4-2.7-1.4-3.2,0l-5.9,18.1
		c0,0.5-0.9,0.9-1.4,0.9h-19c-1.4,0-2.3,1.8-0.9,2.7l15.4,11.3c0.5,0.5,0.9,0.9,0.5,1.8l-5.9,18.1c-0.5,1.4,1.4,2.7,2.3,1.8
		l15.4-11.3c0.5-0.5,1.4-0.5,1.8,0l15.4,11.3c1.4,0.9,2.7-0.5,2.3-1.8l-5.9-18.1c0-0.5,0-1.4,0.5-1.8L691.9,393.1z"/>
</g>
</svg>
