<?xml version="1.0" encoding="utf-8"?>
<!-- Generator: Adobe Illustrator 24.2.0, SVG Export Plug-In . SVG Version: 6.00 Build 0)  -->
<svg version="1.1" id="katman_1" xmlns="http://www.w3.org/2000/svg" xmlns:xlink="http://www.w3.org/1999/xlink" x="0px" y="0px"
	 viewBox="0 0 841.9 595.3" style="enable-background:new 0 0 841.9 595.3;" xml:space="preserve">
<style type="text/css">
	.st0{fill:#FFFFFF;}
	.st1{fill:#E52421;}
</style>
<g>
	<rect x="290.5" y="165.5" class="st0" width="24.9" height="154.6"/>
	<path class="st0" d="M402.1,320.1H427V215.4h-24.9v55.3h0.5c0,23.1-20,25.4-25.4,25.4c-14.5,0-17.7-14.1-17.7-22.7v-58h-24.9v59
		c0,14.5,5,26.3,12.2,34.9c6.8,6.8,17.7,10.9,29.9,10.9c8.6,0,20-2.3,25.4-8.6V320.1L402.1,320.1z"/>
	<polygon class="st0" points="451.1,320.1 476,320.1 476,240.3 494.1,240.3 494.1,215.4 476,215.4 476,178.2 451.1,178.2 
		451.1,215.4 432.5,215.4 432.5,240.3 451.1,240.3 	"/>
	<path class="st0" d="M552.2,319.7c14.1,0,27.2-5,37.2-14.1l3.6-3.6l-17.2-17.2l-3.6,4.5c-5.4,5-12.2,7.7-20,7.7
		c-17.2,0-29.9-12.2-29.9-30.4s12.2-29.9,29.9-29.9c7.7,0,14.5,2.3,20,7.7l3.6,3.2l16.3-16.3l-3.6-3.6
		c-10.4-8.6-22.7-14.1-36.3-14.1c-30.8-0.4-53.5,21.8-53.5,53C498.7,296.1,521.8,319.7,552.2,319.7z"/>
	<path class="st0" d="M629.7,261.6c0-23.1,17.2-25.4,22.7-25.4c14.5,0,14.5,14.1,14.5,22.7v61.2h24.9v-61.7
		c0.5-13.6-2.7-25.9-10.9-34c-6.8-6.8-15.9-10.9-27.2-10.9c-8.6,0-17.7,2.3-24.5,8.6v-56.7h-24.9V320h24.9v-58.5L629.7,261.6
		L629.7,261.6z"/>
	<path class="st1" d="M533.2,266.6c0,10,8.2,17.7,17.7,17.7c10,0,17.7-8.2,17.7-17.7c0-10-8.2-17.7-17.7-17.7
		S533.2,256.6,533.2,266.6z"/>
	<path class="st0" d="M220.3,319.7c19.9,0,39-7.7,51.7-21.8l3.6-3.6L259.3,277l-3.2,4.5c-9.1,9.1-22.7,14.5-35.8,14.5
		c-28.1,0-48.1-21.8-48.1-51.2c0-29.9,19.9-51.2,47.6-51.2c13.1,0,25.4,5.4,35.8,14.5l3.6,3.6l16.3-16.3l-3.6-3.6
		c-13.6-14.5-32.2-21.8-51.7-21.8c-40.8,0.4-71.2,32.2-71.2,74.8S179.4,319.7,220.3,319.7z"/>
</g>
</svg>
