<svg id="Line" height="512" viewBox="0 0 64 64" width="512" xmlns="http://www.w3.org/2000/svg"><path d="m55.81348 46.97363a4.18424 4.18424 0 0 0 -4.05237 3.18653h-6.81873a2.34937 2.34937 0 0 1 -2.34668-2.34668v-9.60254h5.9063c15.23963-.624 15.25848-22.35764.01206-23.00625-.177-6.82776-8.3163-11.021-13.96667-7.10257a11.48456 11.48456 0 0 0 -20.85727 7.2472 11.50267 11.50267 0 0 0 1.81872 22.86162h5.89546v9.60254a2.34937 2.34937 0 0 1 -2.34668 2.34668h-6.81862a4.18666 4.18666 0 1 0 -.00006 2h6.81873a4.352 4.352 0 0 0 4.34668-4.34668v-9.60254h7.32031v12.66443a4.18011 4.18011 0 1 0 1.99988.00005l.00012-12.66448h7.87104v9.60254a4.352 4.352 0 0 0 4.34668 4.34668h6.81873a4.18655 4.18655 0 1 0 4.05237-5.18653zm-47.627 6.373a2.18666 2.18666 0 0 1 .00007-4.373 2.18666 2.18666 0 0 1 -.00003 4.37305zm25.72364 1.581a2.18617 2.18617 0 0 1 -4.37207-.00006 2.18617 2.18617 0 0 1 4.37211.00016zm-27.91012-28.21474a9.54832 9.54832 0 0 1 7.96625-9.38531 11.554 11.554 0 0 0 3.19875 5.65875 1.00018 1.00018 0 0 0 1.39254-1.43559 9.53131 9.53131 0 0 1 -2.79391-5.47554c-1.35818-10.3373 12.40674-15.05468 17.66123-6.05062a1.022 1.022 0 0 0 1.2643.40906 7.09043 7.09043 0 0 1 11.81571 5.879 1.03962 1.03962 0 0 0 1.03306.92806 9.50905 9.50905 0 1 1 .964 18.97022h-32.99314a9.51415 9.51415 0 0 1 -9.50879-9.49803zm49.81348 26.63379a2.18666 2.18666 0 0 1 .00006-4.373 2.18666 2.18666 0 0 1 -.00006 4.373z" fill="rgb(0,0,0)"/></svg>