<svg id="Layer_1" enable-background="new 0 0 512 512" height="512" viewBox="0 0 512 512" width="512" xmlns="http://www.w3.org/2000/svg"><path d="m303.269 207.795c.001-13.791 10.53-25.37 24.606-28.342l-.172-7.182c-.093-3.865 2.966-7.073 6.83-7.166 3.901-.08 7.074 2.966 7.166 6.83l.185 7.694c7.664 1.812 16.812 6.228 20.896 12.444 2.123 3.23 1.226 7.57-2.006 9.693s-7.571 1.226-9.693-2.006c-1.991-3.028-11.161-7.046-16.087-7.047-9.772.001-17.725 6.766-17.726 15.081 0 8.314 7.952 15.079 17.727 15.079 17.493 0 31.726 13.045 31.726 29.08 0 13.785-10.521 25.361-24.588 28.337l.153 6.373c.093 3.865-2.965 7.073-6.829 7.167-.058.001-.115.002-.172.002-3.788 0-6.903-3.023-6.995-6.831l-.159-6.591c-8.231-1.583-13.548-5.983-18.627-10.775-2.812-2.653-2.94-7.084-.288-9.896 2.654-2.813 7.084-2.939 9.896-.288 5.93 5.595 9.221 7.581 15.884 7.581 9.773 0 17.726-6.765 17.726-15.079 0-8.315-7.952-15.08-17.726-15.08-17.495.002-31.727-13.042-31.727-29.078zm169.463 182.927-135.35 52.158c-1.428.55-2.888 1.118-4.377 1.697-16.896 6.576-36.994 14.397-56.163 14.397-5.568 0-11.057-.659-16.367-2.201l-72.118-20.939c-8.812-2.559-17.111-1.853-25.366 2.161l-22.598 10.987 3.933 9.444c2.25 5.402 2.27 11.334.055 16.704-2.216 5.369-6.412 9.562-11.817 11.808l-34.672 14.397c-2.723 1.13-5.547 1.665-8.326 1.665-8.545 0-16.674-5.054-20.157-13.416l-58.713-140.982c-2.25-5.403-2.27-11.336-.054-16.705 2.215-5.37 6.412-9.563 11.817-11.808l34.672-14.397c11.093-4.604 23.866.668 28.482 11.751l3.479 8.353c16.551-7.822 34.076-16.162 51.792-24.824 24.592-12.026 43.943-20.22 67.971-14.648-14.983-44.795-4.202-97.865 29.769-142.12l55.539-72.353-30.083-52.364c-1.244-2.166-1.24-4.832.011-6.994s3.56-3.493 6.058-3.493h129.692c2.498 0 4.807 1.331 6.059 3.493 1.251 2.162 1.255 4.828.011 6.994l-30.084 52.364 55.539 72.352c21.368 27.837 34.188 60.678 36.101 92.472 1.666 27.704-4.729 53.527-18.589 75.684 10.943-1.498 20.483-1.127 28.498 1.133 11.786 3.323 20.222 10.896 23.754 21.323 7.049 20.816-6.486 47.463-28.398 55.907zm-166.123-325.311h56.771l24.367-42.411h-105.503zm-80.295 227.072c7.234 3.369 14.976 7.91 23.428 13.833l64.188 17.199c9.691 2.597 17.808 8.84 22.853 17.579.435.753.842 1.516 1.222 2.289l90.348-26.506c.014-.004.028-.008.042-.012 36.575-44.339 33.416-110.009-8.134-164.138l-56.28-73.317h-57.971l-56.28 73.317c-33.875 44.131-42.723 97.421-23.416 139.756zm-94.912 171.326-58.712-140.983c-1.246-2.991-4.154-4.8-7.211-4.8-.995 0-2.005.191-2.979.596l-34.671 14.397c-1.949.81-3.457 2.307-4.245 4.218-.788 1.909-.775 4.034.036 5.982l58.712 140.982c1.651 3.965 6.222 5.85 10.191 4.204l34.671-14.397c1.949-.81 3.456-2.308 4.244-4.217.788-1.91.775-4.035-.036-5.982zm356.466-124.503c-4.88-14.409-25.656-17.772-55.574-8.995l-90.548 26.564c.35 4.25-.032 8.567-1.165 12.798-2.597 9.691-8.84 17.808-17.579 22.854s-18.891 6.392-28.581 3.797l-86.901-23.285c-3.734-1.001-5.95-4.839-4.95-8.573 1-3.736 4.846-5.947 8.573-4.95l86.902 23.285c6.078 1.629 12.455.777 17.957-2.398 5.501-3.176 9.427-8.272 11.056-14.352s.777-12.456-2.398-17.956c-3.176-5.501-8.272-9.427-14.352-11.056l-65.391-17.521c-.803-.215-1.561-.571-2.237-1.052-41.22-29.23-61.145-21.788-95.645-4.917-18.001 8.802-35.783 17.261-52.554 25.186l40.521 97.303 21.868-10.632c11.356-5.522 23.266-6.536 35.391-3.016l72.119 20.939c19.029 5.531 43.716-4.079 63.549-11.798 1.503-.585 2.978-1.158 4.421-1.715l135.35-52.158c14.801-5.704 24.792-24.7 20.168-38.352z"/></svg>