<svg id="Capa_1" enable-background="new 0 0 512 512" height="512" viewBox="0 0 512 512" width="512" xmlns="http://www.w3.org/2000/svg"><g><g><circle cx="135" cy="121" r="75"/><circle cx="377" cy="121" r="75"/></g><path d="m407 196h-136v105h-61c-16.569 0-30 13.431-30 30 0 16.567 13.431 30 30 30h61v105h91v-60c0-16.569 13.431-30 30-30s30 13.431 30 30v60h90v-165c0-57.891-47.109-105-105-105z"/><path d="m210 391c-33.091 0-60-26.909-60-60s26.909-60 60-60h31v-75h-136c-57.891 0-105 47.109-105 105v165h90v-60c0-16.569 13.431-30 30-30s30 13.431 30 30v60h91v-75z"/></g></svg>