<svg id="Layer_1" enable-background="new 0 0 512 512" viewBox="0 0 512 512" xmlns="http://www.w3.org/2000/svg"><path d="m427.1 84.9c-45.7-45.7-106.5-70.9-171.1-70.9s-125.4 25.2-171.1 70.9-70.9 106.5-70.9 171.1 25.2 125.4 70.9 171.1 106.5 70.9 171.1 70.9 125.4-25.2 171.1-70.9 70.9-106.5 70.9-171.1-25.2-125.4-70.9-171.1zm-339.4 339.4c-44.9-45-69.7-104.7-69.7-168.3s24.8-123.3 69.7-168.3c33.3-33.3 74.7-55.5 119.7-64.8-29.3 11.1-56.2 32.2-78.3 62.2-33.7 45.7-52.3 106.4-52.3 170.9s18.6 125.2 52.3 170.9c22.1 29.9 49 51.1 78.3 62.2-45-9.3-86.4-31.5-119.7-64.8zm-6.9-168.3c0-122.3 68.3-223.4 155.8-236.5-17.1 9.7-32.7 32.4-45.1 66.1-16.8 45.5-26.1 106.1-26.1 170.4s9.3 124.9 26.1 170.4c12.4 33.7 28 56.4 45.1 66.1-87.5-13.1-155.8-114.2-155.8-236.5zm173.2 238c-22-1.4-42.8-25.7-58.8-68.9-16.7-45.1-25.8-105.1-25.8-169s9.2-123.9 25.8-169c16-43.3 36.8-67.6 58.8-69z"/></svg>