<svg id="Layer_1" enable-background="new 0 0 512 512" viewBox="0 0 512 512" xmlns="http://www.w3.org/2000/svg"><path d="m196.681 101.075c6.657-15.37 15.672-31.693 27.507-43.71 8.434-8.562 19.368-15.865 31.812-15.865s23.378 7.304 31.812 15.866c11.835 12.017 20.85 28.34 27.507 43.71 7.925 18.295 13.644 37.765 17.858 57.232l.524 2.423h-155.402l.525-2.423c4.214-19.468 9.932-38.938 17.857-57.233zm-43.721 226.911c-3.392-23.809-4.954-47.938-4.954-71.984 0-24.045 1.561-48.178 4.954-71.988l.325-2.282h-98.545l-.478 1.319c-8.469 23.406-12.742 48.062-12.742 72.95 0 24.886 4.274 49.542 12.742 72.946l.478 1.319h98.545zm21.594-146.254-.258 1.7c-3.637 23.973-5.278 48.329-5.278 72.57 0 24.239 1.642 48.594 5.278 72.566l.258 1.7h162.893l.258-1.7c3.637-23.971 5.278-48.326 5.278-72.566 0-24.241-1.642-48.597-5.278-72.57l-.258-1.7zm160.042-89.005c9.18 21.158 15.601 43.814 20.146 66.397l.323 1.605h93.144l-1.51-2.919c-27.378-52.917-75.761-92.486-133.242-108.477l-5.882-1.636 3.773 4.799c9.544 12.137 17.117 26.101 23.248 40.231zm-177.338 66.398c4.545-22.583 10.966-45.239 20.146-66.397 6.131-14.13 13.705-28.095 23.248-40.23l3.773-4.799-5.882 1.636c-57.479 15.99-105.862 55.566-133.242 108.477l-1.51 2.919h93.144zm300.479 23.927-.478-1.319h-98.545l.325 2.282c3.393 23.81 4.954 47.943 4.954 71.988s-1.562 48.174-4.954 71.984l-.325 2.282h98.545l.478-1.319c8.468-23.404 12.742-48.06 12.742-72.946 0-24.89-4.273-49.546-12.742-72.952zm-280.333 236.221c-9.18-21.158-15.601-43.814-20.146-66.397l-.323-1.605h-93.144l1.51 2.919c27.38 52.91 75.764 92.487 133.242 108.477l5.882 1.636-3.773-4.799c-9.544-12.137-17.117-26.1-23.248-40.231zm177.338-66.398c-4.545 22.583-10.966 45.239-20.146 66.397-6.131 14.131-13.705 28.095-23.248 40.23l-3.773 4.799 5.882-1.636c57.479-15.99 105.862-55.566 133.242-108.477l1.51-2.919h-93.144zm-21.565.818.524-2.423h-155.402l.525 2.423c4.214 19.469 9.932 38.935 17.857 57.232 6.657 15.369 15.671 31.69 27.506 43.707 8.433 8.562 19.369 15.868 31.813 15.868s23.379-7.307 31.813-15.869c11.835-12.016 20.849-28.337 27.506-43.707 7.926-18.296 13.643-37.762 17.858-57.231z"/></svg>