<svg height="512" viewBox="0 0 64 64" width="512" xmlns="http://www.w3.org/2000/svg"><g id="Layer_4" data-name="Layer 4"><path d="m22.179 15.749h19.662l3.678 15.932h-27.019zm9.6 31.276-3.034-13.157h6.072zm-28.619 2.775 3.677-15.932h19.663l3.677 15.932zm30.225 0 3.677-15.932h19.663l3.675 15.932zm-16.02-34.258v-.478a5.3 5.3 0 0 1 -5.3-5.3h-.478a5.3 5.3 0 0 1 -5.3 5.3v.478a5.3 5.3 0 0 1 5.3 5.3h.478a5.3 5.3 0 0 1 5.3-5.3zm43.135 7.778v-.478a5.3 5.3 0 0 1 -5.3-5.3h-.478a5.3 5.3 0 0 1 -5.3 5.3v.478a5.3 5.3 0 0 1 5.3 5.3h.478a5.3 5.3 0 0 1 5.3-5.3z" fill="rgb(0,0,0)"/></g></svg>