<svg id="Layer_1" data-name="Layer 1" xmlns="http://www.w3.org/2000/svg" viewBox="0 0 457.19 391"><defs><style>.cls-1{fill:none;stroke:#121c27;stroke-linecap:round;stroke-miterlimit:10;stroke-width:10px;}</style></defs><path class="cls-1" d="M434,248.45V173.59A24.59,24.59,0,0,0,409.41,149H43.59A24.59,24.59,0,0,0,19,173.59v87.24A53.2,53.2,0,0,0,72.17,314H182" transform="translate(-14 -79)"/><path class="cls-1" d="M152,149V109.7A25.69,25.69,0,0,1,177.7,84h96.6A25.69,25.69,0,0,1,300,109.7V149" transform="translate(-14 -79)"/><path class="cls-1" d="M189.24,203h46.52A21.24,21.24,0,0,1,257,224.24V239.5A44.5,44.5,0,0,1,212.5,284h0A44.5,44.5,0,0,1,168,239.5V224.24A21.24,21.24,0,0,1,189.24,203Z"/><path class="cls-1" d="M39,302.37V431.8A33.19,33.19,0,0,0,72.2,465H400.8A33.19,33.19,0,0,0,434,431.8V301" transform="translate(-14 -79)"/><line class="cls-1" x1="420" y1="169.45" x2="420" y2="167"/><path class="cls-1" d="M398.36,203.06,336.5,296a3.25,3.25,0,0,0,2.71,5.05H462.93a3.25,3.25,0,0,0,2.71-5.05l-61.87-92.89A3.25,3.25,0,0,0,398.36,203.06Z" transform="translate(-14 -79)"/><line class="cls-1" x1="351.96" y1="222" x2="351.96" y2="384"/><path class="cls-1" d="M298,465V364.15A16.15,16.15,0,0,1,314.15,348H366V465" transform="translate(-14 -79)"/><path class="cls-1" d="M230,465V432.54A34.55,34.55,0,0,1,264.54,398H298v67" transform="translate(-14 -79)"/></svg>