<svg id="Layer_1" data-name="Layer 1" xmlns="http://www.w3.org/2000/svg" viewBox="0 0 419.8 415.39"><defs><style>.cls-1{fill:none;stroke:#121c27;stroke-linecap:round;stroke-miterlimit:10;stroke-width:10px;}</style></defs><path class="cls-1" d="M375.42,445H50.25a7.07,7.07,0,0,1-6.67-9.44l71.55-201.82a7.06,7.06,0,0,1,6.71-4.71l324.1,2.22a7.07,7.07,0,0,1,6.62,9.43l-70.48,199.6A7.06,7.06,0,0,1,375.42,445Z" transform="translate(-38.17 -34.61)"/><path class="cls-1" d="M372,230.74V152.56L261.35,39.61H112.65c-5.47,0-9.91,4.75-9.91,10.6V268.69" transform="translate(-38.17 -34.61)"/><path class="cls-1" d="M45.64,429.75V128.92c0-7.07,5.26-12.8,11.75-12.8h45.35" transform="translate(-38.17 -34.61)"/><path class="cls-1" d="M49.82,445l0,0" transform="translate(-38.17 -34.61)"/><path class="cls-1" d="M372,163.26H395.5A12.72,12.72,0,0,1,408.22,176v55" transform="translate(-38.17 -34.61)"/><path class="cls-1" d="M261.35,39.61V145.14a9,9,0,0,0,9,9H372" transform="translate(-38.17 -34.61)"/><line class="cls-1" x1="111.53" y1="159.37" x2="281.62" y2="159.37"/><line class="cls-1" x1="111.53" y1="110.58" x2="185.62" y2="110.58"/><line class="cls-1" x1="111.53" y1="61.79" x2="185.62" y2="61.79"/></svg>