<?xml version="1.0" encoding="UTF-8"?>
<svg xmlns="http://www.w3.org/2000/svg" id="Layer_1" data-name="Layer 1" viewBox="0 0 512 512" width="512" height="512"><path d="M256,489A233,233,0,0,1,91.24,91.24,233,233,0,0,1,420.76,420.76,231.51,231.51,0,0,1,256,489Zm0-450C136.35,39,39,136.35,39,256s97.35,217,217,217,217-97.35,217-217S375.65,39,256,39Z"/><path d="M256,489c-31.88,0-61.36-25-83-70.46C152.26,375,140.84,317.27,140.84,256S152.26,137,173,93.46C194.64,48,224.12,23,256,23s61.36,25,83,70.46C359.74,137,371.16,194.73,371.16,256S359.74,375,339,418.54C317.36,464,287.88,489,256,489Zm0-450c-25.37,0-49.71,21.78-68.55,61.34-19.74,41.45-30.61,96.73-30.61,155.66s10.87,114.21,30.61,155.66C206.29,451.21,230.63,473,256,473s49.71-21.79,68.55-61.34c19.74-41.45,30.61-96.73,30.61-155.66s-10.87-114.21-30.61-155.66C305.71,60.78,281.37,39,256,39Z"/><path d="M256,161.52a259.56,259.56,0,0,1-83-13.58,256.64,256.64,0,0,1-81-45,8,8,0,1,1,10.16-12.36,240.83,240.83,0,0,0,76,42.21,244.55,244.55,0,0,0,155.82,0,240.83,240.83,0,0,0,76-42.21A8,8,0,1,1,420,102.93a256.64,256.64,0,0,1-81,45A259.56,259.56,0,0,1,256,161.52Z"/><path d="M415,423.25a8,8,0,0,1-5.08-1.82,240.83,240.83,0,0,0-76-42.21,244.55,244.55,0,0,0-155.82,0,240.83,240.83,0,0,0-76,42.21A8,8,0,1,1,92,409.07a256.64,256.64,0,0,1,81-45,260.71,260.71,0,0,1,166.06,0,256.64,256.64,0,0,1,81,45A8,8,0,0,1,415,423.25Z"/><path d="M481,264H31a8,8,0,0,1,0-16H481a8,8,0,0,1,0,16Z"/><path d="M256,489a8,8,0,0,1-8-8V31a8,8,0,0,1,16,0V481A8,8,0,0,1,256,489Z"/></svg>
