<svg id="Layer_1" height="512" viewBox="0 0 66 66" width="512" xmlns="http://www.w3.org/2000/svg"><g><g><path d="m17.3 18.2c3.6 0 6.3-3.9 6.3-7.3 0-3.5-2.8-6.3-6.3-6.3s-6.3 2.8-6.3 6.3c-.1 3.4 2.7 7.3 6.3 7.3z"/></g><g><path d="m40.3 19.2c-.2 0-2 .3-18.4.5-.4 0-.7.2-.9.6-.8 1.8-1.9 3.4-3.1 4.9h-1.3c-1.3-1.5-2.3-3.2-3.1-4.9-.2-.3-.5-.6-.9-.6h-4.2c-3.2 0-5.7 2.6-5.7 5.7v15c0 1.6 1.3 3 3 3h2.9v20.6c0 .5.4 1 1 1h4.9c.5 0 .9-.4 1-.9l1-17.6h1.5l1 17.6c0 .5.5.9 1 .9h4.9c.5 0 1-.4 1-1l-.1-33c0-.8.3-1.5.9-1.9 2.8-2.4 10.4-1.9 14.1-3 2.4-.7 3.1-2.5 3-3.8-.2-2.1-2.1-3.3-3.5-3.1z"/></g><g><path d="m62.9 8.4-5.8-5.5c-.2-.2-.4-.3-.7-.3h-14.4v-.6c0-.5-.4-1-1-1-.5 0-1 .5-1 1v15.2h.6c.5 0 1 .1 1.4.2v-1.8h14.4c.3 0 .5-.1.7-.3l5.8-5.5c.2-.2.3-.4.3-.7s-.1-.5-.3-.7z"/></g><g><path d="m40 28.2v35.8c0 .6.5 1 1 1 .6 0 1-.4 1-1v-36.3c-.2.1-.4.2-.7.2-.4.1-.8.2-1.3.3z"/></g></g></svg>