<?xml version="1.0" encoding="utf-8"?>
<!-- Generator: Adobe Illustrator 24.2.0, SVG Export Plug-In . SVG Version: 6.00 Build 0)  -->
<svg version="1.1" id="Layer_1" xmlns="http://www.w3.org/2000/svg" xmlns:xlink="http://www.w3.org/1999/xlink" x="0px" y="0px"
	 viewBox="0 0 410 454.5" style="enable-background:new 0 0 410 454.5;" xml:space="preserve">
<style type="text/css">
	.st0{fill:none;stroke:#121C27;stroke-width:10;stroke-miterlimit:10;}
</style>
<path class="st0" d="M382.2,245.8V124.7c0-7.1-5.7-12.8-12.8-12.8H17.3c-7.1,0-12.8,5.7-12.8,12.8v312.5c0,7.1,5.7,12.8,12.8,12.8
	h352.1c7.1,0,12.8-5.7,12.8-12.8V315.9"/>
<line class="st0" x1="47.3" y1="111.9" x2="47.3" y2="450"/>
<path class="st0" d="M291.7,245.7h89.5c13.4,0,24.3,10.9,24.3,24.3v21.6c0,13.4-10.9,24.3-24.3,24.3h-89.5
	c-13.4,0-24.3-10.9-24.3-24.3V270C267.5,256.6,278.3,245.7,291.7,245.7z"/>
<line class="st0" x1="300.8" y1="292.7" x2="300.8" y2="292.7"/>
<path class="st0" d="M131.6,111.9l1.3-4.5l9-31.5l2.4-8.2l0.7-2.4l5.6-19.4l2.4-8.2l0.3-1.1l5.9-20.6c0.2-0.6,0.4-1.1,0.6-1.7l0,0
	l0,0l0,0c3.1-7.4,11.3-11.3,19-9.1l173.8,49.9c0.3,0.1,0.7,0.2,1,0.3l0,0c7.8,2.8,12.1,11.2,9.8,19.3L352.7,112"/>
<path class="st0" d="M318.5,111.9l3.9-13.7l2.2-7.5c1.4-4.8-1.4-9.9-6.2-11.3l0,0l-7.1-2.1l-59.9-17.2L205.7,47l0,0l-11-3.2
	c-4.8-1.4-9.9,1.4-11.3,6.2l0,0l-3,10.4l-2.1,7.4l-12.6,43.9"/>
<path class="st0" d="M251.5,59.4c0,0.3,0,0.5,0,0.8"/>
<path class="st0" d="M57.5,111.9l5.3-66.6c0.7-8.7,8.3-15.2,17-14.5l11.6,0.9h0.3h0.2l61.4,4.9h0.6"/>
<path class="st0" d="M86.8,111.9l2.5-30.6l0.9-11.2c0.4-5,4.8-8.7,9.8-8.3l45,3.6l1.2,0.1"/>
<line class="st0" x1="178.4" y1="67.9" x2="176.8" y2="67.8"/>
</svg>
