<?xml version="1.0"?>
<svg xmlns="http://www.w3.org/2000/svg" viewBox="0 0 64 64" width="512" height="512"><g id="Open_Box" data-name="Open Box"><path d="M61.707,28.293l-6.3454-6.3454,5.3972-6.2967a1,1,0,0,0-.3115-1.5454l-22-11a.9981.9981,0,0,0-1.2061.2436L32,9.4639,26.7588,3.3491a.9992.9992,0,0,0-1.2061-.2436l-22,11a1,1,0,0,0-.3115,1.5454l5.3972,6.2967L2.293,28.293a1,1,0,0,0,.26,1.6015L9,33.1182V49a1,1,0,0,0,.5527.8945l22,11a.9992.9992,0,0,0,.8946,0l22-11A1,1,0,0,0,55,49V33.1182l6.4473-3.2237A1,1,0,0,0,61.707,28.293ZM32,31.8818,12.2363,22,32,12.1182,51.7637,22ZM38.251,5.2437,58.4072,15.3218,53.749,20.7563,33.5928,10.6782Zm-12.502,0,4.6582,5.4345L10.251,20.7563,5.5928,15.3218ZM10.1973,23.2168,30.3115,33.2739l-5.5088,5.5093L4.6885,28.7261ZM11,34.1182l13.5527,6.7763a1.0176,1.0176,0,0,0,1.1543-.1875L31,35.4141V58.3818l-20-10ZM53,48.3818l-20,10V35.4141l5.293,5.2929a1.0488,1.0488,0,0,0,1.1543.1875L53,34.1182Zm.5527-16.7763L39.1973,38.7832l-5.5088-5.5093L53.8027,23.2168l5.5088,5.5093Z"/></g></svg>
