<svg height="512pt" viewBox="0 -26 512 512" width="512pt" xmlns="http://www.w3.org/2000/svg"><path d="m499.199219 102.398438h-115.199219v-38.398438c-.035156-35.332031-28.667969-63.9609375-64-64h-128c-35.332031.0390625-63.964844 28.667969-64 64v38.398438h-115.199219c-7.070312 0-12.800781 5.734374-12.800781 12.800781v75.917969l183.636719 60.148437c6.523437-12.765625 19.628906-20.816406 33.960937-20.867187h76.800782c14.335937.050781 27.441406 8.101562 33.960937 20.867187l183.640625-60.148437v-75.917969c0-7.066407-5.730469-12.800781-12.800781-12.800781zm-345.597657-38.398438c.023438-21.199219 17.203126-38.375 38.398438-38.398438h128c21.199219.023438 38.375 17.203126 38.398438 38.398438v38.398438h-204.796876zm0 0"/><path d="m294.402344 281.601562c7.066406 0 12.796875-5.734374 12.796875-12.800781 0-7.070312-5.730469-12.800781-12.796875-12.800781h-76.800782c-7.070312 0-12.800781 5.730469-12.800781 12.800781 0 7.066407 5.730469 12.800781 12.800781 12.800781zm0 0"/><path d="m294.402344 307.199219h-76.800782c-18.003906-.03125-33.570312-12.558594-37.453124-30.136719l-180.148438-59.015625v229.953125c0 7.070312 5.730469 12.800781 12.800781 12.800781h486.398438c7.070312 0 12.800781-5.730469 12.800781-12.800781v-229.953125l-180.148438 59.015625c-3.882812 17.578125-19.449218 30.105469-37.449218 30.136719zm0 0"/></svg>