<svg id="Layer_1" enable-background="new 0 0 512 512" height="512" viewBox="0 0 512 512" width="512" xmlns="http://www.w3.org/2000/svg"><path d="m458.155 68.327c-117.136-60.465-287.174-60.465-404.31 0-2.66 1.372-4.331 4.115-4.331 7.108v177.74c0 54.358 21.986 109.11 61.909 154.17 38.653 43.628 90.898 73.362 143.339 81.579.41.064.824.097 1.238.097s.828-.032 1.238-.097c52.44-8.217 104.686-37.951 143.338-81.579 39.923-45.06 61.909-99.812 61.909-154.17v-177.739c.001-2.994-1.67-5.737-4.33-7.109zm-11.669 184.849c0 102.527-87.102 202.857-190.485 219.744-103.385-16.887-190.487-117.217-190.487-219.744v-172.826c111.264-55.348 269.708-55.348 380.972 0zm-228.593-105.622v52.215h-52.214c-4.418 0-8 3.582-8 8v60.214c0 4.418 3.582 8 8 8h52.214v52.214c0 4.418 3.582 8 8 8h60.214c4.418 0 8-3.582 8-8v-52.214h52.214c4.418 0 8-3.582 8-8v-60.214c0-4.418-3.582-8-8-8h-52.214v-52.215c0-4.418-3.582-8-8-8h-60.214c-4.418 0-8 3.582-8 8zm16 60.215v-52.215h44.214v52.215c0 4.418 3.582 8 8 8h52.214v44.214h-52.214c-4.418 0-8 3.582-8 8v52.214h-44.214v-52.214c0-4.418-3.582-8-8-8h-52.214v-44.214h52.214c4.418 0 8-3.582 8-8z"/></svg>