<svg id="Capa_1" enable-background="new 0 0 512 512" height="512" viewBox="0 0 512 512" width="512" xmlns="http://www.w3.org/2000/svg"><path d="m506.57 242.806-76.204-76.223c-7.26-7.25-4.997-15.001 5.007-17.254 0 0 8.263-1.864 18.442-12.042 21.852-21.841 21.831-57.3 0-79.11-21.862-21.851-57.271-21.851-79.133 0-10.178 10.178-12.032 18.431-12.032 18.431-2.253 10.024-10.025 12.267-17.264 4.997l-76.204-76.16c-7.25-7.26-19.128-7.26-26.378 0l-76.194 76.182c-7.239 7.27-4.997 15.042 5.007 17.284 0 0 8.274 1.864 18.442 12.021 21.821 21.841 21.852 57.28 0 79.141-21.841 21.841-57.302 21.82-79.122 0-10.168-10.188-12.032-18.452-12.032-18.452-2.243-10.014-10.025-12.257-17.274-5.007l-76.194 76.203c-7.25 7.25-7.25 19.117 0 26.356l76.194 76.202c7.25 7.25 4.997 15.021-5.007 17.274 0 0-8.263 1.874-18.442 12.042-21.852 21.861-21.852 57.28 0 79.121 21.841 21.841 57.271 21.861 79.122 0 10.189-10.178 12.032-18.431 12.032-18.431 2.253-10.024 10.025-12.267 17.264-4.987l76.204 76.161c7.25 7.26 19.128 7.26 26.378 0l76.214-76.182c7.25-7.25 4.987-15.042-5.007-17.274 0 0-8.284-1.864-18.452-12.021-21.862-21.861-21.852-57.28 0-79.141 21.841-21.841 57.271-21.872 79.122 0 10.178 10.178 12.021 18.452 12.021 18.452 2.263 10.024 10.025 12.277 17.285 5.028l76.204-76.223c7.241-7.27 7.241-19.138.001-26.388z"/></svg>