<svg id="Layer_1" data-name="Layer 1" xmlns="http://www.w3.org/2000/svg" viewBox="0 0 409.13 404.71"><defs><style>.cls-1{fill:none;stroke:#000;stroke-miterlimit:10;stroke-width:4px;}</style></defs><rect class="cls-1" x="53.39" y="2" width="353.74" height="353.74"/><path d="M58.4,116.37V470.11H412.13V116.37ZM241.69,356a14.82,14.82,0,0,1-11,4.21,14.6,14.6,0,0,1-10.95-4.32,16.06,16.06,0,0,1,0-21.7,14.6,14.6,0,0,1,10.95-4.32,15.5,15.5,0,0,1,11,26.13Zm18.55-77.56-9.49,9.06q-6.94,6.33-9.06,11.07t-2.1,12.54v3.58H221.88v-3.37q0-11.17,2.64-17.7t10.64-13.91l9.27-8.64a33.78,33.78,0,0,0,11.17-25.5q0-10.55-5.37-16.13t-14.65-5.58q-10.11,0-16,6.32t-5.9,18.34H194.91q0-19.6,10.64-30.24t29.82-10.65q18.75,0,29.08,10t10.33,27.08Q274.78,263.95,260.24,278.48Z" transform="translate(-58.4 -65.39)"/></svg>