<svg id="Layer_1" height="512" viewBox="0 0 60 60" width="512" xmlns="http://www.w3.org/2000/svg"><path d="m8.55 54.53c.18.29.5.47.85.47h14.8c.35 0 .67-.18.85-.47s.2-.66.04-.97l-2.57-5.13c.88.14 1.77.23 2.67.23 4.53 0 8.79-1.76 12-4.97l.87-.87c.39-.39.39-1.02 0-1.41l-7.03-7.03 2.48-7.04c.1.01.2.03.3.03 2.23 0 4.05-1.82 4.05-4.05s-1.82-4.05-4.05-4.05-4.05 1.82-4.05 4.05c0 .06.01.11.02.16l-6.61 3.03-7.68-7.68c-.38-.38-1.04-.37-1.41 0l-.87.87c-6.61 6.61-6.61 17.38 0 23.99.05.05.11.1.16.15l-4.86 9.72c-.16.3-.14.67.04.97zm25.25-33.28c1.13 0 2.05.92 2.05 2.05s-.92 2.05-2.05 2.05c-.21 0-.42-.04-.61-.1 0 0-.01-.01-.01-.01-.01 0-.01 0-.02 0-.81-.27-1.4-1.03-1.4-1.94-.01-1.13.91-2.05 2.04-2.05zm-3.45 4.15c.32.52.74.97 1.25 1.3l-2.15 6.1-4.79-4.79zm-15.74-4.3.16-.16 21.17 21.16-.16.16c-2.83 2.83-6.58 4.38-10.58 4.38-1.43 0-2.84-.21-4.18-.6-.02-.01-.04-.01-.06-.01-2.37-.7-4.55-1.98-6.35-3.77-5.83-5.83-5.83-15.32 0-21.16zm.32 24.07c1.53 1.17 3.24 2.07 5.06 2.66l2.59 5.17h-11.56z"/><path d="m51.76 20.24c-.61-8.99-8.44-15.82-17.42-15.2-.55.04-.97.51-.93 1.07.04.55.53.97 1.07.93 7.91-.55 14.75 5.45 15.29 13.34.04.53.48.93 1 .93h.07c.54-.04.96-.52.92-1.07z"/><path d="m44.97 20.7c.04.53.48.93 1 .93h.07c.55-.04.97-.51.93-1.07-.43-6.35-5.95-11.17-12.3-10.73-.55.04-.97.51-.93 1.07.04.55.52.97 1.07.93 5.27-.35 9.8 3.62 10.16 8.87z"/><path d="m34.99 14.63c-.55.04-.97.51-.93 1.07.04.55.53.99 1.07.93 1.27-.08 2.48.33 3.43 1.16s1.52 1.98 1.61 3.24c.04.53.48.93 1 .93h.07c.55-.04.97-.51.93-1.06-.12-1.79-.93-3.43-2.29-4.62s-3.1-1.77-4.89-1.65z"/></svg>