<svg id="Layer_1" data-name="Layer 1" xmlns="http://www.w3.org/2000/svg" viewBox="0 0 445.52 444.87"><defs><style>.cls-1{fill:none;stroke:#121c27;stroke-linecap:round;stroke-miterlimit:10;stroke-width:10px;}</style></defs><rect class="cls-1" x="93.52" y="5" width="347" height="347" rx="10.02"/><path class="cls-1" d="M187.48,385v77.85a10,10,0,0,1-10,10H22.5a10,10,0,0,1-10-10v-155a10,10,0,0,1,10-10H101" transform="translate(-7.48 -33)"/><line class="cls-1" x1="140.52" y1="305" x2="390.52" y2="55"/><path class="cls-1" d="M194,341H149a4,4,0,0,1-4-4V292" transform="translate(-7.48 -33)"/><path class="cls-1" d="M353.45,83.44h45a4,4,0,0,1,4,4v45" transform="translate(-7.48 -33)"/></svg>