<svg xmlns="http://www.w3.org/2000/svg" fill="none" height="24" viewBox="0 0 24 24" width="24"><path d="m22 21.0269-5.2776-5.2776c1.2366-1.4574 1.9867-3.3382 1.9867-5.3948 0-4.60633-3.7482-8.3545-8.3546-8.3545-4.60632 0-8.3545 3.74817-8.3545 8.3545 0 4.6064 3.74818 8.3546 8.3545 8.3546 2.0566 0 3.9374-.7501 5.3948-1.9867l5.2776 5.2776zm-18.62371-10.6724c0-3.84724 3.13098-6.97822 6.97821-6.97822 3.8473 0 6.9783 3.13098 6.9783 6.97822 0 3.8473-3.131 6.9783-6.9783 6.9783-3.84723 0-6.97821-3.131-6.97821-6.9783z" fill="rgb(0,0,0)"></path></svg>