<svg id="Layer_1" height="512" viewBox="0 0 24 24" width="512" xmlns="http://www.w3.org/2000/svg" data-name="Layer 1"><path d="m21.206 4.279a64.958 64.958 0 0 1 -8.872-2.951.761.761 0 0 0 -.668 0 64.958 64.958 0 0 1 -8.872 2.951.75.75 0 0 0 -.544.721v6.116a10.756 10.756 0 0 0 5.529 9.4l2.885 1.6a2.73 2.73 0 0 0 2.671 0l2.886-1.6a10.756 10.756 0 0 0 5.529-9.4v-6.116a.75.75 0 0 0 -.544-.721zm-5.676 5.251-4 4a.748.748 0 0 1 -1.06 0l-2-2a.75.75 0 0 1 1.06-1.06l1.47 1.469 3.47-3.469a.75.75 0 0 1 1.06 1.06z"/></svg>