<svg viewBox="0 0 32 32" xmlns="http://www.w3.org/2000/svg"><g id="Layer_2" data-name="Layer 2"><path d="m21 8h5l-6-6v5a1 1 0 0 0 1 1z"/><path d="m18 7v-5h-10a2 2 0 0 0 -2 2v24a2 2 0 0 0 2 2h16a2 2 0 0 0 2-2v-18h-5a3 3 0 0 1 -3-3zm-5.29 13.29a1 1 0 0 1 0 1.42 1 1 0 0 1 -1.42 0l-2-2a1 1 0 0 1 0-1.42l2-2a1 1 0 0 1 1.42 1.42l-1.3 1.29zm5.24-4-2 6a1 1 0 0 1 -.95.71 1.25 1.25 0 0 1 -.32-.05 1 1 0 0 1 -.63-1.27l2-6a1 1 0 1 1 1.9.64zm4.76 3.39-2 2a1 1 0 0 1 -1.42 0 1 1 0 0 1 0-1.42l1.3-1.26-1.3-1.29a1 1 0 0 1 1.42-1.42l2 2a1 1 0 0 1 0 1.42z"/></g></svg>