<svg id="Objects" height="512" viewBox="0 0 64 64" width="512" xmlns="http://www.w3.org/2000/svg"><g fill="rgb(0,0,0)"><path d="m36.444 41.422h-6.46a4.077 4.077 0 0 1 -3.922-3.5l-.529-3.039-1.45-.746a1 1 0 0 1 -.543-.89v-7.084a1 1 0 0 1 1-1h17.349a1 1 0 0 1 1 1v7.084a1 1 0 0 1 -.543.89l-1.45.746-.529 3.039a4.077 4.077 0 0 1 -3.923 3.5zm-10.9-8.785 1.351.694a1 1 0 0 1 .528.719l.613 3.53a2.088 2.088 0 0 0 1.952 1.842h6.46a2.087 2.087 0 0 0 1.952-1.842l.614-3.53a1 1 0 0 1 .528-.719l1.351-.694v-5.474h-15.353z"/><path d="m33.214 62.539a29.929 29.929 0 1 1 25.086-46.252 29.933 29.933 0 0 1 -25.086 46.252zm0-57.857a27.92 27.92 0 1 0 23.413 12.7 27.863 27.863 0 0 0 -23.413-12.7zm0 50.4a22.472 22.472 0 1 1 22.473-22.471 22.5 22.5 0 0 1 -22.473 22.471zm0-42.943a20.472 20.472 0 1 0 20.473 20.472 20.5 20.5 0 0 0 -20.473-20.472z"/><path d="m24.54 27.163h-3.713a5.989 5.989 0 0 1 -5.981-5.983v-1.222h2v1.222a3.987 3.987 0 0 0 3.981 3.983h3.713z"/><path d="m13.836 39.5h-2v-1.226a5.988 5.988 0 0 1 5.98-5.982h6.724v2h-6.724a3.986 3.986 0 0 0 -3.98 3.982z"/><path d="m45.6 27.163h-3.711v-2h3.711a3.987 3.987 0 0 0 3.981-3.983v-1.222h2v1.222a5.989 5.989 0 0 1 -5.981 5.983z"/><path d="m54.594 39.5h-2v-1.226a3.987 3.987 0 0 0 -3.982-3.982h-6.723v-2h6.723a5.989 5.989 0 0 1 5.982 5.982z"/><path d="m42.414 53.025a5.989 5.989 0 0 1 -5.981-5.983v-6.8h2v6.805a3.986 3.986 0 0 0 3.981 3.983z"/><path d="m24.015 53.025v-2a3.986 3.986 0 0 0 3.985-3.983v-6.8h2v6.805a5.989 5.989 0 0 1 -5.985 5.978z"/><path d="m33.215 36.87a4.259 4.259 0 1 1 4.258-4.259 4.264 4.264 0 0 1 -4.258 4.259zm0-6.518a2.259 2.259 0 1 0 2.258 2.259 2.262 2.262 0 0 0 -2.258-2.259z"/><path d="m47.779 47.386h9.686v2h-9.686z"/><path d="m52.772 17.836h-4.744v-2l9.437-.001v2z"/><path d="m9.002 47.386h9.686v2h-9.686z"/><path d="m9.251 15.836h9.437v2h-9.437z"/></g></svg>