<svg id="Glyph" viewBox="0 0 64 64" xmlns="http://www.w3.org/2000/svg"><path d="m36.99957 29.00187c-.20599-6.60848-9.79414-6.60693-9.99915.00011.20599 6.60837 9.79414 6.60682 9.99915-.00011z"/><path d="m32 15.00221c-16.48655.11908-23.14406 21.10439-9.99886 30.71925-.00023-.00003-.00023-1.71997-.00023-1.71997 0-4.1299 2.50977-7.66982 6.07947-9.19976-5.64191-3.80466-2.98338-12.7748 3.91974-12.79965 6.90348.02742 9.56193 8.99269 3.91937 12.79967 3.56983 1.52991 6.07959 5.06984 6.07959 9.19974v1.71994c13.14518-9.61583 6.48619-30.60181-9.99908-30.71922z"/><path d="m32 36.0017c-4.40961 0-7.99927 3.58985-7.99927 7.99979v2.98993c2.38977 1.27993 5.1095 2.00993 7.99927 2.00993s5.6095-.72999 7.99927-2.00993v-2.98993c0-4.40994-3.58966-7.99979-7.99927-7.99979z"/><path d="m53.92804 49.2713 1.55988-1.55997c.63519-.59739.15621-1.74205-.70994-1.70991.00004-.00002-7.77932-.00002-7.77932-.00002-.54993 0-.99988.45002-.99988 1.00002v7.77975c0 .41004.23993.76997.61993.92995.36993.15003.79993.07001 1.0899-.21997l1.55988-1.55997 5.77942 5.77983c.39205.38164 1.02.38898 1.40991 0 0 0 3.24975-3.24987 3.24975-3.24987.38989-.38996.38989-1.01998 0-1.40994l-5.77954-5.7799z"/><path d="m46.99866 18.00214h7.77936c.8651.0296 1.34619-1.11016.70986-1.71001.00004.00002-1.55983-1.55989-1.55983-1.55989l5.77954-5.77983c.38989-.39002.38989-1.01998 0-1.41l-3.24976-3.24994c-.38995-.38996-1.0199-.38996-1.40991 0l-5.77942 5.7799-1.55988-1.55997c-.59759-.63529-1.7419-.15625-1.70982.71001-.00002-.00004-.00002 7.77977-.00002 7.77977 0 .54994.44995.99996.99988.99996z"/><path d="m10.07196 14.73225-1.55988 1.55991c-.6351.59754-.15634 1.74201.70994 1.70997-.00004.00002 7.77932.00002 7.77932.00002.54993 0 .99988-.45002.99988-.99996v-7.77981c0-.40998-.23993-.76997-.61993-.93001-.36993-.14997-.79993-.07001-1.0899.22004l-1.55988 1.55997-5.77942-5.7799c-.39001-.38996-1.01996-.38996-1.40991 0l-3.24976 3.24994c-.38989.39002-.38989 1.01998 0 1.41z"/><path d="m17.00134 46.0014h-7.77936c-.86506-.02949-1.34618 1.11004-.70986 1.70995-.00004-.00002 1.55983 1.55995 1.55983 1.55995l-5.77954 5.7799c-.38989.38996-.38989 1.01998 0 1.40994l3.24976 3.24988c.39012.3886 1.01771.38191 1.40991 0 0 0 5.77942-5.77983 5.77942-5.77983l1.55988 1.55997c.59751.63529 1.74194.15622 1.70982-.71001.00002.00004.00002-7.77971.00002-7.77971 0-.55-.44995-1.00002-.99988-1.00002z"/></svg>