<svg id="Capa_1" enable-background="new 0 0 512 512" height="512" viewBox="0 0 512 512" width="512" xmlns="http://www.w3.org/2000/svg"><path d="m316.035 271.013c0 41.381-33.666 75.047-75.047 75.047s-75.047-33.666-75.047-75.047c0-41.382 33.666-75.049 75.047-75.049 15.277 0 29.495 4.6 41.364 12.471l43.522-43.522c-.982-.718-1.969-1.433-2.973-2.135-29.515-20.625-59.081-31.049-88.002-31.049-2.649 0-5.291.087-7.929.262-34.896 2.375-67.406 17.91-91.519 43.741-24.173 25.854-37.481 59.688-37.481 95.281 0 38.188 14.88 74.1 41.898 101.118 27.02 27.02 62.931 41.899 101.119 41.899s74.1-14.88 101.119-41.899c27.018-27.019 41.897-62.93 41.897-101.118 0-31.434-12.694-61.612-35.612-86.193l-44.829 44.828c7.874 11.869 12.473 26.088 12.473 41.365z"/><path d="m230.382 260.406 30.032-30.032c-5.885-2.825-12.473-4.41-19.425-4.41-24.839 0-45.047 20.209-45.047 45.049 0 24.839 20.208 45.047 45.047 45.047s45.047-20.208 45.047-45.047c0-6.952-1.585-13.541-4.409-19.426l-30.031 30.031z"/><path d="m388.284 144.929-18.664 18.664c28.543 30.221 44.385 67.885 44.385 107.42 0 46.202-18 89.646-50.685 122.331-32.686 32.686-76.131 50.687-122.332 50.687s-89.646-18.001-122.332-50.687c-32.686-32.685-50.686-76.13-50.686-122.331 0-43.228 16.181-84.339 45.56-115.761 29.313-31.404 68.89-50.299 111.429-53.194 38.451-2.541 77.171 9.606 115.126 36.13 2.464 1.722 4.86 3.496 7.213 5.302l19.774-19.774 3.167-56.191c-38.274-24.416-82.755-37.5-129.25-37.5-64.37 0-124.888 25.067-170.404 70.583-45.518 45.516-70.585 106.034-70.585 170.404s25.067 124.888 70.584 170.404 106.034 70.584 170.404 70.584 124.888-25.067 170.404-70.584 70.583-106.034 70.583-170.404c0-46.495-13.085-90.976-37.5-129.25z"/><path d="m397.646 114.354 61.298-3.455 53.056-53.057-57.841-57.842-53.057 53.056z"/></svg>