<?xml version="1.0" encoding="utf-8"?>
<!-- Generator: Adobe Illustrator 24.2.0, SVG Export Plug-In . SVG Version: 6.00 Build 0)  -->
<svg version="1.1" id="Layer_1" xmlns="http://www.w3.org/2000/svg" xmlns:xlink="http://www.w3.org/1999/xlink" x="0px" y="0px"
	 viewBox="0 0 446 445" style="enable-background:new 0 0 446 445;" xml:space="preserve">
<style type="text/css">
	.st0{fill:none;stroke:#121C27;stroke-width:10;stroke-linecap:round;stroke-miterlimit:10;}
</style>
<path class="st0" d="M86.6,102.1c-45.5,1.4-81.3,39.5-79.9,85c1.4,44.7,38.1,80.1,82.8,79.9h270c45.6,0,82.5-36.9,82.5-82.5
	S405.1,102,359.5,102H352"/>
<path class="st0" d="M114.2,155.9c-35.6-32.7-37.9-88.1-5.1-123.6s88.1-37.9,123.6-5.1c4.9,4.5,9.3,9.6,13,15"/>
<path class="st0" d="M245.7,42.1c33.1-20,76.1-9.5,96.1,23.6C348.5,76.7,352,89.2,352,102"/>
<path class="st0" d="M147,267v89.7c0,12.9-10.4,23.3-23.3,23.3H66"/>
<circle class="st0" cx="35" cy="380" r="31"/>
<path class="st0" d="M380,380h-57.7c-12.9,0-23.3-10.4-23.3-23.3V267"/>
<circle class="st0" cx="411" cy="380" r="31"/>
<circle class="st0" cx="223" cy="410" r="31"/>
<line class="st0" x1="223" y1="379" x2="223" y2="267"/>
</svg>
