<svg fill="none" height="512" viewBox="0 0 32 32" width="512" xmlns="http://www.w3.org/2000/svg"><g fill="rgb(0,0,0)"><path d="m13.2843 2.04217c-.1874-.05623-.3871-.05623-.5745 0l-9.99734 3c-.42287.1269-.71246.51622-.71246.95783v12.4705c0 3.1613 1.65825 6.0909 4.36837 7.7174l6.11433 3.6696c.3166.19.7121.19 1.0287 0l6.1143-3.6696c1.3227-.7938 2.3948-1.8979 3.1458-3.1879h-3.5336c-3.9124 0-6.7886-4.3376-4.3907-7.9678l3.7565-5.68726c1.2386-1.87515 3.4073-2.6257 5.3904-2.25162v-1.09332c0-.44161-.2896-.83093-.7125-.95783z"/><path clip-rule="evenodd" d="m20.2719 10.4474c1.2748-1.92987 4.1702-1.92988 5.4449 0l3.7565 5.6872c1.4252 2.1577-.2292 4.8654-2.7224 4.8654h-7.513c-2.4933 0-4.1477-2.7077-2.7225-4.8654zm3.7222 2.5526c0-.5523-.4476-1-.9997-1-.5522 0-.9998.4477-.9998 1v1c0 .5523.4476 1 .9998 1 .5521 0 .9997-.4477.9997-1zm0 4c0 .5523-.4476 1-.9997 1-.5522 0-.9998-.4477-.9998-1s.4476-1 .9998-1c.5521 0 .9997.4477.9997 1z" fill-rule="evenodd"/></g></svg>