<svg xmlns="http://www.w3.org/2000/svg" id="Layer_1" height="512" viewBox="0 0 512.04 512.04" width="512"><g><g><g><path d="m134.938 334.708c-6.784-9.482-15.413-17.175-24.954-22.246-33.307-17.704-66.512-4.227-91.932 36.894 12.713 32.191 31.918 61.74 56.967 86.976 48.377 48.738 112.698 75.579 181.113 75.579 28.747 0 56.764-4.757 83.186-13.867-37.759-6.286-68.551-18.872-95.855-38.741-37.72-27.449-66.163-65.382-108.525-124.595z"></path><path d="m409.034 399.14c-18.876 0-38.085-3.563-57.325-10.773-43.726-16.386-79.337-49.257-100.273-92.56-2.399-4.962-4.849-10.178-7.442-15.699-7.259-15.455-15.482-32.964-26.883-54.135-25.574-44.03-57.806-65.697-95.86-64.327-52.49 1.858-102.799 46.988-120.988 80.656-.166 3.842-.263 7.697-.263 11.567 0 18.601 1.958 36.897 5.742 54.662 38.986-44.932 85.811-44.57 120.098-26.346 14.152 7.522 26.831 18.763 36.663 32.507 40.363 56.417 67.292 92.436 100.856 116.859 34.648 25.212 75.167 36.359 134.947 37.049 13.846-9.347 26.888-20.127 38.939-32.268 16.283-16.405 30.092-34.636 41.263-54.225-22.171 11.29-45.547 17.033-69.474 17.033z"></path><path d="m402.803 95.043c44.396 66.357 74.636 79.165 88.71 80.892 3.478.427 6.418.235 8.828-.238-12.228-38.925-33.618-74.594-63.096-104.292-37.137-37.414-83.674-61.905-134.242-71.275 37.149 19.474 70.56 51.21 99.8 94.913z"></path><path d="m509.962 288.582c-2.898 1.394-5.898 2.629-8.976 3.671-7.005 2.374-16.207 4.404-27.172 4.405-25.275 0-59.922-10.783-98.694-53.036-12.847-13.372-25.592-27.52-37.919-41.203-37.074-41.151-75.409-83.703-119.7-108.454-47.574-26.584-96.531-29.93-153.733-10.462-23.534 26.895-40.971 57.945-51.605 91.432 4.679-4.125 9.557-8.091 14.609-11.838 20.91-15.503 54.067-34.276 93.286-35.664 35.483-1.279 86.19 11.866 126.532 81.509.088.152.174.305.258.46 11.915 22.11 20.387 40.148 27.862 56.063 2.551 5.431 4.961 10.562 7.276 15.35 17.096 35.36 46.064 62.16 81.571 75.466 34.985 13.109 87.36 17.565 139.73-34.303 2.945-10.918 5.173-22.07 6.675-33.396z"></path><path d="m508.422 208.977c-3.893.883-8.232 1.436-13.02 1.436-1.785 0-3.631-.076-5.539-.24-35.906-3.077-74.677-35.374-115.237-95.997-38.93-58.188-85.272-92.037-137.74-100.604-41.695-6.811-79.354 3.699-104.004 13.979-5.62 3.117-11.131 6.453-16.524 10.005 41.428-3.178 80.313 5.622 117.625 26.472 49.199 27.491 89.452 72.172 128.38 115.382 12.191 13.533 24.797 27.525 37.31 40.544.094.098.187.197.279.296 37.971 41.442 67.524 45.093 85.63 40.859 16.122-3.77 24.607-13.923 26.459-17.712-.458-11.627-1.663-23.122-3.619-34.42z"></path></g></g></g></svg>