<svg xmlns="http://www.w3.org/2000/svg" id="Layer_1" height="512" viewBox="0 0 128 128" width="512" data-name="Layer 1"><path d="m56.30506 90.95052a13.92854 13.92854 0 0 0 11.38552-5.48323 2.03071 2.03071 0 0 0 -3.32569-2.33129 9.83178 9.83178 0 0 1 -8.05983 3.75224 9.82724 9.82724 0 0 1 -8.05847-3.75224 2.03127 2.03127 0 0 0 -3.327 2.33129 13.92728 13.92728 0 0 0 11.38547 5.48323z"></path><path d="m94.73558 92.62609a8.36279 8.36279 0 0 0 -4.46976-6.13124l-14.34506-7.26646-4.36437 2.28179 5.2068 5.96747a69.91988 69.91988 0 0 1 -21.15747 11.05572 69.91851 69.91851 0 0 1 -21.15725-11.05572l5.20658-5.96747-4.36415-2.28179-14.34529 7.26646a8.36308 8.36308 0 0 0 -4.46953 6.13124l-3.405 21.16656-2.02421 12.57819h89.11784l-2.02421-12.57819z"></path><path d="m99.02 69.04419-2.33085-2.2409a7.51076 7.51076 0 0 0 -6.6014-1.95653l-4.83045-5.53933a35.92618 35.92618 0 0 0 6.97459-22.26907 36.79658 36.79658 0 0 0 -63.20623-24.20561l-.00091-.0009-.012.01362-.013.01272.00091.00091a36.79641 36.79641 0 0 0 27.51745 61.83617 35.92454 35.92454 0 0 0 21.86863-8.14365l5.78736 4.53063a7.50922 7.50922 0 0 0 2.30314 6.48852l2.36128 2.20933 18.08481 16.99935 10.02976-10.57533zm-15.23566-27.62119a27.97449 27.97449 0 0 1 -7.68824 16.07622 27.97383 27.97383 0 0 1 -15.64676 8.52841 28.2571 28.2571 0 0 1 -32.68834-23.10763 28.63591 28.63591 0 0 1 7.20149-24.43206 28.63623 28.63623 0 0 1 24.01618-8.48434 28.257 28.257 0 0 1 24.80567 31.4194z"></path></svg>