<svg xmlns="http://www.w3.org/2000/svg" id="Layer_1" height="512" viewBox="0 0 25 25" width="512"><g><path d="m21.9 3.6c0-1.7-1.4-3.1-3.1-3.1h-8c-.5 0-.9.1-1.2.3-.3.1-.7.3-.9.5l-4.6 4.5c-.3.2-.5.5-.7.9s-.3.8-.3 1.3v13.3c0 1.7 1.4 3.1 3.1 3.1h12.6c1.7 0 3.1-1.4 3.1-3.1zm-9.4 3.6c1.5 0 2.7 1.2 2.7 2.7s-1.2 2.7-2.7 2.7-2.7-1.2-2.7-2.7 1.2-2.7 2.7-2.7zm3.6 11.8h-6.5c-1.7 0-2.3-.8-1.9-1.8.5-1.3 1.5-2.3 2.7-2.8.2-.1.4-.1.6 0 1 .4 2.2.3 3.1 0 .2-.1.4-.1.6 0 1.2.6 2.2 1.6 2.7 2.9.3.8-.4 1.7-1.3 1.7z"></path></g></svg>